<ttFont>
    <TTGlyph name="A" xMin="-16" yMin="0" xMax="695" yMax="718">
      <contour>
        <pt x="492" y="46" on="0"/>
        <pt x="513" y="66" on="0"/>
        <pt x="513" y="100" on="0"/>
        <pt x="502" y="133" on="1"/>
        <pt x="454" y="273" on="1"/>
        <pt x="223" y="273" on="1"/>
        <pt x="199" y="200" on="1"/>
        <pt x="176" y="131" on="0"/>
        <pt x="176" y="61" on="0"/>
        <pt x="190" y="34" on="1"/>
        <pt x="199" y="16" on="1"/>
        <pt x="180" y="0" on="1"/>
        <pt x="-4" y="0" on="1"/>
        <pt x="-16" y="34" on="1"/>
        <pt x="7" y="40" on="1"/>
        <pt x="47" y="51" on="0"/>
        <pt x="83" y="87" on="0"/>
        <pt x="99" y="133" on="1"/>
        <pt x="256" y="585" on="1"/>
        <pt x="267" y="618" on="0"/>
        <pt x="267" y="652" on="0"/>
        <pt x="246" y="672" on="0"/>
        <pt x="222" y="678" on="1"/>
        <pt x="199" y="684" on="1"/>
        <pt x="211" y="718" on="1"/>
        <pt x="404" y="718" on="1"/>
        <pt x="605" y="138" on="1"/>
        <pt x="621" y="92" on="0"/>
        <pt x="659" y="44" on="0"/>
        <pt x="695" y="16" on="1"/>
        <pt x="682" y="0" on="1"/>
        <pt x="457" y="0" on="1"/>
        <pt x="445" y="34" on="1"/>
        <pt x="468" y="40" on="1"/>
      </contour>
      <contour>
        <pt x="337" y="615" on="1"/>
        <pt x="244" y="335" on="1"/>
        <pt x="433" y="335" on="1"/>
      </contour>
    </TTGlyph>
    <TTGlyph name="AE" xMin="-14" yMin="-25" xMax="901" yMax="752">
      <contour>
        <pt x="665" y="306" on="1"/>
        <pt x="580" y="306" on="1"/>
        <pt x="580" y="133" on="1"/>
        <pt x="580" y="87" on="0"/>
        <pt x="605" y="57" on="0"/>
        <pt x="644" y="57" on="1"/>
        <pt x="752" y="57" on="1"/>
        <pt x="805" y="57" on="0"/>
        <pt x="847" y="92" on="0"/>
        <pt x="861" y="146" on="1"/>
        <pt x="867" y="169" on="1"/>
        <pt x="901" y="157" on="1"/>
        <pt x="901" y="-14" on="1"/>
        <pt x="881" y="-25" on="1"/>
        <pt x="873" y="-14" on="1"/>
        <pt x="862" y="0" on="0"/>
        <pt x="831" y="0" on="1"/>
        <pt x="410" y="0" on="1"/>
        <pt x="399" y="32" on="1"/>
        <pt x="420" y="38" on="1"/>
        <pt x="457" y="49" on="0"/>
        <pt x="481" y="83" on="0"/>
        <pt x="481" y="126" on="1"/>
        <pt x="481" y="306" on="1"/>
        <pt x="283" y="306" on="1"/>
        <pt x="200" y="154" on="1"/>
        <pt x="179" y="115" on="0"/>
        <pt x="179" y="63" on="0"/>
        <pt x="192" y="34" on="1"/>
        <pt x="201" y="16" on="1"/>
        <pt x="182" y="0" on="1"/>
        <pt x="-2" y="0" on="1"/>
        <pt x="-14" y="34" on="1"/>
        <pt x="9" y="40" on="1"/>
        <pt x="65" y="55" on="0"/>
        <pt x="87" y="94" on="1"/>
        <pt x="435" y="718" on="1"/>
        <pt x="742" y="718" on="1"/>
        <pt x="828" y="718" on="0"/>
        <pt x="856" y="739" on="1"/>
        <pt x="874" y="752" on="1"/>
        <pt x="890" y="739" on="1"/>
        <pt x="890" y="561" on="1"/>
        <pt x="856" y="549" on="1"/>
        <pt x="850" y="572" on="1"/>
        <pt x="836" y="626" on="0"/>
        <pt x="794" y="661" on="0"/>
        <pt x="741" y="661" on="1"/>
        <pt x="644" y="661" on="1"/>
        <pt x="605" y="661" on="0"/>
        <pt x="580" y="631" on="0"/>
        <pt x="580" y="585" on="1"/>
        <pt x="580" y="363" on="1"/>
        <pt x="707" y="363" on="1"/>
        <pt x="753" y="363" on="0"/>
        <pt x="786" y="409" on="1"/>
        <pt x="794" y="420" on="1"/>
        <pt x="814" y="409" on="1"/>
        <pt x="814" y="238" on="1"/>
        <pt x="780" y="226" on="1"/>
        <pt x="774" y="249" on="1"/>
        <pt x="765" y="283" on="0"/>
        <pt x="720" y="306" on="0"/>
      </contour>
      <contour>
        <pt x="481" y="363" on="1"/>
        <pt x="481" y="665" on="1"/>
        <pt x="315" y="363" on="1"/>
      </contour>
    </TTGlyph>
    <TTGlyph name="Aacute" xMin="-16" yMin="0" xMax="695" yMax="981">
      <contour>
        <pt x="492" y="46" on="0"/>
        <pt x="513" y="66" on="0"/>
        <pt x="513" y="100" on="0"/>
        <pt x="502" y="133" on="1"/>
        <pt x="454" y="273" on="1"/>
        <pt x="223" y="273" on="1"/>
        <pt x="199" y="200" on="1"/>
        <pt x="176" y="131" on="0"/>
        <pt x="176" y="61" on="0"/>
        <pt x="190" y="34" on="1"/>
        <pt x="199" y="16" on="1"/>
        <pt x="180" y="0" on="1"/>
        <pt x="-4" y="0" on="1"/>
        <pt x="-16" y="34" on="1"/>
        <pt x="7" y="40" on="1"/>
        <pt x="47" y="51" on="0"/>
        <pt x="83" y="87" on="0"/>
        <pt x="99" y="133" on="1"/>
        <pt x="256" y="585" on="1"/>
        <pt x="267" y="618" on="0"/>
        <pt x="267" y="652" on="0"/>
        <pt x="246" y="672" on="0"/>
        <pt x="222" y="678" on="1"/>
        <pt x="199" y="684" on="1"/>
        <pt x="211" y="718" on="1"/>
        <pt x="404" y="718" on="1"/>
        <pt x="605" y="138" on="1"/>
        <pt x="621" y="92" on="0"/>
        <pt x="659" y="44" on="0"/>
        <pt x="695" y="16" on="1"/>
        <pt x="682" y="0" on="1"/>
        <pt x="457" y="0" on="1"/>
        <pt x="445" y="34" on="1"/>
        <pt x="468" y="40" on="1"/>
      </contour>
      <contour>
        <pt x="337" y="615" on="1"/>
        <pt x="244" y="335" on="1"/>
        <pt x="433" y="335" on="1"/>
      </contour>
      <contour>
        <pt x="410" y="981" on="1"/>
        <pt x="452" y="961" on="0"/>
        <pt x="452" y="873" on="0"/>
        <pt x="396" y="846" on="1"/>
        <pt x="283" y="790" on="1"/>
        <pt x="254" y="825" on="1"/>
      </contour>
    </TTGlyph>
    <TTGlyph name="Acircumflex" xMin="-16" yMin="0" xMax="695" yMax="976">
      <contour>
        <pt x="492" y="46" on="0"/>
        <pt x="513" y="66" on="0"/>
        <pt x="513" y="100" on="0"/>
        <pt x="502" y="133" on="1"/>
        <pt x="454" y="273" on="1"/>
        <pt x="223" y="273" on="1"/>
        <pt x="199" y="200" on="1"/>
        <pt x="176" y="131" on="0"/>
        <pt x="176" y="61" on="0"/>
        <pt x="190" y="34" on="1"/>
        <pt x="199" y="16" on="1"/>
        <pt x="180" y="0" on="1"/>
        <pt x="-4" y="0" on="1"/>
        <pt x="-16" y="34" on="1"/>
        <pt x="7" y="40" on="1"/>
        <pt x="47" y="51" on="0"/>
        <pt x="83" y="87" on="0"/>
        <pt x="99" y="133" on="1"/>
        <pt x="256" y="585" on="1"/>
        <pt x="267" y="618" on="0"/>
        <pt x="267" y="652" on="0"/>
        <pt x="246" y="672" on="0"/>
        <pt x="222" y="678" on="1"/>
        <pt x="199" y="684" on="1"/>
        <pt x="211" y="718" on="1"/>
        <pt x="404" y="718" on="1"/>
        <pt x="605" y="138" on="1"/>
        <pt x="621" y="92" on="0"/>
        <pt x="659" y="44" on="0"/>
        <pt x="695" y="16" on="1"/>
        <pt x="682" y="0" on="1"/>
        <pt x="457" y="0" on="1"/>
        <pt x="445" y="34" on="1"/>
        <pt x="468" y="40" on="1"/>
      </contour>
      <contour>
        <pt x="337" y="615" on="1"/>
        <pt x="244" y="335" on="1"/>
        <pt x="433" y="335" on="1"/>
      </contour>
      <contour>
        <pt x="340" y="976" on="1"/>
        <pt x="367" y="976" on="1"/>
        <pt x="385" y="965" on="0"/>
        <pt x="459" y="873" on="0"/>
        <pt x="490" y="818" on="1"/>
        <pt x="458" y="790" on="1"/>
        <pt x="353" y="873" on="1"/>
        <pt x="249" y="790" on="1"/>
        <pt x="216" y="818" on="1"/>
        <pt x="248" y="874" on="0"/>
        <pt x="320" y="964" on="0"/>
      </contour>
    </TTGlyph>
    <TTGlyph name="Adieresis" xMin="-16" yMin="0" xMax="695" yMax="945">
      <contour>
        <pt x="492" y="46" on="0"/>
        <pt x="513" y="66" on="0"/>
        <pt x="513" y="100" on="0"/>
        <pt x="502" y="133" on="1"/>
        <pt x="454" y="273" on="1"/>
        <pt x="223" y="273" on="1"/>
        <pt x="199" y="200" on="1"/>
        <pt x="176" y="131" on="0"/>
        <pt x="176" y="61" on="0"/>
        <pt x="190" y="34" on="1"/>
        <pt x="199" y="16" on="1"/>
        <pt x="180" y="0" on="1"/>
        <pt x="-4" y="0" on="1"/>
        <pt x="-16" y="34" on="1"/>
        <pt x="7" y="40" on="1"/>
        <pt x="47" y="51" on="0"/>
        <pt x="83" y="87" on="0"/>
        <pt x="99" y="133" on="1"/>
        <pt x="256" y="585" on="1"/>
        <pt x="267" y="618" on="0"/>
        <pt x="267" y="652" on="0"/>
        <pt x="246" y="672" on="0"/>
        <pt x="222" y="678" on="1"/>
        <pt x="199" y="684" on="1"/>
        <pt x="211" y="718" on="1"/>
        <pt x="404" y="718" on="1"/>
        <pt x="605" y="138" on="1"/>
        <pt x="621" y="92" on="0"/>
        <pt x="659" y="44" on="0"/>
        <pt x="695" y="16" on="1"/>
        <pt x="682" y="0" on="1"/>
        <pt x="457" y="0" on="1"/>
        <pt x="445" y="34" on="1"/>
        <pt x="468" y="40" on="1"/>
      </contour>
      <contour>
        <pt x="337" y="615" on="1"/>
        <pt x="244" y="335" on="1"/>
        <pt x="433" y="335" on="1"/>
      </contour>
      <contour>
        <pt x="196" y="860" on="0"/>
        <pt x="196" y="898" on="0"/>
        <pt x="239" y="945" on="0"/>
        <pt x="276" y="945" on="0"/>
        <pt x="320" y="899" on="0"/>
        <pt x="320" y="860" on="0"/>
        <pt x="276" y="814" on="0"/>
        <pt x="240" y="814" on="0"/>
      </contour>
      <contour>
        <pt x="385" y="860" on="0"/>
        <pt x="385" y="898" on="0"/>
        <pt x="428" y="945" on="0"/>
        <pt x="465" y="945" on="0"/>
        <pt x="509" y="899" on="0"/>
        <pt x="509" y="860" on="0"/>
        <pt x="465" y="814" on="0"/>
        <pt x="429" y="814" on="0"/>
      </contour>
    </TTGlyph>
    <TTGlyph name="Agrave" xMin="-16" yMin="0" xMax="695" yMax="981">
      <contour>
        <pt x="492" y="46" on="0"/>
        <pt x="513" y="66" on="0"/>
        <pt x="513" y="100" on="0"/>
        <pt x="502" y="133" on="1"/>
        <pt x="454" y="273" on="1"/>
        <pt x="223" y="273" on="1"/>
        <pt x="199" y="200" on="1"/>
        <pt x="176" y="131" on="0"/>
        <pt x="176" y="61" on="0"/>
        <pt x="190" y="34" on="1"/>
        <pt x="199" y="16" on="1"/>
        <pt x="180" y="0" on="1"/>
        <pt x="-4" y="0" on="1"/>
        <pt x="-16" y="34" on="1"/>
        <pt x="7" y="40" on="1"/>
        <pt x="47" y="51" on="0"/>
        <pt x="83" y="87" on="0"/>
        <pt x="99" y="133" on="1"/>
        <pt x="256" y="585" on="1"/>
        <pt x="267" y="618" on="0"/>
        <pt x="267" y="652" on="0"/>
        <pt x="246" y="672" on="0"/>
        <pt x="222" y="678" on="1"/>
        <pt x="199" y="684" on="1"/>
        <pt x="211" y="718" on="1"/>
        <pt x="404" y="718" on="1"/>
        <pt x="605" y="138" on="1"/>
        <pt x="621" y="92" on="0"/>
        <pt x="659" y="44" on="0"/>
        <pt x="695" y="16" on="1"/>
        <pt x="682" y="0" on="1"/>
        <pt x="457" y="0" on="1"/>
        <pt x="445" y="34" on="1"/>
        <pt x="468" y="40" on="1"/>
      </contour>
      <contour>
        <pt x="337" y="615" on="1"/>
        <pt x="244" y="335" on="1"/>
        <pt x="433" y="335" on="1"/>
      </contour>
      <contour>
        <pt x="310" y="846" on="1"/>
        <pt x="254" y="873" on="0"/>
        <pt x="254" y="961" on="0"/>
        <pt x="296" y="981" on="1"/>
        <pt x="452" y="825" on="1"/>
        <pt x="423" y="790" on="1"/>
      </contour>
    </TTGlyph>
    <TTGlyph name="Aring" xMin="-16" yMin="0" xMax="695" yMax="986">
      <contour>
        <pt x="492" y="46" on="0"/>
        <pt x="513" y="66" on="0"/>
        <pt x="513" y="100" on="0"/>
        <pt x="502" y="133" on="1"/>
        <pt x="454" y="273" on="1"/>
        <pt x="223" y="273" on="1"/>
        <pt x="199" y="200" on="1"/>
        <pt x="176" y="131" on="0"/>
        <pt x="176" y="61" on="0"/>
        <pt x="190" y="34" on="1"/>
        <pt x="199" y="16" on="1"/>
        <pt x="180" y="0" on="1"/>
        <pt x="-4" y="0" on="1"/>
        <pt x="-16" y="34" on="1"/>
        <pt x="7" y="40" on="1"/>
        <pt x="47" y="51" on="0"/>
        <pt x="83" y="87" on="0"/>
        <pt x="99" y="133" on="1"/>
        <pt x="256" y="585" on="1"/>
        <pt x="267" y="618" on="0"/>
        <pt x="267" y="652" on="0"/>
        <pt x="246" y="672" on="0"/>
        <pt x="222" y="678" on="1"/>
        <pt x="199" y="684" on="1"/>
        <pt x="211" y="718" on="1"/>
        <pt x="404" y="718" on="1"/>
        <pt x="605" y="138" on="1"/>
        <pt x="621" y="92" on="0"/>
        <pt x="659" y="44" on="0"/>
        <pt x="695" y="16" on="1"/>
        <pt x="682" y="0" on="1"/>
        <pt x="457" y="0" on="1"/>
        <pt x="445" y="34" on="1"/>
        <pt x="468" y="40" on="1"/>
      </contour>
      <contour>
        <pt x="337" y="615" on="1"/>
        <pt x="244" y="335" on="1"/>
        <pt x="433" y="335" on="1"/>
      </contour>
      <contour>
        <pt x="309" y="904" on="0"/>
        <pt x="309" y="854" on="0"/>
        <pt x="331" y="821" on="0"/>
        <pt x="372" y="821" on="0"/>
        <pt x="395" y="854" on="0"/>
        <pt x="395" y="904" on="0"/>
        <pt x="372" y="937" on="0"/>
        <pt x="331" y="937" on="0"/>
      </contour>
      <contour>
        <pt x="239" y="832" on="0"/>
        <pt x="239" y="926" on="0"/>
        <pt x="297" y="986" on="0"/>
        <pt x="407" y="986" on="0"/>
        <pt x="466" y="926" on="0"/>
        <pt x="466" y="832" on="0"/>
        <pt x="407" y="773" on="0"/>
        <pt x="297" y="773" on="0"/>
      </contour>
    </TTGlyph>
    <TTGlyph name="Atilde" xMin="-16" yMin="0" xMax="695" yMax="944">
      <contour>
        <pt x="492" y="46" on="0"/>
        <pt x="513" y="66" on="0"/>
        <pt x="513" y="100" on="0"/>
        <pt x="502" y="133" on="1"/>
        <pt x="454" y="273" on="1"/>
        <pt x="223" y="273" on="1"/>
        <pt x="199" y="200" on="1"/>
        <pt x="176" y="131" on="0"/>
        <pt x="176" y="61" on="0"/>
        <pt x="190" y="34" on="1"/>
        <pt x="199" y="16" on="1"/>
        <pt x="180" y="0" on="1"/>
        <pt x="-4" y="0" on="1"/>
        <pt x="-16" y="34" on="1"/>
        <pt x="7" y="40" on="1"/>
        <pt x="47" y="51" on="0"/>
        <pt x="83" y="87" on="0"/>
        <pt x="99" y="133" on="1"/>
        <pt x="256" y="585" on="1"/>
        <pt x="267" y="618" on="0"/>
        <pt x="267" y="652" on="0"/>
        <pt x="246" y="672" on="0"/>
        <pt x="222" y="678" on="1"/>
        <pt x="199" y="684" on="1"/>
        <pt x="211" y="718" on="1"/>
        <pt x="404" y="718" on="1"/>
        <pt x="605" y="138" on="1"/>
        <pt x="621" y="92" on="0"/>
        <pt x="659" y="44" on="0"/>
        <pt x="695" y="16" on="1"/>
        <pt x="682" y="0" on="1"/>
        <pt x="457" y="0" on="1"/>
        <pt x="445" y="34" on="1"/>
        <pt x="468" y="40" on="1"/>
      </contour>
      <contour>
        <pt x="337" y="615" on="1"/>
        <pt x="244" y="335" on="1"/>
        <pt x="433" y="335" on="1"/>
      </contour>
      <contour>
        <pt x="386" y="816" on="1"/>
        <pt x="362" y="816" on="0"/>
        <pt x="305" y="851" on="0"/>
        <pt x="291" y="851" on="1"/>
        <pt x="263" y="851" on="0"/>
        <pt x="224" y="812" on="1"/>
        <pt x="189" y="843" on="1"/>
        <pt x="260" y="940" on="0"/>
        <pt x="318" y="940" on="1"/>
        <pt x="341" y="940" on="0"/>
        <pt x="397" y="905" on="0"/>
        <pt x="412" y="905" on="1"/>
        <pt x="440" y="905" on="0"/>
        <pt x="480" y="944" on="1"/>
        <pt x="514" y="913" on="1"/>
        <pt x="445" y="816" on="0"/>
      </contour>
    </TTGlyph>
    <TTGlyph name="B" xMin="40" yMin="0" xMax="596" yMax="732">
      <contour>
        <pt x="559" y="535" on="1"/>
        <pt x="559" y="479" on="0"/>
        <pt x="506" y="389" on="0"/>
        <pt x="454" y="364" on="1"/>
        <pt x="521" y="342" on="0"/>
        <pt x="596" y="252" on="0"/>
        <pt x="596" y="197" on="1"/>
        <pt x="596" y="106" on="0"/>
        <pt x="472" y="0" on="0"/>
        <pt x="336" y="0" on="1"/>
        <pt x="57" y="0" on="1"/>
        <pt x="45" y="34" on="1"/>
        <pt x="68" y="40" on="1"/>
        <pt x="106" y="51" on="0"/>
        <pt x="132" y="87" on="0"/>
        <pt x="132" y="133" on="1"/>
        <pt x="132" y="627" on="1"/>
        <pt x="132" y="651" on="0"/>
        <pt x="110" y="651" on="1"/>
        <pt x="52" y="651" on="1"/>
        <pt x="40" y="688" on="1"/>
        <pt x="83" y="705" on="0"/>
        <pt x="223" y="732" on="0"/>
        <pt x="288" y="732" on="1"/>
        <pt x="425" y="732" on="0"/>
        <pt x="559" y="622" on="0"/>
      </contour>
      <contour>
        <pt x="231" y="630" on="1"/>
        <pt x="231" y="183" on="1"/>
        <pt x="231" y="95" on="0"/>
        <pt x="272" y="70" on="1"/>
        <pt x="304" y="52" on="0"/>
        <pt x="342" y="52" on="1"/>
        <pt x="412" y="52" on="0"/>
        <pt x="492" y="135" on="0"/>
        <pt x="492" y="260" on="0"/>
        <pt x="405" y="341" on="0"/>
        <pt x="333" y="341" on="1"/>
        <pt x="294" y="341" on="0"/>
        <pt x="253" y="361" on="0"/>
        <pt x="253" y="394" on="0"/>
        <pt x="267" y="394" on="1"/>
        <pt x="268" y="394" on="0"/>
        <pt x="299" y="387" on="0"/>
        <pt x="317" y="387" on="1"/>
        <pt x="385" y="387" on="0"/>
        <pt x="460" y="467" on="0"/>
        <pt x="460" y="596" on="0"/>
        <pt x="375" y="676" on="0"/>
        <pt x="231" y="676" on="0"/>
      </contour>
    </TTGlyph>
    <TTGlyph name="C" xMin="35" yMin="-14" xMax="591" yMax="732">
      <contour>
        <pt x="358" y="732" on="1"/>
        <pt x="457" y="732" on="0"/>
        <pt x="583" y="650" on="0"/>
        <pt x="583" y="585" on="1"/>
        <pt x="583" y="534" on="0"/>
        <pt x="522" y="468" on="0"/>
        <pt x="476" y="468" on="1"/>
        <pt x="455" y="468" on="0"/>
        <pt x="455" y="480" on="1"/>
        <pt x="455" y="483" on="0"/>
        <pt x="462" y="494" on="1"/>
        <pt x="485" y="529" on="0"/>
        <pt x="485" y="618" on="0"/>
        <pt x="415" y="676" on="0"/>
        <pt x="302" y="676" on="0"/>
        <pt x="217" y="620" on="0"/>
        <pt x="194" y="572" on="1"/>
        <pt x="148" y="481" on="0"/>
        <pt x="148" y="230" on="0"/>
        <pt x="266" y="55" on="0"/>
        <pt x="364" y="55" on="1"/>
        <pt x="490" y="55" on="0"/>
        <pt x="552" y="145" on="1"/>
        <pt x="555" y="149" on="0"/>
        <pt x="568" y="149" on="0"/>
        <pt x="591" y="130" on="0"/>
        <pt x="591" y="118" on="0"/>
        <pt x="588" y="113" on="1"/>
        <pt x="502" y="-14" on="0"/>
        <pt x="200" y="-14" on="0"/>
        <pt x="35" y="196" on="0"/>
        <pt x="35" y="521" on="0"/>
        <pt x="201" y="732" on="0"/>
      </contour>
    </TTGlyph>
    <TTGlyph name="Ccedilla" xMin="35" yMin="-295" xMax="591" yMax="732">
      <contour>
        <pt x="355" y="-14" on="1"/>
        <pt x="326" y="-13" on="1"/>
        <pt x="282" y="-70" on="1"/>
        <pt x="299" y="-66" on="0"/>
        <pt x="320" y="-66" on="1"/>
        <pt x="368" y="-66" on="0"/>
        <pt x="433" y="-124" on="0"/>
        <pt x="433" y="-227" on="0"/>
        <pt x="355" y="-295" on="0"/>
        <pt x="253" y="-295" on="0"/>
        <pt x="188" y="-254" on="0"/>
        <pt x="188" y="-192" on="0"/>
        <pt x="225" y="-160" on="0"/>
        <pt x="269" y="-160" on="0"/>
        <pt x="269" y="-170" on="1"/>
        <pt x="269" y="-172" on="0"/>
        <pt x="255" y="-196" on="0"/>
        <pt x="255" y="-231" on="0"/>
        <pt x="279" y="-253" on="0"/>
        <pt x="325" y="-253" on="0"/>
        <pt x="359" y="-208" on="0"/>
        <pt x="359" y="-147" on="0"/>
        <pt x="324" y="-103" on="0"/>
        <pt x="265" y="-103" on="0"/>
        <pt x="237" y="-120" on="1"/>
        <pt x="217" y="-102" on="1"/>
        <pt x="289" y="-8" on="1"/>
        <pt x="165" y="14" on="0"/>
        <pt x="35" y="214" on="0"/>
        <pt x="35" y="521" on="0"/>
        <pt x="201" y="732" on="0"/>
        <pt x="358" y="732" on="1"/>
        <pt x="457" y="732" on="0"/>
        <pt x="583" y="650" on="0"/>
        <pt x="583" y="585" on="1"/>
        <pt x="583" y="534" on="0"/>
        <pt x="522" y="468" on="0"/>
        <pt x="476" y="468" on="1"/>
        <pt x="455" y="468" on="0"/>
        <pt x="455" y="480" on="1"/>
        <pt x="455" y="483" on="0"/>
        <pt x="462" y="494" on="1"/>
        <pt x="485" y="529" on="0"/>
        <pt x="485" y="618" on="0"/>
        <pt x="415" y="676" on="0"/>
        <pt x="302" y="676" on="0"/>
        <pt x="217" y="620" on="0"/>
        <pt x="194" y="572" on="1"/>
        <pt x="148" y="481" on="0"/>
        <pt x="148" y="230" on="0"/>
        <pt x="266" y="55" on="0"/>
        <pt x="364" y="55" on="1"/>
        <pt x="490" y="55" on="0"/>
        <pt x="552" y="145" on="1"/>
        <pt x="555" y="149" on="0"/>
        <pt x="568" y="149" on="0"/>
        <pt x="591" y="130" on="0"/>
        <pt x="591" y="118" on="0"/>
        <pt x="588" y="113" on="1"/>
        <pt x="502" y="-14" on="0"/>
      </contour>
    </TTGlyph>
    <TTGlyph name="D" xMin="35" yMin="0" xMax="698" yMax="732">
      <contour>
        <pt x="366" y="0" on="1"/>
        <pt x="52" y="0" on="1"/>
        <pt x="40" y="34" on="1"/>
        <pt x="63" y="40" on="1"/>
        <pt x="95" y="49" on="0"/>
        <pt x="127" y="84" on="0"/>
        <pt x="127" y="122" on="1"/>
        <pt x="127" y="627" on="1"/>
        <pt x="127" y="651" on="0"/>
        <pt x="105" y="651" on="1"/>
        <pt x="47" y="651" on="1"/>
        <pt x="35" y="688" on="1"/>
        <pt x="83" y="705" on="0"/>
        <pt x="235" y="732" on="0"/>
        <pt x="393" y="732" on="0"/>
        <pt x="529" y="692" on="0"/>
        <pt x="617" y="624" on="0"/>
        <pt x="646" y="576" on="1"/>
        <pt x="698" y="486" on="0"/>
        <pt x="698" y="358" on="1"/>
        <pt x="698" y="201" on="0"/>
        <pt x="527" y="0" on="0"/>
      </contour>
      <contour>
        <pt x="226" y="630" on="1"/>
        <pt x="226" y="175" on="1"/>
        <pt x="226" y="104" on="0"/>
        <pt x="285" y="51" on="0"/>
        <pt x="334" y="51" on="1"/>
        <pt x="589" y="51" on="0"/>
        <pt x="589" y="360" on="1"/>
        <pt x="589" y="487" on="0"/>
        <pt x="526" y="578" on="1"/>
        <pt x="495" y="623" on="0"/>
        <pt x="391" y="676" on="0"/>
        <pt x="324" y="676" on="1"/>
        <pt x="226" y="676" on="0"/>
      </contour>
    </TTGlyph>
    <TTGlyph name="Delta" xMin="50" yMin="0" xMax="648" yMax="718">
      <contour>
        <pt x="50" y="0" on="1"/>
        <pt x="297" y="718" on="1"/>
        <pt x="399" y="718" on="1"/>
        <pt x="648" y="0" on="1"/>
      </contour>
      <contour>
        <pt x="332" y="614" on="1"/>
        <pt x="148" y="62" on="1"/>
        <pt x="522" y="62" on="1"/>
      </contour>
    </TTGlyph>
    <TTGlyph name="E" xMin="45" yMin="-25" xMax="547" yMax="752">
      <contour>
        <pt x="311" y="336" on="1"/>
        <pt x="226" y="336" on="1"/>
        <pt x="226" y="133" on="1"/>
        <pt x="226" y="87" on="0"/>
        <pt x="251" y="57" on="0"/>
        <pt x="290" y="57" on="1"/>
        <pt x="398" y="57" on="1"/>
        <pt x="451" y="57" on="0"/>
        <pt x="493" y="92" on="0"/>
        <pt x="507" y="146" on="1"/>
        <pt x="513" y="169" on="1"/>
        <pt x="547" y="157" on="1"/>
        <pt x="547" y="-14" on="1"/>
        <pt x="527" y="-25" on="1"/>
        <pt x="519" y="-14" on="1"/>
        <pt x="508" y="0" on="0"/>
        <pt x="477" y="0" on="1"/>
        <pt x="56" y="0" on="1"/>
        <pt x="45" y="32" on="1"/>
        <pt x="66" y="38" on="1"/>
        <pt x="103" y="49" on="0"/>
        <pt x="127" y="83" on="0"/>
        <pt x="127" y="126" on="1"/>
        <pt x="127" y="517" on="1"/>
        <pt x="127" y="577" on="0"/>
        <pt x="107" y="651" on="0"/>
        <pt x="82" y="684" on="1"/>
        <pt x="69" y="702" on="1"/>
        <pt x="82" y="718" on="1"/>
        <pt x="388" y="718" on="1"/>
        <pt x="474" y="718" on="0"/>
        <pt x="502" y="739" on="1"/>
        <pt x="520" y="752" on="1"/>
        <pt x="536" y="739" on="1"/>
        <pt x="536" y="561" on="1"/>
        <pt x="502" y="549" on="1"/>
        <pt x="496" y="572" on="1"/>
        <pt x="482" y="626" on="0"/>
        <pt x="440" y="661" on="0"/>
        <pt x="387" y="661" on="1"/>
        <pt x="290" y="661" on="1"/>
        <pt x="251" y="661" on="0"/>
        <pt x="226" y="631" on="0"/>
        <pt x="226" y="585" on="1"/>
        <pt x="226" y="393" on="1"/>
        <pt x="353" y="393" on="1"/>
        <pt x="399" y="393" on="0"/>
        <pt x="432" y="439" on="1"/>
        <pt x="440" y="450" on="1"/>
        <pt x="460" y="439" on="1"/>
        <pt x="460" y="268" on="1"/>
        <pt x="426" y="256" on="1"/>
        <pt x="420" y="279" on="1"/>
        <pt x="411" y="313" on="0"/>
        <pt x="366" y="336" on="0"/>
      </contour>
    </TTGlyph>
    <TTGlyph name="Eacute" xMin="45" yMin="-25" xMax="547" yMax="981">
      <contour>
        <pt x="311" y="336" on="1"/>
        <pt x="226" y="336" on="1"/>
        <pt x="226" y="133" on="1"/>
        <pt x="226" y="87" on="0"/>
        <pt x="251" y="57" on="0"/>
        <pt x="290" y="57" on="1"/>
        <pt x="398" y="57" on="1"/>
        <pt x="451" y="57" on="0"/>
        <pt x="493" y="92" on="0"/>
        <pt x="507" y="146" on="1"/>
        <pt x="513" y="169" on="1"/>
        <pt x="547" y="157" on="1"/>
        <pt x="547" y="-14" on="1"/>
        <pt x="527" y="-25" on="1"/>
        <pt x="519" y="-14" on="1"/>
        <pt x="508" y="0" on="0"/>
        <pt x="477" y="0" on="1"/>
        <pt x="56" y="0" on="1"/>
        <pt x="45" y="32" on="1"/>
        <pt x="66" y="38" on="1"/>
        <pt x="103" y="49" on="0"/>
        <pt x="127" y="83" on="0"/>
        <pt x="127" y="126" on="1"/>
        <pt x="127" y="517" on="1"/>
        <pt x="127" y="577" on="0"/>
        <pt x="107" y="651" on="0"/>
        <pt x="82" y="684" on="1"/>
        <pt x="69" y="702" on="1"/>
        <pt x="82" y="718" on="1"/>
        <pt x="388" y="718" on="1"/>
        <pt x="474" y="718" on="0"/>
        <pt x="502" y="739" on="1"/>
        <pt x="520" y="752" on="1"/>
        <pt x="536" y="739" on="1"/>
        <pt x="536" y="561" on="1"/>
        <pt x="502" y="549" on="1"/>
        <pt x="496" y="572" on="1"/>
        <pt x="482" y="626" on="0"/>
        <pt x="440" y="661" on="0"/>
        <pt x="387" y="661" on="1"/>
        <pt x="290" y="661" on="1"/>
        <pt x="251" y="661" on="0"/>
        <pt x="226" y="631" on="0"/>
        <pt x="226" y="585" on="1"/>
        <pt x="226" y="393" on="1"/>
        <pt x="353" y="393" on="1"/>
        <pt x="399" y="393" on="0"/>
        <pt x="432" y="439" on="1"/>
        <pt x="440" y="450" on="1"/>
        <pt x="460" y="439" on="1"/>
        <pt x="460" y="268" on="1"/>
        <pt x="426" y="256" on="1"/>
        <pt x="420" y="279" on="1"/>
        <pt x="411" y="313" on="0"/>
        <pt x="366" y="336" on="0"/>
      </contour>
      <contour>
        <pt x="396" y="981" on="1"/>
        <pt x="438" y="961" on="0"/>
        <pt x="438" y="873" on="0"/>
        <pt x="382" y="846" on="1"/>
        <pt x="269" y="790" on="1"/>
        <pt x="240" y="825" on="1"/>
      </contour>
    </TTGlyph>
    <TTGlyph name="Ecircumflex" xMin="45" yMin="-25" xMax="547" yMax="976">
      <contour>
        <pt x="311" y="336" on="1"/>
        <pt x="226" y="336" on="1"/>
        <pt x="226" y="133" on="1"/>
        <pt x="226" y="87" on="0"/>
        <pt x="251" y="57" on="0"/>
        <pt x="290" y="57" on="1"/>
        <pt x="398" y="57" on="1"/>
        <pt x="451" y="57" on="0"/>
        <pt x="493" y="92" on="0"/>
        <pt x="507" y="146" on="1"/>
        <pt x="513" y="169" on="1"/>
        <pt x="547" y="157" on="1"/>
        <pt x="547" y="-14" on="1"/>
        <pt x="527" y="-25" on="1"/>
        <pt x="519" y="-14" on="1"/>
        <pt x="508" y="0" on="0"/>
        <pt x="477" y="0" on="1"/>
        <pt x="56" y="0" on="1"/>
        <pt x="45" y="32" on="1"/>
        <pt x="66" y="38" on="1"/>
        <pt x="103" y="49" on="0"/>
        <pt x="127" y="83" on="0"/>
        <pt x="127" y="126" on="1"/>
        <pt x="127" y="517" on="1"/>
        <pt x="127" y="577" on="0"/>
        <pt x="107" y="651" on="0"/>
        <pt x="82" y="684" on="1"/>
        <pt x="69" y="702" on="1"/>
        <pt x="82" y="718" on="1"/>
        <pt x="388" y="718" on="1"/>
        <pt x="474" y="718" on="0"/>
        <pt x="502" y="739" on="1"/>
        <pt x="520" y="752" on="1"/>
        <pt x="536" y="739" on="1"/>
        <pt x="536" y="561" on="1"/>
        <pt x="502" y="549" on="1"/>
        <pt x="496" y="572" on="1"/>
        <pt x="482" y="626" on="0"/>
        <pt x="440" y="661" on="0"/>
        <pt x="387" y="661" on="1"/>
        <pt x="290" y="661" on="1"/>
        <pt x="251" y="661" on="0"/>
        <pt x="226" y="631" on="0"/>
        <pt x="226" y="585" on="1"/>
        <pt x="226" y="393" on="1"/>
        <pt x="353" y="393" on="1"/>
        <pt x="399" y="393" on="0"/>
        <pt x="432" y="439" on="1"/>
        <pt x="440" y="450" on="1"/>
        <pt x="460" y="439" on="1"/>
        <pt x="460" y="268" on="1"/>
        <pt x="426" y="256" on="1"/>
        <pt x="420" y="279" on="1"/>
        <pt x="411" y="313" on="0"/>
        <pt x="366" y="336" on="0"/>
      </contour>
      <contour>
        <pt x="306" y="976" on="1"/>
        <pt x="333" y="976" on="1"/>
        <pt x="351" y="965" on="0"/>
        <pt x="425" y="873" on="0"/>
        <pt x="456" y="818" on="1"/>
        <pt x="424" y="790" on="1"/>
        <pt x="319" y="873" on="1"/>
        <pt x="215" y="790" on="1"/>
        <pt x="182" y="818" on="1"/>
        <pt x="214" y="874" on="0"/>
        <pt x="286" y="964" on="0"/>
      </contour>
    </TTGlyph>
    <TTGlyph name="Edieresis" xMin="45" yMin="-25" xMax="547" yMax="945">
      <contour>
        <pt x="311" y="336" on="1"/>
        <pt x="226" y="336" on="1"/>
        <pt x="226" y="133" on="1"/>
        <pt x="226" y="87" on="0"/>
        <pt x="251" y="57" on="0"/>
        <pt x="290" y="57" on="1"/>
        <pt x="398" y="57" on="1"/>
        <pt x="451" y="57" on="0"/>
        <pt x="493" y="92" on="0"/>
        <pt x="507" y="146" on="1"/>
        <pt x="513" y="169" on="1"/>
        <pt x="547" y="157" on="1"/>
        <pt x="547" y="-14" on="1"/>
        <pt x="527" y="-25" on="1"/>
        <pt x="519" y="-14" on="1"/>
        <pt x="508" y="0" on="0"/>
        <pt x="477" y="0" on="1"/>
        <pt x="56" y="0" on="1"/>
        <pt x="45" y="32" on="1"/>
        <pt x="66" y="38" on="1"/>
        <pt x="103" y="49" on="0"/>
        <pt x="127" y="83" on="0"/>
        <pt x="127" y="126" on="1"/>
        <pt x="127" y="517" on="1"/>
        <pt x="127" y="577" on="0"/>
        <pt x="107" y="651" on="0"/>
        <pt x="82" y="684" on="1"/>
        <pt x="69" y="702" on="1"/>
        <pt x="82" y="718" on="1"/>
        <pt x="388" y="718" on="1"/>
        <pt x="474" y="718" on="0"/>
        <pt x="502" y="739" on="1"/>
        <pt x="520" y="752" on="1"/>
        <pt x="536" y="739" on="1"/>
        <pt x="536" y="561" on="1"/>
        <pt x="502" y="549" on="1"/>
        <pt x="496" y="572" on="1"/>
        <pt x="482" y="626" on="0"/>
        <pt x="440" y="661" on="0"/>
        <pt x="387" y="661" on="1"/>
        <pt x="290" y="661" on="1"/>
        <pt x="251" y="661" on="0"/>
        <pt x="226" y="631" on="0"/>
        <pt x="226" y="585" on="1"/>
        <pt x="226" y="393" on="1"/>
        <pt x="353" y="393" on="1"/>
        <pt x="399" y="393" on="0"/>
        <pt x="432" y="439" on="1"/>
        <pt x="440" y="450" on="1"/>
        <pt x="460" y="439" on="1"/>
        <pt x="460" y="268" on="1"/>
        <pt x="426" y="256" on="1"/>
        <pt x="420" y="279" on="1"/>
        <pt x="411" y="313" on="0"/>
        <pt x="366" y="336" on="0"/>
      </contour>
      <contour>
        <pt x="162" y="860" on="0"/>
        <pt x="162" y="898" on="0"/>
        <pt x="205" y="945" on="0"/>
        <pt x="242" y="945" on="0"/>
        <pt x="286" y="899" on="0"/>
        <pt x="286" y="860" on="0"/>
        <pt x="242" y="814" on="0"/>
        <pt x="206" y="814" on="0"/>
      </contour>
      <contour>
        <pt x="351" y="860" on="0"/>
        <pt x="351" y="898" on="0"/>
        <pt x="394" y="945" on="0"/>
        <pt x="431" y="945" on="0"/>
        <pt x="475" y="899" on="0"/>
        <pt x="475" y="860" on="0"/>
        <pt x="431" y="814" on="0"/>
        <pt x="395" y="814" on="0"/>
      </contour>
    </TTGlyph>
    <TTGlyph name="Egrave" xMin="45" yMin="-25" xMax="547" yMax="981">
      <contour>
        <pt x="311" y="336" on="1"/>
        <pt x="226" y="336" on="1"/>
        <pt x="226" y="133" on="1"/>
        <pt x="226" y="87" on="0"/>
        <pt x="251" y="57" on="0"/>
        <pt x="290" y="57" on="1"/>
        <pt x="398" y="57" on="1"/>
        <pt x="451" y="57" on="0"/>
        <pt x="493" y="92" on="0"/>
        <pt x="507" y="146" on="1"/>
        <pt x="513" y="169" on="1"/>
        <pt x="547" y="157" on="1"/>
        <pt x="547" y="-14" on="1"/>
        <pt x="527" y="-25" on="1"/>
        <pt x="519" y="-14" on="1"/>
        <pt x="508" y="0" on="0"/>
        <pt x="477" y="0" on="1"/>
        <pt x="56" y="0" on="1"/>
        <pt x="45" y="32" on="1"/>
        <pt x="66" y="38" on="1"/>
        <pt x="103" y="49" on="0"/>
        <pt x="127" y="83" on="0"/>
        <pt x="127" y="126" on="1"/>
        <pt x="127" y="517" on="1"/>
        <pt x="127" y="577" on="0"/>
        <pt x="107" y="651" on="0"/>
        <pt x="82" y="684" on="1"/>
        <pt x="69" y="702" on="1"/>
        <pt x="82" y="718" on="1"/>
        <pt x="388" y="718" on="1"/>
        <pt x="474" y="718" on="0"/>
        <pt x="502" y="739" on="1"/>
        <pt x="520" y="752" on="1"/>
        <pt x="536" y="739" on="1"/>
        <pt x="536" y="561" on="1"/>
        <pt x="502" y="549" on="1"/>
        <pt x="496" y="572" on="1"/>
        <pt x="482" y="626" on="0"/>
        <pt x="440" y="661" on="0"/>
        <pt x="387" y="661" on="1"/>
        <pt x="290" y="661" on="1"/>
        <pt x="251" y="661" on="0"/>
        <pt x="226" y="631" on="0"/>
        <pt x="226" y="585" on="1"/>
        <pt x="226" y="393" on="1"/>
        <pt x="353" y="393" on="1"/>
        <pt x="399" y="393" on="0"/>
        <pt x="432" y="439" on="1"/>
        <pt x="440" y="450" on="1"/>
        <pt x="460" y="439" on="1"/>
        <pt x="460" y="268" on="1"/>
        <pt x="426" y="256" on="1"/>
        <pt x="420" y="279" on="1"/>
        <pt x="411" y="313" on="0"/>
        <pt x="366" y="336" on="0"/>
      </contour>
      <contour>
        <pt x="266" y="846" on="1"/>
        <pt x="210" y="873" on="0"/>
        <pt x="210" y="961" on="0"/>
        <pt x="252" y="981" on="1"/>
        <pt x="408" y="825" on="1"/>
        <pt x="379" y="790" on="1"/>
      </contour>
    </TTGlyph>
    <TTGlyph name="Eth" xMin="10" yMin="0" xMax="698" yMax="732">
      <contour>
        <pt x="366" y="0" on="1"/>
        <pt x="52" y="0" on="1"/>
        <pt x="40" y="34" on="1"/>
        <pt x="63" y="40" on="1"/>
        <pt x="95" y="49" on="0"/>
        <pt x="127" y="84" on="0"/>
        <pt x="127" y="122" on="1"/>
        <pt x="127" y="332" on="1"/>
        <pt x="10" y="332" on="1"/>
        <pt x="10" y="378" on="0"/>
        <pt x="33" y="395" on="1"/>
        <pt x="127" y="395" on="1"/>
        <pt x="127" y="627" on="1"/>
        <pt x="127" y="651" on="0"/>
        <pt x="105" y="651" on="1"/>
        <pt x="47" y="651" on="1"/>
        <pt x="35" y="688" on="1"/>
        <pt x="83" y="705" on="0"/>
        <pt x="235" y="732" on="0"/>
        <pt x="393" y="732" on="0"/>
        <pt x="529" y="692" on="0"/>
        <pt x="617" y="624" on="0"/>
        <pt x="646" y="576" on="1"/>
        <pt x="698" y="486" on="0"/>
        <pt x="698" y="358" on="1"/>
        <pt x="698" y="201" on="0"/>
        <pt x="527" y="0" on="0"/>
      </contour>
      <contour>
        <pt x="226" y="630" on="1"/>
        <pt x="226" y="395" on="1"/>
        <pt x="421" y="395" on="1"/>
        <pt x="421" y="350" on="0"/>
        <pt x="398" y="332" on="1"/>
        <pt x="226" y="332" on="1"/>
        <pt x="226" y="175" on="1"/>
        <pt x="226" y="104" on="0"/>
        <pt x="285" y="51" on="0"/>
        <pt x="334" y="51" on="1"/>
        <pt x="589" y="51" on="0"/>
        <pt x="589" y="360" on="1"/>
        <pt x="589" y="487" on="0"/>
        <pt x="526" y="578" on="1"/>
        <pt x="495" y="623" on="0"/>
        <pt x="391" y="676" on="0"/>
        <pt x="324" y="676" on="1"/>
        <pt x="226" y="676" on="0"/>
      </contour>
    </TTGlyph>
    <TTGlyph name="Euro" xMin="-7" yMin="-14" xMax="575" yMax="732">
      <contour>
        <pt x="185" y="395" on="1"/>
        <pt x="184" y="382" on="0"/>
        <pt x="184" y="316" on="0"/>
        <pt x="186" y="296" on="1"/>
        <pt x="384" y="296" on="1"/>
        <pt x="384" y="252" on="0"/>
        <pt x="360" y="233" on="1"/>
        <pt x="193" y="233" on="1"/>
        <pt x="224" y="42" on="0"/>
        <pt x="357" y="42" on="1"/>
        <pt x="405" y="42" on="0"/>
        <pt x="477" y="100" on="0"/>
        <pt x="477" y="150" on="1"/>
        <pt x="477" y="177" on="0"/>
        <pt x="466" y="202" on="1"/>
        <pt x="454" y="226" on="1"/>
        <pt x="454" y="236" on="0"/>
        <pt x="461" y="240" on="0"/>
        <pt x="475" y="240" on="1"/>
        <pt x="519" y="240" on="0"/>
        <pt x="575" y="186" on="0"/>
        <pt x="575" y="142" on="1"/>
        <pt x="575" y="69" on="0"/>
        <pt x="445" y="-14" on="0"/>
        <pt x="360" y="-14" on="1"/>
        <pt x="246" y="-14" on="0"/>
        <pt x="109" y="119" on="0"/>
        <pt x="86" y="233" on="1"/>
        <pt x="-7" y="233" on="1"/>
        <pt x="-7" y="279" on="0"/>
        <pt x="16" y="296" on="1"/>
        <pt x="78" y="296" on="1"/>
        <pt x="76" y="313" on="0"/>
        <pt x="76" y="380" on="0"/>
        <pt x="77" y="395" on="1"/>
        <pt x="-7" y="395" on="1"/>
        <pt x="-7" y="441" on="0"/>
        <pt x="16" y="458" on="1"/>
        <pt x="85" y="458" on="1"/>
        <pt x="109" y="582" on="0"/>
        <pt x="257" y="732" on="0"/>
        <pt x="374" y="732" on="1"/>
        <pt x="464" y="732" on="0"/>
        <pt x="562" y="651" on="0"/>
        <pt x="562" y="552" on="0"/>
        <pt x="502" y="489" on="0"/>
        <pt x="450" y="489" on="1"/>
        <pt x="434" y="489" on="0"/>
        <pt x="434" y="499" on="1"/>
        <pt x="434" y="503" on="0"/>
        <pt x="449" y="519" on="1"/>
        <pt x="477" y="549" on="0"/>
        <pt x="477" y="629" on="0"/>
        <pt x="421" y="676" on="0"/>
        <pt x="374" y="676" on="1"/>
        <pt x="296" y="676" on="0"/>
        <pt x="207" y="554" on="0"/>
        <pt x="191" y="458" on="1"/>
        <pt x="384" y="458" on="1"/>
        <pt x="384" y="414" on="0"/>
        <pt x="360" y="395" on="1"/>
      </contour>
    </TTGlyph>
    <TTGlyph name="F" xMin="45" yMin="0" xMax="502" yMax="752">
      <contour>
        <pt x="353" y="661" on="1"/>
        <pt x="266" y="661" on="1"/>
        <pt x="227" y="661" on="0"/>
        <pt x="202" y="631" on="0"/>
        <pt x="202" y="585" on="1"/>
        <pt x="202" y="383" on="1"/>
        <pt x="319" y="383" on="1"/>
        <pt x="365" y="383" on="0"/>
        <pt x="398" y="429" on="1"/>
        <pt x="406" y="440" on="1"/>
        <pt x="426" y="429" on="1"/>
        <pt x="426" y="258" on="1"/>
        <pt x="392" y="246" on="1"/>
        <pt x="386" y="269" on="1"/>
        <pt x="377" y="303" on="0"/>
        <pt x="332" y="326" on="0"/>
        <pt x="277" y="326" on="1"/>
        <pt x="202" y="326" on="1"/>
        <pt x="202" y="133" on="1"/>
        <pt x="202" y="87" on="0"/>
        <pt x="228" y="51" on="0"/>
        <pt x="266" y="40" on="1"/>
        <pt x="289" y="34" on="1"/>
        <pt x="277" y="0" on="1"/>
        <pt x="58" y="0" on="1"/>
        <pt x="45" y="16" on="1"/>
        <pt x="58" y="34" on="1"/>
        <pt x="83" y="67" on="0"/>
        <pt x="103" y="141" on="0"/>
        <pt x="103" y="201" on="1"/>
        <pt x="103" y="517" on="1"/>
        <pt x="103" y="577" on="0"/>
        <pt x="83" y="651" on="0"/>
        <pt x="58" y="684" on="1"/>
        <pt x="45" y="702" on="1"/>
        <pt x="58" y="718" on="1"/>
        <pt x="354" y="718" on="1"/>
        <pt x="440" y="718" on="0"/>
        <pt x="468" y="739" on="1"/>
        <pt x="486" y="752" on="1"/>
        <pt x="502" y="739" on="1"/>
        <pt x="502" y="561" on="1"/>
        <pt x="468" y="549" on="1"/>
        <pt x="462" y="572" on="1"/>
        <pt x="448" y="626" on="0"/>
        <pt x="406" y="661" on="0"/>
      </contour>
    </TTGlyph>
    <TTGlyph name="G" xMin="35" yMin="-278" xMax="669" yMax="732">
      <contour>
        <pt x="521" y="-12" on="1"/>
        <pt x="521" y="82" on="1"/>
        <pt x="443" y="17" on="0"/>
        <pt x="345" y="17" on="1"/>
        <pt x="195" y="17" on="0"/>
        <pt x="35" y="219" on="0"/>
        <pt x="35" y="376" on="1"/>
        <pt x="35" y="585" on="0"/>
        <pt x="182" y="682" on="1"/>
        <pt x="258" y="732" on="0"/>
        <pt x="472" y="732" on="0"/>
        <pt x="607" y="645" on="0"/>
        <pt x="607" y="575" on="1"/>
        <pt x="607" y="524" on="0"/>
        <pt x="546" y="458" on="0"/>
        <pt x="500" y="458" on="1"/>
        <pt x="485" y="458" on="0"/>
        <pt x="479" y="462" on="0"/>
        <pt x="479" y="473" on="0"/>
        <pt x="486" y="484" on="1"/>
        <pt x="509" y="519" on="0"/>
        <pt x="509" y="612" on="0"/>
        <pt x="430" y="676" on="0"/>
        <pt x="318" y="676" on="0"/>
        <pt x="239" y="639" on="0"/>
        <pt x="190" y="579" on="0"/>
        <pt x="174" y="540" on="1"/>
        <pt x="143" y="466" on="0"/>
        <pt x="143" y="381" on="1"/>
        <pt x="143" y="253" on="0"/>
        <pt x="258" y="81" on="0"/>
        <pt x="453" y="81" on="0"/>
        <pt x="521" y="149" on="1"/>
        <pt x="521" y="200" on="1"/>
        <pt x="521" y="246" on="0"/>
        <pt x="495" y="282" on="0"/>
        <pt x="457" y="293" on="1"/>
        <pt x="434" y="299" on="1"/>
        <pt x="446" y="333" on="1"/>
        <pt x="656" y="333" on="1"/>
        <pt x="669" y="317" on="1"/>
        <pt x="656" y="299" on="1"/>
        <pt x="631" y="266" on="0"/>
        <pt x="611" y="192" on="0"/>
        <pt x="611" y="132" on="1"/>
        <pt x="611" y="16" on="1"/>
        <pt x="611" y="-278" on="0"/>
        <pt x="373" y="-278" on="1"/>
        <pt x="286" y="-278" on="0"/>
        <pt x="191" y="-193" on="0"/>
        <pt x="191" y="-85" on="0"/>
        <pt x="259" y="-14" on="0"/>
        <pt x="318" y="-14" on="1"/>
        <pt x="337" y="-14" on="0"/>
        <pt x="337" y="-25" on="1"/>
        <pt x="337" y="-29" on="0"/>
        <pt x="312" y="-53" on="0"/>
        <pt x="288" y="-101" on="0"/>
        <pt x="288" y="-173" on="0"/>
        <pt x="343" y="-226" on="0"/>
        <pt x="390" y="-226" on="1"/>
        <pt x="455" y="-226" on="0"/>
        <pt x="521" y="-126" on="0"/>
      </contour>
    </TTGlyph>
    <TTGlyph name="H" xMin="40" yMin="0" xMax="734" yMax="718">
      <contour>
        <pt x="553" y="133" on="1"/>
        <pt x="553" y="334" on="1"/>
        <pt x="226" y="334" on="1"/>
        <pt x="226" y="126" on="1"/>
        <pt x="226" y="83" on="0"/>
        <pt x="250" y="49" on="0"/>
        <pt x="287" y="38" on="1"/>
        <pt x="308" y="32" on="1"/>
        <pt x="297" y="0" on="1"/>
        <pt x="52" y="0" on="1"/>
        <pt x="40" y="34" on="1"/>
        <pt x="63" y="40" on="1"/>
        <pt x="101" y="51" on="0"/>
        <pt x="127" y="87" on="0"/>
        <pt x="127" y="133" on="1"/>
        <pt x="127" y="585" on="1"/>
        <pt x="127" y="631" on="0"/>
        <pt x="101" y="667" on="0"/>
        <pt x="63" y="678" on="1"/>
        <pt x="40" y="684" on="1"/>
        <pt x="52" y="718" on="1"/>
        <pt x="271" y="718" on="1"/>
        <pt x="284" y="702" on="1"/>
        <pt x="271" y="684" on="1"/>
        <pt x="246" y="651" on="0"/>
        <pt x="226" y="577" on="0"/>
        <pt x="226" y="517" on="1"/>
        <pt x="226" y="395" on="1"/>
        <pt x="553" y="395" on="1"/>
        <pt x="553" y="585" on="1"/>
        <pt x="553" y="631" on="0"/>
        <pt x="527" y="667" on="0"/>
        <pt x="489" y="678" on="1"/>
        <pt x="466" y="684" on="1"/>
        <pt x="478" y="718" on="1"/>
        <pt x="697" y="718" on="1"/>
        <pt x="710" y="702" on="1"/>
        <pt x="697" y="684" on="1"/>
        <pt x="672" y="651" on="0"/>
        <pt x="652" y="577" on="0"/>
        <pt x="652" y="517" on="1"/>
        <pt x="652" y="126" on="1"/>
        <pt x="652" y="83" on="0"/>
        <pt x="676" y="49" on="0"/>
        <pt x="713" y="38" on="1"/>
        <pt x="734" y="32" on="1"/>
        <pt x="723" y="0" on="1"/>
        <pt x="478" y="0" on="1"/>
        <pt x="466" y="34" on="1"/>
        <pt x="489" y="40" on="1"/>
        <pt x="527" y="51" on="0"/>
        <pt x="553" y="87" on="0"/>
      </contour>
    </TTGlyph>
    <TTGlyph name="I" xMin="40" yMin="0" xMax="308" yMax="718">
      <contour>
        <pt x="127" y="133" on="1"/>
        <pt x="127" y="585" on="1"/>
        <pt x="127" y="631" on="0"/>
        <pt x="101" y="667" on="0"/>
        <pt x="63" y="678" on="1"/>
        <pt x="40" y="684" on="1"/>
        <pt x="52" y="718" on="1"/>
        <pt x="271" y="718" on="1"/>
        <pt x="284" y="702" on="1"/>
        <pt x="271" y="684" on="1"/>
        <pt x="246" y="651" on="0"/>
        <pt x="226" y="577" on="0"/>
        <pt x="226" y="517" on="1"/>
        <pt x="226" y="126" on="1"/>
        <pt x="226" y="83" on="0"/>
        <pt x="250" y="49" on="0"/>
        <pt x="287" y="38" on="1"/>
        <pt x="308" y="32" on="1"/>
        <pt x="297" y="0" on="1"/>
        <pt x="52" y="0" on="1"/>
        <pt x="40" y="34" on="1"/>
        <pt x="63" y="40" on="1"/>
        <pt x="101" y="51" on="0"/>
        <pt x="127" y="87" on="0"/>
      </contour>
    </TTGlyph>
    <TTGlyph name="Iacute" xMin="40" yMin="0" xMax="308" yMax="981">
      <contour>
        <pt x="127" y="133" on="1"/>
        <pt x="127" y="585" on="1"/>
        <pt x="127" y="631" on="0"/>
        <pt x="101" y="667" on="0"/>
        <pt x="63" y="678" on="1"/>
        <pt x="40" y="684" on="1"/>
        <pt x="52" y="718" on="1"/>
        <pt x="271" y="718" on="1"/>
        <pt x="284" y="702" on="1"/>
        <pt x="271" y="684" on="1"/>
        <pt x="246" y="651" on="0"/>
        <pt x="226" y="577" on="0"/>
        <pt x="226" y="517" on="1"/>
        <pt x="226" y="126" on="1"/>
        <pt x="226" y="83" on="0"/>
        <pt x="250" y="49" on="0"/>
        <pt x="287" y="38" on="1"/>
        <pt x="308" y="32" on="1"/>
        <pt x="297" y="0" on="1"/>
        <pt x="52" y="0" on="1"/>
        <pt x="40" y="34" on="1"/>
        <pt x="63" y="40" on="1"/>
        <pt x="101" y="51" on="0"/>
        <pt x="127" y="87" on="0"/>
      </contour>
      <contour>
        <pt x="243" y="981" on="1"/>
        <pt x="285" y="961" on="0"/>
        <pt x="285" y="873" on="0"/>
        <pt x="229" y="846" on="1"/>
        <pt x="116" y="790" on="1"/>
        <pt x="87" y="825" on="1"/>
      </contour>
    </TTGlyph>
    <TTGlyph name="Icircumflex" xMin="39" yMin="0" xMax="313" yMax="976">
      <contour>
        <pt x="127" y="133" on="1"/>
        <pt x="127" y="585" on="1"/>
        <pt x="127" y="631" on="0"/>
        <pt x="101" y="667" on="0"/>
        <pt x="63" y="678" on="1"/>
        <pt x="40" y="684" on="1"/>
        <pt x="52" y="718" on="1"/>
        <pt x="271" y="718" on="1"/>
        <pt x="284" y="702" on="1"/>
        <pt x="271" y="684" on="1"/>
        <pt x="246" y="651" on="0"/>
        <pt x="226" y="577" on="0"/>
        <pt x="226" y="517" on="1"/>
        <pt x="226" y="126" on="1"/>
        <pt x="226" y="83" on="0"/>
        <pt x="250" y="49" on="0"/>
        <pt x="287" y="38" on="1"/>
        <pt x="308" y="32" on="1"/>
        <pt x="297" y="0" on="1"/>
        <pt x="52" y="0" on="1"/>
        <pt x="40" y="34" on="1"/>
        <pt x="63" y="40" on="1"/>
        <pt x="101" y="51" on="0"/>
        <pt x="127" y="87" on="0"/>
      </contour>
      <contour>
        <pt x="163" y="976" on="1"/>
        <pt x="190" y="976" on="1"/>
        <pt x="208" y="965" on="0"/>
        <pt x="282" y="873" on="0"/>
        <pt x="313" y="818" on="1"/>
        <pt x="281" y="790" on="1"/>
        <pt x="176" y="873" on="1"/>
        <pt x="72" y="790" on="1"/>
        <pt x="39" y="818" on="1"/>
        <pt x="71" y="874" on="0"/>
        <pt x="143" y="964" on="0"/>
      </contour>
    </TTGlyph>
    <TTGlyph name="Idieresis" xMin="20" yMin="0" xMax="333" yMax="945">
      <contour>
        <pt x="127" y="133" on="1"/>
        <pt x="127" y="585" on="1"/>
        <pt x="127" y="631" on="0"/>
        <pt x="101" y="667" on="0"/>
        <pt x="63" y="678" on="1"/>
        <pt x="40" y="684" on="1"/>
        <pt x="52" y="718" on="1"/>
        <pt x="271" y="718" on="1"/>
        <pt x="284" y="702" on="1"/>
        <pt x="271" y="684" on="1"/>
        <pt x="246" y="651" on="0"/>
        <pt x="226" y="577" on="0"/>
        <pt x="226" y="517" on="1"/>
        <pt x="226" y="126" on="1"/>
        <pt x="226" y="83" on="0"/>
        <pt x="250" y="49" on="0"/>
        <pt x="287" y="38" on="1"/>
        <pt x="308" y="32" on="1"/>
        <pt x="297" y="0" on="1"/>
        <pt x="52" y="0" on="1"/>
        <pt x="40" y="34" on="1"/>
        <pt x="63" y="40" on="1"/>
        <pt x="101" y="51" on="0"/>
        <pt x="127" y="87" on="0"/>
      </contour>
      <contour>
        <pt x="20" y="860" on="0"/>
        <pt x="20" y="898" on="0"/>
        <pt x="63" y="945" on="0"/>
        <pt x="100" y="945" on="0"/>
        <pt x="144" y="899" on="0"/>
        <pt x="144" y="860" on="0"/>
        <pt x="100" y="814" on="0"/>
        <pt x="64" y="814" on="0"/>
      </contour>
      <contour>
        <pt x="209" y="860" on="0"/>
        <pt x="209" y="898" on="0"/>
        <pt x="252" y="945" on="0"/>
        <pt x="289" y="945" on="0"/>
        <pt x="333" y="899" on="0"/>
        <pt x="333" y="860" on="0"/>
        <pt x="289" y="814" on="0"/>
        <pt x="253" y="814" on="0"/>
      </contour>
    </TTGlyph>
    <TTGlyph name="Igrave" xMin="40" yMin="0" xMax="308" yMax="981">
      <contour>
        <pt x="127" y="133" on="1"/>
        <pt x="127" y="585" on="1"/>
        <pt x="127" y="631" on="0"/>
        <pt x="101" y="667" on="0"/>
        <pt x="63" y="678" on="1"/>
        <pt x="40" y="684" on="1"/>
        <pt x="52" y="718" on="1"/>
        <pt x="271" y="718" on="1"/>
        <pt x="284" y="702" on="1"/>
        <pt x="271" y="684" on="1"/>
        <pt x="246" y="651" on="0"/>
        <pt x="226" y="577" on="0"/>
        <pt x="226" y="517" on="1"/>
        <pt x="226" y="126" on="1"/>
        <pt x="226" y="83" on="0"/>
        <pt x="250" y="49" on="0"/>
        <pt x="287" y="38" on="1"/>
        <pt x="308" y="32" on="1"/>
        <pt x="297" y="0" on="1"/>
        <pt x="52" y="0" on="1"/>
        <pt x="40" y="34" on="1"/>
        <pt x="63" y="40" on="1"/>
        <pt x="101" y="51" on="0"/>
        <pt x="127" y="87" on="0"/>
      </contour>
      <contour>
        <pt x="133" y="846" on="1"/>
        <pt x="77" y="873" on="0"/>
        <pt x="77" y="961" on="0"/>
        <pt x="119" y="981" on="1"/>
        <pt x="275" y="825" on="1"/>
        <pt x="246" y="790" on="1"/>
      </contour>
    </TTGlyph>
    <TTGlyph name="J" xMin="-20" yMin="-14" xMax="429" yMax="718">
      <contour>
        <pt x="272" y="175" on="1"/>
        <pt x="272" y="585" on="1"/>
        <pt x="272" y="631" on="0"/>
        <pt x="246" y="667" on="0"/>
        <pt x="208" y="678" on="1"/>
        <pt x="185" y="684" on="1"/>
        <pt x="197" y="718" on="1"/>
        <pt x="416" y="718" on="1"/>
        <pt x="429" y="702" on="1"/>
        <pt x="416" y="684" on="1"/>
        <pt x="391" y="651" on="0"/>
        <pt x="371" y="577" on="0"/>
        <pt x="371" y="517" on="1"/>
        <pt x="371" y="236" on="1"/>
        <pt x="371" y="106" on="0"/>
        <pt x="260" y="-14" on="0"/>
        <pt x="75" y="-14" on="0"/>
        <pt x="-20" y="71" on="0"/>
        <pt x="-20" y="179" on="0"/>
        <pt x="48" y="250" on="0"/>
        <pt x="107" y="250" on="1"/>
        <pt x="126" y="250" on="0"/>
        <pt x="126" y="239" on="1"/>
        <pt x="126" y="235" on="0"/>
        <pt x="102" y="211" on="0"/>
        <pt x="77" y="163" on="0"/>
        <pt x="77" y="91" on="0"/>
        <pt x="126" y="38" on="0"/>
        <pt x="169" y="38" on="1"/>
        <pt x="272" y="38" on="0"/>
      </contour>
    </TTGlyph>
    <TTGlyph name="K" xMin="40" yMin="-14" xMax="651" yMax="718">
      <contour>
        <pt x="127" y="133" on="1"/>
        <pt x="127" y="585" on="1"/>
        <pt x="127" y="631" on="0"/>
        <pt x="101" y="667" on="0"/>
        <pt x="63" y="678" on="1"/>
        <pt x="40" y="684" on="1"/>
        <pt x="52" y="718" on="1"/>
        <pt x="271" y="718" on="1"/>
        <pt x="284" y="702" on="1"/>
        <pt x="271" y="684" on="1"/>
        <pt x="246" y="651" on="0"/>
        <pt x="226" y="577" on="0"/>
        <pt x="226" y="517" on="1"/>
        <pt x="226" y="126" on="1"/>
        <pt x="226" y="83" on="0"/>
        <pt x="250" y="49" on="0"/>
        <pt x="287" y="38" on="1"/>
        <pt x="308" y="32" on="1"/>
        <pt x="297" y="0" on="1"/>
        <pt x="52" y="0" on="1"/>
        <pt x="40" y="34" on="1"/>
        <pt x="63" y="40" on="1"/>
        <pt x="101" y="51" on="0"/>
        <pt x="127" y="87" on="0"/>
      </contour>
      <contour>
        <pt x="557" y="72" on="1"/>
        <pt x="574" y="41" on="0"/>
        <pt x="614" y="41" on="0"/>
        <pt x="634" y="55" on="1"/>
        <pt x="651" y="26" on="1"/>
        <pt x="610" y="-14" on="0"/>
        <pt x="514" y="-14" on="0"/>
        <pt x="452" y="34" on="0"/>
        <pt x="425" y="83" on="1"/>
        <pt x="306" y="301" on="1"/>
        <pt x="289" y="331" on="0"/>
        <pt x="255" y="346" on="1"/>
        <pt x="250" y="348" on="0"/>
        <pt x="250" y="357" on="1"/>
        <pt x="250" y="381" on="0"/>
        <pt x="270" y="381" on="1"/>
        <pt x="286" y="381" on="0"/>
        <pt x="294" y="380" on="1"/>
        <pt x="430" y="583" on="1"/>
        <pt x="451" y="616" on="0"/>
        <pt x="451" y="655" on="0"/>
        <pt x="438" y="684" on="1"/>
        <pt x="429" y="702" on="1"/>
        <pt x="448" y="718" on="1"/>
        <pt x="629" y="718" on="1"/>
        <pt x="641" y="684" on="1"/>
        <pt x="618" y="678" on="1"/>
        <pt x="567" y="664" on="0"/>
        <pt x="540" y="624" on="1"/>
        <pt x="360" y="364" on="1"/>
        <pt x="403" y="344" on="0"/>
        <pt x="429" y="299" on="1"/>
      </contour>
    </TTGlyph>
    <TTGlyph name="L" xMin="40" yMin="-25" xMax="526" yMax="718">
      <contour>
        <pt x="226" y="517" on="1"/>
        <pt x="226" y="133" on="1"/>
        <pt x="226" y="87" on="0"/>
        <pt x="251" y="57" on="0"/>
        <pt x="290" y="57" on="1"/>
        <pt x="377" y="57" on="1"/>
        <pt x="430" y="57" on="0"/>
        <pt x="472" y="92" on="0"/>
        <pt x="486" y="146" on="1"/>
        <pt x="492" y="169" on="1"/>
        <pt x="526" y="157" on="1"/>
        <pt x="526" y="-14" on="1"/>
        <pt x="506" y="-25" on="1"/>
        <pt x="498" y="-14" on="1"/>
        <pt x="487" y="0" on="0"/>
        <pt x="456" y="0" on="1"/>
        <pt x="56" y="0" on="1"/>
        <pt x="45" y="32" on="1"/>
        <pt x="66" y="38" on="1"/>
        <pt x="103" y="49" on="0"/>
        <pt x="127" y="83" on="0"/>
        <pt x="127" y="126" on="1"/>
        <pt x="127" y="585" on="1"/>
        <pt x="127" y="631" on="0"/>
        <pt x="101" y="667" on="0"/>
        <pt x="63" y="678" on="1"/>
        <pt x="40" y="684" on="1"/>
        <pt x="52" y="718" on="1"/>
        <pt x="271" y="718" on="1"/>
        <pt x="284" y="702" on="1"/>
        <pt x="271" y="684" on="1"/>
        <pt x="246" y="651" on="0"/>
        <pt x="226" y="577" on="0"/>
      </contour>
    </TTGlyph>
    <TTGlyph name="Lslash" xMin="25" yMin="-25" xMax="526" yMax="718">
      <contour>
        <pt x="226" y="133" on="1"/>
        <pt x="226" y="87" on="0"/>
        <pt x="251" y="57" on="0"/>
        <pt x="290" y="57" on="1"/>
        <pt x="377" y="57" on="1"/>
        <pt x="430" y="57" on="0"/>
        <pt x="472" y="92" on="0"/>
        <pt x="486" y="146" on="1"/>
        <pt x="492" y="169" on="1"/>
        <pt x="526" y="157" on="1"/>
        <pt x="526" y="-14" on="1"/>
        <pt x="506" y="-25" on="1"/>
        <pt x="498" y="-14" on="1"/>
        <pt x="487" y="0" on="0"/>
        <pt x="456" y="0" on="1"/>
        <pt x="56" y="0" on="1"/>
        <pt x="45" y="32" on="1"/>
        <pt x="66" y="38" on="1"/>
        <pt x="103" y="49" on="0"/>
        <pt x="127" y="83" on="0"/>
        <pt x="127" y="126" on="1"/>
        <pt x="127" y="295" on="1"/>
        <pt x="25" y="244" on="1"/>
        <pt x="25" y="288" on="0"/>
        <pt x="34" y="327" on="0"/>
        <pt x="49" y="334" on="1"/>
        <pt x="127" y="373" on="1"/>
        <pt x="127" y="585" on="1"/>
        <pt x="127" y="631" on="0"/>
        <pt x="101" y="667" on="0"/>
        <pt x="63" y="678" on="1"/>
        <pt x="40" y="684" on="1"/>
        <pt x="52" y="718" on="1"/>
        <pt x="271" y="718" on="1"/>
        <pt x="284" y="702" on="1"/>
        <pt x="271" y="684" on="1"/>
        <pt x="246" y="651" on="0"/>
        <pt x="226" y="577" on="0"/>
        <pt x="226" y="517" on="1"/>
        <pt x="226" y="422" on="1"/>
        <pt x="329" y="474" on="1"/>
        <pt x="329" y="430" on="0"/>
        <pt x="320" y="391" on="0"/>
        <pt x="305" y="384" on="1"/>
        <pt x="226" y="344" on="1"/>
      </contour>
    </TTGlyph>
    <TTGlyph name="M" xMin="15" yMin="0" xMax="876" yMax="718">
      <contour>
        <pt x="687" y="50" on="0"/>
        <pt x="712" y="81" on="0"/>
        <pt x="712" y="127" on="0"/>
        <pt x="710" y="149" on="1"/>
        <pt x="681" y="566" on="1"/>
        <pt x="472" y="72" on="1"/>
        <pt x="418" y="72" on="1"/>
        <pt x="209" y="566" on="1"/>
        <pt x="187" y="258" on="1"/>
        <pt x="181" y="188" on="0"/>
        <pt x="181" y="160" on="1"/>
        <pt x="181" y="86" on="0"/>
        <pt x="217" y="34" on="1"/>
        <pt x="229" y="16" on="1"/>
        <pt x="214" y="0" on="1"/>
        <pt x="26" y="0" on="1"/>
        <pt x="15" y="34" on="1"/>
        <pt x="38" y="40" on="1"/>
        <pt x="77" y="52" on="0"/>
        <pt x="106" y="88" on="0"/>
        <pt x="109" y="133" on="1"/>
        <pt x="136" y="529" on="1"/>
        <pt x="141" y="569" on="0"/>
        <pt x="141" y="640" on="0"/>
        <pt x="116" y="670" on="0"/>
        <pt x="83" y="678" on="1"/>
        <pt x="60" y="684" on="1"/>
        <pt x="71" y="718" on="1"/>
        <pt x="253" y="718" on="1"/>
        <pt x="459" y="215" on="1"/>
        <pt x="671" y="718" on="1"/>
        <pt x="815" y="718" on="1"/>
        <pt x="830" y="702" on="1"/>
        <pt x="818" y="684" on="1"/>
        <pt x="782" y="632" on="0"/>
        <pt x="782" y="558" on="1"/>
        <pt x="782" y="543" on="0"/>
        <pt x="787" y="468" on="1"/>
        <pt x="807" y="194" on="1"/>
        <pt x="812" y="132" on="0"/>
        <pt x="843" y="49" on="0"/>
        <pt x="876" y="16" on="1"/>
        <pt x="863" y="0" on="1"/>
        <pt x="644" y="0" on="1"/>
        <pt x="632" y="34" on="1"/>
        <pt x="655" y="40" on="1"/>
      </contour>
    </TTGlyph>
    <TTGlyph name="N" xMin="34" yMin="0" xMax="717" yMax="718">
      <contour>
        <pt x="191" y="201" on="1"/>
        <pt x="191" y="141" on="0"/>
        <pt x="211" y="67" on="0"/>
        <pt x="236" y="34" on="1"/>
        <pt x="249" y="16" on="1"/>
        <pt x="236" y="0" on="1"/>
        <pt x="46" y="0" on="1"/>
        <pt x="34" y="34" on="1"/>
        <pt x="57" y="40" on="1"/>
        <pt x="95" y="51" on="0"/>
        <pt x="121" y="87" on="0"/>
        <pt x="121" y="133" on="1"/>
        <pt x="121" y="585" on="1"/>
        <pt x="121" y="631" on="0"/>
        <pt x="95" y="667" on="0"/>
        <pt x="57" y="678" on="1"/>
        <pt x="34" y="684" on="1"/>
        <pt x="46" y="718" on="1"/>
        <pt x="207" y="718" on="1"/>
        <pt x="589" y="151" on="1"/>
        <pt x="589" y="585" on="1"/>
        <pt x="589" y="631" on="0"/>
        <pt x="563" y="667" on="0"/>
        <pt x="525" y="678" on="1"/>
        <pt x="502" y="684" on="1"/>
        <pt x="514" y="718" on="1"/>
        <pt x="704" y="718" on="1"/>
        <pt x="717" y="702" on="1"/>
        <pt x="704" y="684" on="1"/>
        <pt x="679" y="651" on="0"/>
        <pt x="659" y="577" on="0"/>
        <pt x="659" y="517" on="1"/>
        <pt x="659" y="88" on="1"/>
        <pt x="659" y="54" on="0"/>
        <pt x="673" y="34" on="1"/>
        <pt x="686" y="16" on="1"/>
        <pt x="673" y="0" on="1"/>
        <pt x="572" y="0" on="1"/>
        <pt x="191" y="565" on="1"/>
      </contour>
    </TTGlyph>
    <TTGlyph name="Ntilde" xMin="34" yMin="0" xMax="717" yMax="944">
      <contour>
        <pt x="191" y="201" on="1"/>
        <pt x="191" y="141" on="0"/>
        <pt x="211" y="67" on="0"/>
        <pt x="236" y="34" on="1"/>
        <pt x="249" y="16" on="1"/>
        <pt x="236" y="0" on="1"/>
        <pt x="46" y="0" on="1"/>
        <pt x="34" y="34" on="1"/>
        <pt x="57" y="40" on="1"/>
        <pt x="95" y="51" on="0"/>
        <pt x="121" y="87" on="0"/>
        <pt x="121" y="133" on="1"/>
        <pt x="121" y="585" on="1"/>
        <pt x="121" y="631" on="0"/>
        <pt x="95" y="667" on="0"/>
        <pt x="57" y="678" on="1"/>
        <pt x="34" y="684" on="1"/>
        <pt x="46" y="718" on="1"/>
        <pt x="207" y="718" on="1"/>
        <pt x="589" y="151" on="1"/>
        <pt x="589" y="585" on="1"/>
        <pt x="589" y="631" on="0"/>
        <pt x="563" y="667" on="0"/>
        <pt x="525" y="678" on="1"/>
        <pt x="502" y="684" on="1"/>
        <pt x="514" y="718" on="1"/>
        <pt x="704" y="718" on="1"/>
        <pt x="717" y="702" on="1"/>
        <pt x="704" y="684" on="1"/>
        <pt x="679" y="651" on="0"/>
        <pt x="659" y="577" on="0"/>
        <pt x="659" y="517" on="1"/>
        <pt x="659" y="88" on="1"/>
        <pt x="659" y="54" on="0"/>
        <pt x="673" y="34" on="1"/>
        <pt x="686" y="16" on="1"/>
        <pt x="673" y="0" on="1"/>
        <pt x="572" y="0" on="1"/>
        <pt x="191" y="565" on="1"/>
      </contour>
      <contour>
        <pt x="432" y="816" on="1"/>
        <pt x="408" y="816" on="0"/>
        <pt x="351" y="851" on="0"/>
        <pt x="337" y="851" on="1"/>
        <pt x="309" y="851" on="0"/>
        <pt x="270" y="812" on="1"/>
        <pt x="235" y="843" on="1"/>
        <pt x="306" y="940" on="0"/>
        <pt x="364" y="940" on="1"/>
        <pt x="387" y="940" on="0"/>
        <pt x="443" y="905" on="0"/>
        <pt x="458" y="905" on="1"/>
        <pt x="486" y="905" on="0"/>
        <pt x="526" y="944" on="1"/>
        <pt x="560" y="913" on="1"/>
        <pt x="491" y="816" on="0"/>
      </contour>
    </TTGlyph>
    <TTGlyph name="O" xMin="35" yMin="-14" xMax="698" yMax="732">
      <contour>
        <pt x="544" y="561" on="1"/>
        <pt x="521" y="612" on="0"/>
        <pt x="431" y="675" on="0"/>
        <pt x="371" y="675" on="1"/>
        <pt x="265" y="675" on="0"/>
        <pt x="143" y="488" on="0"/>
        <pt x="143" y="217" on="0"/>
        <pt x="257" y="45" on="0"/>
        <pt x="467" y="45" on="0"/>
        <pt x="589" y="221" on="0"/>
        <pt x="589" y="464" on="0"/>
      </contour>
      <contour>
        <pt x="35" y="195" on="0"/>
        <pt x="35" y="521" on="0"/>
        <pt x="205" y="732" on="0"/>
        <pt x="526" y="732" on="0"/>
        <pt x="698" y="521" on="0"/>
        <pt x="698" y="195" on="0"/>
        <pt x="526" y="-14" on="0"/>
        <pt x="205" y="-14" on="0"/>
      </contour>
    </TTGlyph>
    <TTGlyph name="OE" xMin="35" yMin="-25" xMax="893" yMax="752">
      <contour>
        <pt x="366" y="718" on="1"/>
        <pt x="734" y="718" on="1"/>
        <pt x="820" y="718" on="0"/>
        <pt x="848" y="739" on="1"/>
        <pt x="866" y="752" on="1"/>
        <pt x="882" y="739" on="1"/>
        <pt x="882" y="561" on="1"/>
        <pt x="848" y="549" on="1"/>
        <pt x="842" y="572" on="1"/>
        <pt x="828" y="626" on="0"/>
        <pt x="786" y="661" on="0"/>
        <pt x="733" y="661" on="1"/>
        <pt x="636" y="661" on="1"/>
        <pt x="597" y="661" on="0"/>
        <pt x="572" y="631" on="0"/>
        <pt x="572" y="585" on="1"/>
        <pt x="572" y="393" on="1"/>
        <pt x="699" y="393" on="1"/>
        <pt x="745" y="393" on="0"/>
        <pt x="778" y="439" on="1"/>
        <pt x="786" y="450" on="1"/>
        <pt x="806" y="439" on="1"/>
        <pt x="806" y="268" on="1"/>
        <pt x="772" y="256" on="1"/>
        <pt x="766" y="279" on="1"/>
        <pt x="757" y="313" on="0"/>
        <pt x="712" y="336" on="0"/>
        <pt x="657" y="336" on="1"/>
        <pt x="572" y="336" on="1"/>
        <pt x="572" y="133" on="1"/>
        <pt x="572" y="87" on="0"/>
        <pt x="597" y="57" on="0"/>
        <pt x="636" y="57" on="1"/>
        <pt x="744" y="57" on="1"/>
        <pt x="797" y="57" on="0"/>
        <pt x="839" y="92" on="0"/>
        <pt x="853" y="146" on="1"/>
        <pt x="859" y="169" on="1"/>
        <pt x="893" y="157" on="1"/>
        <pt x="893" y="-14" on="1"/>
        <pt x="873" y="-25" on="1"/>
        <pt x="865" y="-14" on="1"/>
        <pt x="854" y="0" on="0"/>
        <pt x="823" y="0" on="1"/>
        <pt x="366" y="0" on="1"/>
        <pt x="205" y="0" on="0"/>
        <pt x="35" y="201" on="0"/>
        <pt x="35" y="515" on="0"/>
        <pt x="205" y="718" on="0"/>
      </contour>
      <contour>
        <pt x="375" y="45" on="1"/>
        <pt x="429" y="45" on="0"/>
        <pt x="473" y="70" on="1"/>
        <pt x="473" y="633" on="1"/>
        <pt x="419" y="674" on="0"/>
        <pt x="298" y="674" on="0"/>
        <pt x="212" y="619" on="0"/>
        <pt x="188" y="572" on="1"/>
        <pt x="143" y="481" on="0"/>
        <pt x="143" y="224" on="0"/>
        <pt x="269" y="45" on="0"/>
      </contour>
    </TTGlyph>
    <TTGlyph name="Oacute" xMin="35" yMin="-14" xMax="698" yMax="981">
      <contour>
        <pt x="544" y="561" on="1"/>
        <pt x="521" y="612" on="0"/>
        <pt x="431" y="675" on="0"/>
        <pt x="371" y="675" on="1"/>
        <pt x="265" y="675" on="0"/>
        <pt x="143" y="488" on="0"/>
        <pt x="143" y="217" on="0"/>
        <pt x="257" y="45" on="0"/>
        <pt x="467" y="45" on="0"/>
        <pt x="589" y="221" on="0"/>
        <pt x="589" y="464" on="0"/>
      </contour>
      <contour>
        <pt x="35" y="195" on="0"/>
        <pt x="35" y="521" on="0"/>
        <pt x="205" y="732" on="0"/>
        <pt x="526" y="732" on="0"/>
        <pt x="698" y="521" on="0"/>
        <pt x="698" y="195" on="0"/>
        <pt x="526" y="-14" on="0"/>
        <pt x="205" y="-14" on="0"/>
      </contour>
      <contour>
        <pt x="423" y="981" on="1"/>
        <pt x="465" y="961" on="0"/>
        <pt x="465" y="873" on="0"/>
        <pt x="409" y="846" on="1"/>
        <pt x="296" y="790" on="1"/>
        <pt x="267" y="825" on="1"/>
      </contour>
    </TTGlyph>
    <TTGlyph name="Ocircumflex" xMin="35" yMin="-14" xMax="698" yMax="976">
      <contour>
        <pt x="544" y="561" on="1"/>
        <pt x="521" y="612" on="0"/>
        <pt x="431" y="675" on="0"/>
        <pt x="371" y="675" on="1"/>
        <pt x="265" y="675" on="0"/>
        <pt x="143" y="488" on="0"/>
        <pt x="143" y="217" on="0"/>
        <pt x="257" y="45" on="0"/>
        <pt x="467" y="45" on="0"/>
        <pt x="589" y="221" on="0"/>
        <pt x="589" y="464" on="0"/>
      </contour>
      <contour>
        <pt x="35" y="195" on="0"/>
        <pt x="35" y="521" on="0"/>
        <pt x="205" y="732" on="0"/>
        <pt x="526" y="732" on="0"/>
        <pt x="698" y="521" on="0"/>
        <pt x="698" y="195" on="0"/>
        <pt x="526" y="-14" on="0"/>
        <pt x="205" y="-14" on="0"/>
      </contour>
      <contour>
        <pt x="353" y="976" on="1"/>
        <pt x="380" y="976" on="1"/>
        <pt x="398" y="965" on="0"/>
        <pt x="472" y="873" on="0"/>
        <pt x="503" y="818" on="1"/>
        <pt x="471" y="790" on="1"/>
        <pt x="366" y="873" on="1"/>
        <pt x="262" y="790" on="1"/>
        <pt x="229" y="818" on="1"/>
        <pt x="261" y="874" on="0"/>
        <pt x="333" y="964" on="0"/>
      </contour>
    </TTGlyph>
    <TTGlyph name="Odieresis" xMin="35" yMin="-14" xMax="698" yMax="945">
      <contour>
        <pt x="544" y="561" on="1"/>
        <pt x="521" y="612" on="0"/>
        <pt x="431" y="675" on="0"/>
        <pt x="371" y="675" on="1"/>
        <pt x="265" y="675" on="0"/>
        <pt x="143" y="488" on="0"/>
        <pt x="143" y="217" on="0"/>
        <pt x="257" y="45" on="0"/>
        <pt x="467" y="45" on="0"/>
        <pt x="589" y="221" on="0"/>
        <pt x="589" y="464" on="0"/>
      </contour>
      <contour>
        <pt x="35" y="195" on="0"/>
        <pt x="35" y="521" on="0"/>
        <pt x="205" y="732" on="0"/>
        <pt x="526" y="732" on="0"/>
        <pt x="698" y="521" on="0"/>
        <pt x="698" y="195" on="0"/>
        <pt x="526" y="-14" on="0"/>
        <pt x="205" y="-14" on="0"/>
      </contour>
      <contour>
        <pt x="210" y="860" on="0"/>
        <pt x="210" y="898" on="0"/>
        <pt x="253" y="945" on="0"/>
        <pt x="290" y="945" on="0"/>
        <pt x="334" y="899" on="0"/>
        <pt x="334" y="860" on="0"/>
        <pt x="290" y="814" on="0"/>
        <pt x="254" y="814" on="0"/>
      </contour>
      <contour>
        <pt x="399" y="860" on="0"/>
        <pt x="399" y="898" on="0"/>
        <pt x="442" y="945" on="0"/>
        <pt x="479" y="945" on="0"/>
        <pt x="523" y="899" on="0"/>
        <pt x="523" y="860" on="0"/>
        <pt x="479" y="814" on="0"/>
        <pt x="443" y="814" on="0"/>
      </contour>
    </TTGlyph>
    <TTGlyph name="Ograve" xMin="35" yMin="-14" xMax="698" yMax="981">
      <contour>
        <pt x="544" y="561" on="1"/>
        <pt x="521" y="612" on="0"/>
        <pt x="431" y="675" on="0"/>
        <pt x="371" y="675" on="1"/>
        <pt x="265" y="675" on="0"/>
        <pt x="143" y="488" on="0"/>
        <pt x="143" y="217" on="0"/>
        <pt x="257" y="45" on="0"/>
        <pt x="467" y="45" on="0"/>
        <pt x="589" y="221" on="0"/>
        <pt x="589" y="464" on="0"/>
      </contour>
      <contour>
        <pt x="35" y="195" on="0"/>
        <pt x="35" y="521" on="0"/>
        <pt x="205" y="732" on="0"/>
        <pt x="526" y="732" on="0"/>
        <pt x="698" y="521" on="0"/>
        <pt x="698" y="195" on="0"/>
        <pt x="526" y="-14" on="0"/>
        <pt x="205" y="-14" on="0"/>
      </contour>
      <contour>
        <pt x="323" y="846" on="1"/>
        <pt x="267" y="873" on="0"/>
        <pt x="267" y="961" on="0"/>
        <pt x="309" y="981" on="1"/>
        <pt x="465" y="825" on="1"/>
        <pt x="436" y="790" on="1"/>
      </contour>
    </TTGlyph>
    <TTGlyph name="Omega" xMin="60" yMin="0" xMax="702" yMax="731">
      <contour>
        <pt x="485" y="677" on="0"/>
        <pt x="277" y="677" on="0"/>
        <pt x="167" y="526" on="0"/>
        <pt x="167" y="408" on="1"/>
        <pt x="167" y="228" on="0"/>
        <pt x="320" y="152" on="1"/>
        <pt x="292" y="0" on="1"/>
        <pt x="98" y="0" on="1"/>
        <pt x="98" y="31" on="1"/>
        <pt x="160" y="45" on="1"/>
        <pt x="198" y="54" on="0"/>
        <pt x="227" y="77" on="0"/>
        <pt x="233" y="107" on="1"/>
        <pt x="239" y="140" on="1"/>
        <pt x="150" y="183" on="0"/>
        <pt x="60" y="322" on="0"/>
        <pt x="60" y="408" on="1"/>
        <pt x="60" y="549" on="0"/>
        <pt x="225" y="731" on="0"/>
        <pt x="537" y="731" on="0"/>
        <pt x="702" y="549" on="0"/>
        <pt x="702" y="408" on="1"/>
        <pt x="702" y="322" on="0"/>
        <pt x="612" y="183" on="0"/>
        <pt x="523" y="140" on="1"/>
        <pt x="529" y="107" on="1"/>
        <pt x="535" y="77" on="0"/>
        <pt x="564" y="54" on="0"/>
        <pt x="602" y="45" on="1"/>
        <pt x="664" y="31" on="1"/>
        <pt x="664" y="0" on="1"/>
        <pt x="470" y="0" on="1"/>
        <pt x="442" y="152" on="1"/>
        <pt x="595" y="228" on="0"/>
        <pt x="595" y="408" on="1"/>
        <pt x="595" y="526" on="0"/>
      </contour>
    </TTGlyph>
    <TTGlyph name="Oslash" xMin="35" yMin="-63" xMax="698" yMax="781">
      <contour>
        <pt x="35" y="358" on="1"/>
        <pt x="35" y="521" on="0"/>
        <pt x="205" y="732" on="0"/>
        <pt x="366" y="732" on="1"/>
        <pt x="414" y="732" on="0"/>
        <pt x="458" y="721" on="1"/>
        <pt x="480" y="781" on="1"/>
        <pt x="552" y="781" on="1"/>
        <pt x="522" y="697" on="1"/>
        <pt x="608" y="654" on="0"/>
        <pt x="698" y="474" on="0"/>
        <pt x="698" y="358" on="1"/>
        <pt x="698" y="195" on="0"/>
        <pt x="526" y="-14" on="0"/>
        <pt x="366" y="-14" on="1"/>
        <pt x="317" y="-14" on="0"/>
        <pt x="273" y="-3" on="1"/>
        <pt x="252" y="-63" on="1"/>
        <pt x="181" y="-63" on="1"/>
        <pt x="210" y="19" on="1"/>
        <pt x="124" y="62" on="0"/>
        <pt x="35" y="241" on="0"/>
      </contour>
      <contour>
        <pt x="143" y="350" on="1"/>
        <pt x="143" y="171" on="0"/>
        <pt x="235" y="90" on="1"/>
        <pt x="438" y="663" on="1"/>
        <pt x="404" y="675" on="0"/>
        <pt x="371" y="675" on="1"/>
        <pt x="265" y="675" on="0"/>
        <pt x="143" y="488" on="0"/>
      </contour>
      <contour>
        <pt x="589" y="355" on="1"/>
        <pt x="589" y="430" on="0"/>
        <pt x="545" y="581" on="0"/>
        <pt x="497" y="626" on="1"/>
        <pt x="294" y="56" on="1"/>
        <pt x="327" y="45" on="0"/>
        <pt x="362" y="45" on="1"/>
        <pt x="467" y="45" on="0"/>
        <pt x="589" y="221" on="0"/>
      </contour>
    </TTGlyph>
    <TTGlyph name="Otilde" xMin="35" yMin="-14" xMax="698" yMax="944">
      <contour>
        <pt x="544" y="561" on="1"/>
        <pt x="521" y="612" on="0"/>
        <pt x="431" y="675" on="0"/>
        <pt x="371" y="675" on="1"/>
        <pt x="265" y="675" on="0"/>
        <pt x="143" y="488" on="0"/>
        <pt x="143" y="217" on="0"/>
        <pt x="257" y="45" on="0"/>
        <pt x="467" y="45" on="0"/>
        <pt x="589" y="221" on="0"/>
        <pt x="589" y="464" on="0"/>
      </contour>
      <contour>
        <pt x="35" y="195" on="0"/>
        <pt x="35" y="521" on="0"/>
        <pt x="205" y="732" on="0"/>
        <pt x="526" y="732" on="0"/>
        <pt x="698" y="521" on="0"/>
        <pt x="698" y="195" on="0"/>
        <pt x="526" y="-14" on="0"/>
        <pt x="205" y="-14" on="0"/>
      </contour>
      <contour>
        <pt x="401" y="816" on="1"/>
        <pt x="377" y="816" on="0"/>
        <pt x="320" y="851" on="0"/>
        <pt x="306" y="851" on="1"/>
        <pt x="278" y="851" on="0"/>
        <pt x="239" y="812" on="1"/>
        <pt x="204" y="843" on="1"/>
        <pt x="275" y="940" on="0"/>
        <pt x="333" y="940" on="1"/>
        <pt x="356" y="940" on="0"/>
        <pt x="412" y="905" on="0"/>
        <pt x="427" y="905" on="1"/>
        <pt x="455" y="905" on="0"/>
        <pt x="495" y="944" on="1"/>
        <pt x="529" y="913" on="1"/>
        <pt x="460" y="816" on="0"/>
      </contour>
    </TTGlyph>
    <TTGlyph name="P" xMin="35" yMin="0" xMax="576" yMax="732">
      <contour>
        <pt x="226" y="630" on="1"/>
        <pt x="226" y="201" on="1"/>
        <pt x="226" y="140" on="0"/>
        <pt x="246" y="67" on="0"/>
        <pt x="271" y="34" on="1"/>
        <pt x="284" y="16" on="1"/>
        <pt x="271" y="0" on="1"/>
        <pt x="52" y="0" on="1"/>
        <pt x="40" y="34" on="1"/>
        <pt x="63" y="40" on="1"/>
        <pt x="101" y="50" on="0"/>
        <pt x="127" y="88" on="0"/>
        <pt x="127" y="133" on="1"/>
        <pt x="127" y="627" on="1"/>
        <pt x="127" y="651" on="0"/>
        <pt x="105" y="651" on="1"/>
        <pt x="47" y="651" on="1"/>
        <pt x="35" y="688" on="1"/>
        <pt x="78" y="705" on="0"/>
        <pt x="219" y="732" on="0"/>
        <pt x="284" y="732" on="1"/>
        <pt x="432" y="732" on="0"/>
        <pt x="576" y="599" on="0"/>
        <pt x="576" y="393" on="0"/>
        <pt x="454" y="261" on="0"/>
        <pt x="336" y="261" on="1"/>
        <pt x="299" y="261" on="0"/>
        <pt x="248" y="279" on="0"/>
        <pt x="248" y="320" on="0"/>
        <pt x="264" y="320" on="1"/>
        <pt x="265" y="320" on="0"/>
        <pt x="295" y="313" on="0"/>
        <pt x="313" y="313" on="1"/>
        <pt x="388" y="313" on="0"/>
        <pt x="472" y="409" on="0"/>
        <pt x="472" y="572" on="0"/>
        <pt x="383" y="676" on="0"/>
        <pt x="226" y="676" on="0"/>
      </contour>
    </TTGlyph>
    <TTGlyph name="Q" xMin="35" yMin="-222" xMax="783" yMax="732">
      <contour>
        <pt x="35" y="195" on="0"/>
        <pt x="35" y="521" on="0"/>
        <pt x="205" y="732" on="0"/>
        <pt x="526" y="732" on="0"/>
        <pt x="698" y="521" on="0"/>
        <pt x="698" y="358" on="1"/>
        <pt x="698" y="257" on="0"/>
        <pt x="630" y="94" on="0"/>
        <pt x="564" y="46" on="1"/>
        <pt x="614" y="-65" on="1"/>
        <pt x="648" y="-142" on="0"/>
        <pt x="719" y="-142" on="1"/>
        <pt x="737" y="-142" on="0"/>
        <pt x="773" y="-129" on="0"/>
        <pt x="774" y="-129" on="1"/>
        <pt x="783" y="-129" on="0"/>
        <pt x="783" y="-139" on="1"/>
        <pt x="783" y="-175" on="0"/>
        <pt x="727" y="-222" on="0"/>
        <pt x="690" y="-222" on="1"/>
        <pt x="589" y="-222" on="0"/>
        <pt x="526" y="-80" on="1"/>
        <pt x="487" y="5" on="1"/>
        <pt x="430" y="-14" on="0"/>
        <pt x="366" y="-14" on="1"/>
        <pt x="205" y="-14" on="0"/>
      </contour>
      <contour>
        <pt x="589" y="355" on="1"/>
        <pt x="589" y="464" on="0"/>
        <pt x="544" y="561" on="1"/>
        <pt x="521" y="612" on="0"/>
        <pt x="431" y="675" on="0"/>
        <pt x="371" y="675" on="1"/>
        <pt x="265" y="675" on="0"/>
        <pt x="143" y="488" on="0"/>
        <pt x="143" y="210" on="0"/>
        <pt x="203" y="127" on="1"/>
        <pt x="201" y="134" on="0"/>
        <pt x="201" y="147" on="1"/>
        <pt x="201" y="197" on="0"/>
        <pt x="269" y="254" on="0"/>
        <pt x="327" y="254" on="1"/>
        <pt x="441" y="254" on="0"/>
        <pt x="522" y="126" on="1"/>
        <pt x="589" y="215" on="0"/>
      </contour>
      <contour>
        <pt x="244" y="133" on="1"/>
        <pt x="244" y="89" on="0"/>
        <pt x="313" y="45" on="0"/>
        <pt x="414" y="45" on="0"/>
        <pt x="458" y="70" on="1"/>
        <pt x="426" y="135" on="0"/>
        <pt x="347" y="196" on="0"/>
        <pt x="281" y="196" on="0"/>
        <pt x="244" y="162" on="0"/>
      </contour>
    </TTGlyph>
    <TTGlyph name="R" xMin="15" yMin="-14" xMax="621" yMax="732">
      <contour>
        <pt x="621" y="26" on="1"/>
        <pt x="580" y="-14" on="0"/>
        <pt x="480" y="-14" on="0"/>
        <pt x="420" y="42" on="0"/>
        <pt x="391" y="103" on="1"/>
        <pt x="315" y="264" on="1"/>
        <pt x="306" y="284" on="0"/>
        <pt x="279" y="302" on="0"/>
        <pt x="247" y="314" on="1"/>
        <pt x="228" y="321" on="0"/>
        <pt x="228" y="361" on="0"/>
        <pt x="244" y="361" on="1"/>
        <pt x="245" y="361" on="0"/>
        <pt x="275" y="354" on="0"/>
        <pt x="293" y="354" on="1"/>
        <pt x="368" y="354" on="0"/>
        <pt x="452" y="439" on="0"/>
        <pt x="452" y="583" on="0"/>
        <pt x="363" y="676" on="0"/>
        <pt x="206" y="676" on="0"/>
        <pt x="206" y="630" on="1"/>
        <pt x="206" y="201" on="1"/>
        <pt x="206" y="141" on="0"/>
        <pt x="226" y="68" on="0"/>
        <pt x="251" y="34" on="1"/>
        <pt x="264" y="16" on="1"/>
        <pt x="251" y="0" on="1"/>
        <pt x="32" y="0" on="1"/>
        <pt x="20" y="34" on="1"/>
        <pt x="43" y="40" on="1"/>
        <pt x="81" y="50" on="0"/>
        <pt x="107" y="88" on="0"/>
        <pt x="107" y="133" on="1"/>
        <pt x="107" y="627" on="1"/>
        <pt x="107" y="651" on="0"/>
        <pt x="85" y="651" on="1"/>
        <pt x="27" y="651" on="1"/>
        <pt x="15" y="688" on="1"/>
        <pt x="58" y="705" on="0"/>
        <pt x="199" y="732" on="0"/>
        <pt x="264" y="732" on="1"/>
        <pt x="412" y="732" on="0"/>
        <pt x="556" y="610" on="0"/>
        <pt x="556" y="513" on="1"/>
        <pt x="556" y="439" on="0"/>
        <pt x="474" y="329" on="0"/>
        <pt x="394" y="310" on="1"/>
        <pt x="416" y="295" on="0"/>
        <pt x="434" y="261" on="1"/>
        <pt x="527" y="72" on="1"/>
        <pt x="542" y="41" on="0"/>
        <pt x="584" y="41" on="0"/>
        <pt x="604" y="55" on="1"/>
      </contour>
    </TTGlyph>
    <TTGlyph name="S" xMin="45" yMin="-14" xMax="522" yMax="732">
      <contour>
        <pt x="148" y="108" on="0"/>
        <pt x="228" y="42" on="0"/>
        <pt x="350" y="42" on="0"/>
        <pt x="421" y="102" on="0"/>
        <pt x="421" y="194" on="0"/>
        <pt x="381" y="255" on="0"/>
        <pt x="318" y="293" on="0"/>
        <pt x="241" y="328" on="0"/>
        <pt x="164" y="366" on="0"/>
        <pt x="101" y="413" on="0"/>
        <pt x="61" y="489" on="0"/>
        <pt x="61" y="538" on="1"/>
        <pt x="61" y="618" on="0"/>
        <pt x="174" y="732" on="0"/>
        <pt x="378" y="732" on="0"/>
        <pt x="504" y="650" on="0"/>
        <pt x="504" y="585" on="1"/>
        <pt x="504" y="534" on="0"/>
        <pt x="443" y="468" on="0"/>
        <pt x="397" y="468" on="1"/>
        <pt x="376" y="468" on="0"/>
        <pt x="376" y="480" on="1"/>
        <pt x="376" y="483" on="0"/>
        <pt x="384" y="494" on="1"/>
        <pt x="406" y="529" on="0"/>
        <pt x="406" y="618" on="0"/>
        <pt x="336" y="676" on="0"/>
        <pt x="220" y="676" on="0"/>
        <pt x="156" y="609" on="0"/>
        <pt x="156" y="526" on="0"/>
        <pt x="196" y="471" on="0"/>
        <pt x="261" y="434" on="0"/>
        <pt x="339" y="399" on="0"/>
        <pt x="417" y="359" on="0"/>
        <pt x="482" y="310" on="0"/>
        <pt x="522" y="231" on="0"/>
        <pt x="522" y="181" on="1"/>
        <pt x="522" y="92" on="0"/>
        <pt x="403" y="-14" on="0"/>
        <pt x="183" y="-14" on="0"/>
        <pt x="45" y="76" on="0"/>
        <pt x="45" y="147" on="1"/>
        <pt x="45" y="198" on="0"/>
        <pt x="110" y="264" on="0"/>
        <pt x="159" y="264" on="1"/>
        <pt x="180" y="264" on="0"/>
        <pt x="180" y="252" on="1"/>
        <pt x="180" y="250" on="0"/>
        <pt x="172" y="238" on="1"/>
        <pt x="148" y="204" on="0"/>
      </contour>
    </TTGlyph>
    <TTGlyph name="Scaron" xMin="45" yMin="-14" xMax="522" yMax="985">
      <contour>
        <pt x="148" y="108" on="0"/>
        <pt x="228" y="42" on="0"/>
        <pt x="350" y="42" on="0"/>
        <pt x="421" y="102" on="0"/>
        <pt x="421" y="194" on="0"/>
        <pt x="381" y="255" on="0"/>
        <pt x="318" y="293" on="0"/>
        <pt x="241" y="328" on="0"/>
        <pt x="164" y="366" on="0"/>
        <pt x="101" y="413" on="0"/>
        <pt x="61" y="489" on="0"/>
        <pt x="61" y="538" on="1"/>
        <pt x="61" y="618" on="0"/>
        <pt x="174" y="732" on="0"/>
        <pt x="378" y="732" on="0"/>
        <pt x="504" y="650" on="0"/>
        <pt x="504" y="585" on="1"/>
        <pt x="504" y="534" on="0"/>
        <pt x="443" y="468" on="0"/>
        <pt x="397" y="468" on="1"/>
        <pt x="376" y="468" on="0"/>
        <pt x="376" y="480" on="1"/>
        <pt x="376" y="483" on="0"/>
        <pt x="384" y="494" on="1"/>
        <pt x="406" y="529" on="0"/>
        <pt x="406" y="618" on="0"/>
        <pt x="336" y="676" on="0"/>
        <pt x="220" y="676" on="0"/>
        <pt x="156" y="609" on="0"/>
        <pt x="156" y="526" on="0"/>
        <pt x="196" y="471" on="0"/>
        <pt x="261" y="434" on="0"/>
        <pt x="339" y="399" on="0"/>
        <pt x="417" y="359" on="0"/>
        <pt x="482" y="310" on="0"/>
        <pt x="522" y="231" on="0"/>
        <pt x="522" y="181" on="1"/>
        <pt x="522" y="92" on="0"/>
        <pt x="403" y="-14" on="0"/>
        <pt x="183" y="-14" on="0"/>
        <pt x="45" y="76" on="0"/>
        <pt x="45" y="147" on="1"/>
        <pt x="45" y="198" on="0"/>
        <pt x="110" y="264" on="0"/>
        <pt x="159" y="264" on="1"/>
        <pt x="180" y="264" on="0"/>
        <pt x="180" y="252" on="1"/>
        <pt x="180" y="250" on="0"/>
        <pt x="172" y="238" on="1"/>
        <pt x="148" y="204" on="0"/>
      </contour>
      <contour>
        <pt x="306" y="799" on="1"/>
        <pt x="279" y="799" on="1"/>
        <pt x="259" y="811" on="0"/>
        <pt x="187" y="901" on="0"/>
        <pt x="155" y="957" on="1"/>
        <pt x="188" y="985" on="1"/>
        <pt x="292" y="901" on="1"/>
        <pt x="397" y="985" on="1"/>
        <pt x="429" y="957" on="1"/>
        <pt x="398" y="902" on="0"/>
        <pt x="324" y="810" on="0"/>
      </contour>
    </TTGlyph>
    <TTGlyph name="T" xMin="20" yMin="0" xMax="575" yMax="752">
      <contour>
        <pt x="426" y="661" on="1"/>
        <pt x="381" y="661" on="1"/>
        <pt x="360" y="661" on="0"/>
        <pt x="347" y="632" on="0"/>
        <pt x="347" y="585" on="1"/>
        <pt x="347" y="133" on="1"/>
        <pt x="347" y="87" on="0"/>
        <pt x="373" y="51" on="0"/>
        <pt x="411" y="40" on="1"/>
        <pt x="434" y="34" on="1"/>
        <pt x="422" y="0" on="1"/>
        <pt x="203" y="0" on="1"/>
        <pt x="190" y="16" on="1"/>
        <pt x="203" y="34" on="1"/>
        <pt x="228" y="67" on="0"/>
        <pt x="248" y="141" on="0"/>
        <pt x="248" y="201" on="1"/>
        <pt x="248" y="585" on="1"/>
        <pt x="248" y="632" on="0"/>
        <pt x="235" y="661" on="0"/>
        <pt x="214" y="661" on="1"/>
        <pt x="169" y="661" on="1"/>
        <pt x="116" y="661" on="0"/>
        <pt x="74" y="626" on="0"/>
        <pt x="60" y="572" on="1"/>
        <pt x="54" y="549" on="1"/>
        <pt x="20" y="561" on="1"/>
        <pt x="20" y="739" on="1"/>
        <pt x="36" y="752" on="1"/>
        <pt x="54" y="739" on="1"/>
        <pt x="82" y="718" on="0"/>
        <pt x="168" y="718" on="1"/>
        <pt x="427" y="718" on="1"/>
        <pt x="513" y="718" on="0"/>
        <pt x="541" y="739" on="1"/>
        <pt x="559" y="752" on="1"/>
        <pt x="575" y="739" on="1"/>
        <pt x="575" y="561" on="1"/>
        <pt x="541" y="549" on="1"/>
        <pt x="535" y="572" on="1"/>
        <pt x="521" y="626" on="0"/>
        <pt x="479" y="661" on="0"/>
      </contour>
    </TTGlyph>
    <TTGlyph name="Thorn" xMin="40" yMin="0" xMax="576" yMax="718">
      <contour>
        <pt x="127" y="133" on="1"/>
        <pt x="127" y="585" on="1"/>
        <pt x="127" y="631" on="0"/>
        <pt x="101" y="667" on="0"/>
        <pt x="63" y="678" on="1"/>
        <pt x="40" y="684" on="1"/>
        <pt x="52" y="718" on="1"/>
        <pt x="271" y="718" on="1"/>
        <pt x="284" y="702" on="1"/>
        <pt x="271" y="684" on="1"/>
        <pt x="237" y="638" on="0"/>
        <pt x="229" y="581" on="1"/>
        <pt x="285" y="601" on="0"/>
        <pt x="340" y="601" on="1"/>
        <pt x="442" y="601" on="0"/>
        <pt x="576" y="464" on="0"/>
        <pt x="576" y="262" on="0"/>
        <pt x="454" y="130" on="0"/>
        <pt x="336" y="130" on="1"/>
        <pt x="299" y="130" on="0"/>
        <pt x="248" y="148" on="0"/>
        <pt x="248" y="189" on="0"/>
        <pt x="264" y="189" on="1"/>
        <pt x="265" y="189" on="0"/>
        <pt x="295" y="182" on="0"/>
        <pt x="313" y="182" on="1"/>
        <pt x="388" y="182" on="0"/>
        <pt x="472" y="278" on="0"/>
        <pt x="472" y="443" on="0"/>
        <pt x="389" y="548" on="0"/>
        <pt x="226" y="548" on="0"/>
        <pt x="226" y="498" on="1"/>
        <pt x="226" y="126" on="1"/>
        <pt x="226" y="83" on="0"/>
        <pt x="250" y="49" on="0"/>
        <pt x="287" y="38" on="1"/>
        <pt x="308" y="32" on="1"/>
        <pt x="297" y="0" on="1"/>
        <pt x="52" y="0" on="1"/>
        <pt x="40" y="34" on="1"/>
        <pt x="63" y="40" on="1"/>
        <pt x="101" y="51" on="0"/>
        <pt x="127" y="87" on="0"/>
      </contour>
    </TTGlyph>
    <TTGlyph name="U" xMin="24" yMin="-14" xMax="690" yMax="718">
      <contour>
        <pt x="210" y="517" on="1"/>
        <pt x="210" y="220" on="1"/>
        <pt x="210" y="141" on="0"/>
        <pt x="310" y="49" on="0"/>
        <pt x="462" y="49" on="0"/>
        <pt x="562" y="141" on="0"/>
        <pt x="562" y="220" on="1"/>
        <pt x="562" y="585" on="1"/>
        <pt x="562" y="631" on="0"/>
        <pt x="536" y="667" on="0"/>
        <pt x="498" y="678" on="1"/>
        <pt x="475" y="684" on="1"/>
        <pt x="487" y="718" on="1"/>
        <pt x="677" y="718" on="1"/>
        <pt x="690" y="702" on="1"/>
        <pt x="677" y="684" on="1"/>
        <pt x="652" y="651" on="0"/>
        <pt x="632" y="577" on="0"/>
        <pt x="632" y="517" on="1"/>
        <pt x="632" y="220" on="1"/>
        <pt x="632" y="102" on="0"/>
        <pt x="488" y="-14" on="0"/>
        <pt x="256" y="-14" on="0"/>
        <pt x="111" y="102" on="0"/>
        <pt x="111" y="220" on="1"/>
        <pt x="111" y="585" on="1"/>
        <pt x="111" y="631" on="0"/>
        <pt x="85" y="667" on="0"/>
        <pt x="47" y="678" on="1"/>
        <pt x="24" y="684" on="1"/>
        <pt x="36" y="718" on="1"/>
        <pt x="255" y="718" on="1"/>
        <pt x="268" y="702" on="1"/>
        <pt x="255" y="684" on="1"/>
        <pt x="230" y="651" on="0"/>
        <pt x="210" y="577" on="0"/>
      </contour>
    </TTGlyph>
    <TTGlyph name="Uacute" xMin="24" yMin="-14" xMax="690" yMax="981">
      <contour>
        <pt x="210" y="517" on="1"/>
        <pt x="210" y="220" on="1"/>
        <pt x="210" y="141" on="0"/>
        <pt x="310" y="49" on="0"/>
        <pt x="462" y="49" on="0"/>
        <pt x="562" y="141" on="0"/>
        <pt x="562" y="220" on="1"/>
        <pt x="562" y="585" on="1"/>
        <pt x="562" y="631" on="0"/>
        <pt x="536" y="667" on="0"/>
        <pt x="498" y="678" on="1"/>
        <pt x="475" y="684" on="1"/>
        <pt x="487" y="718" on="1"/>
        <pt x="677" y="718" on="1"/>
        <pt x="690" y="702" on="1"/>
        <pt x="677" y="684" on="1"/>
        <pt x="652" y="651" on="0"/>
        <pt x="632" y="577" on="0"/>
        <pt x="632" y="517" on="1"/>
        <pt x="632" y="220" on="1"/>
        <pt x="632" y="102" on="0"/>
        <pt x="488" y="-14" on="0"/>
        <pt x="256" y="-14" on="0"/>
        <pt x="111" y="102" on="0"/>
        <pt x="111" y="220" on="1"/>
        <pt x="111" y="585" on="1"/>
        <pt x="111" y="631" on="0"/>
        <pt x="85" y="667" on="0"/>
        <pt x="47" y="678" on="1"/>
        <pt x="24" y="684" on="1"/>
        <pt x="36" y="718" on="1"/>
        <pt x="255" y="718" on="1"/>
        <pt x="268" y="702" on="1"/>
        <pt x="255" y="684" on="1"/>
        <pt x="230" y="651" on="0"/>
        <pt x="210" y="577" on="0"/>
      </contour>
      <contour>
        <pt x="462" y="981" on="1"/>
        <pt x="504" y="961" on="0"/>
        <pt x="504" y="873" on="0"/>
        <pt x="448" y="846" on="1"/>
        <pt x="335" y="790" on="1"/>
        <pt x="306" y="825" on="1"/>
      </contour>
    </TTGlyph>
    <TTGlyph name="Ucircumflex" xMin="24" yMin="-14" xMax="690" yMax="976">
      <contour>
        <pt x="210" y="517" on="1"/>
        <pt x="210" y="220" on="1"/>
        <pt x="210" y="141" on="0"/>
        <pt x="310" y="49" on="0"/>
        <pt x="462" y="49" on="0"/>
        <pt x="562" y="141" on="0"/>
        <pt x="562" y="220" on="1"/>
        <pt x="562" y="585" on="1"/>
        <pt x="562" y="631" on="0"/>
        <pt x="536" y="667" on="0"/>
        <pt x="498" y="678" on="1"/>
        <pt x="475" y="684" on="1"/>
        <pt x="487" y="718" on="1"/>
        <pt x="677" y="718" on="1"/>
        <pt x="690" y="702" on="1"/>
        <pt x="677" y="684" on="1"/>
        <pt x="652" y="651" on="0"/>
        <pt x="632" y="577" on="0"/>
        <pt x="632" y="517" on="1"/>
        <pt x="632" y="220" on="1"/>
        <pt x="632" y="102" on="0"/>
        <pt x="488" y="-14" on="0"/>
        <pt x="256" y="-14" on="0"/>
        <pt x="111" y="102" on="0"/>
        <pt x="111" y="220" on="1"/>
        <pt x="111" y="585" on="1"/>
        <pt x="111" y="631" on="0"/>
        <pt x="85" y="667" on="0"/>
        <pt x="47" y="678" on="1"/>
        <pt x="24" y="684" on="1"/>
        <pt x="36" y="718" on="1"/>
        <pt x="255" y="718" on="1"/>
        <pt x="268" y="702" on="1"/>
        <pt x="255" y="684" on="1"/>
        <pt x="230" y="651" on="0"/>
        <pt x="210" y="577" on="0"/>
      </contour>
      <contour>
        <pt x="373" y="976" on="1"/>
        <pt x="400" y="976" on="1"/>
        <pt x="418" y="965" on="0"/>
        <pt x="492" y="873" on="0"/>
        <pt x="523" y="818" on="1"/>
        <pt x="491" y="790" on="1"/>
        <pt x="386" y="873" on="1"/>
        <pt x="282" y="790" on="1"/>
        <pt x="249" y="818" on="1"/>
        <pt x="281" y="874" on="0"/>
        <pt x="353" y="964" on="0"/>
      </contour>
    </TTGlyph>
    <TTGlyph name="Udieresis" xMin="24" yMin="-14" xMax="690" yMax="945">
      <contour>
        <pt x="210" y="517" on="1"/>
        <pt x="210" y="220" on="1"/>
        <pt x="210" y="141" on="0"/>
        <pt x="310" y="49" on="0"/>
        <pt x="462" y="49" on="0"/>
        <pt x="562" y="141" on="0"/>
        <pt x="562" y="220" on="1"/>
        <pt x="562" y="585" on="1"/>
        <pt x="562" y="631" on="0"/>
        <pt x="536" y="667" on="0"/>
        <pt x="498" y="678" on="1"/>
        <pt x="475" y="684" on="1"/>
        <pt x="487" y="718" on="1"/>
        <pt x="677" y="718" on="1"/>
        <pt x="690" y="702" on="1"/>
        <pt x="677" y="684" on="1"/>
        <pt x="652" y="651" on="0"/>
        <pt x="632" y="577" on="0"/>
        <pt x="632" y="517" on="1"/>
        <pt x="632" y="220" on="1"/>
        <pt x="632" y="102" on="0"/>
        <pt x="488" y="-14" on="0"/>
        <pt x="256" y="-14" on="0"/>
        <pt x="111" y="102" on="0"/>
        <pt x="111" y="220" on="1"/>
        <pt x="111" y="585" on="1"/>
        <pt x="111" y="631" on="0"/>
        <pt x="85" y="667" on="0"/>
        <pt x="47" y="678" on="1"/>
        <pt x="24" y="684" on="1"/>
        <pt x="36" y="718" on="1"/>
        <pt x="255" y="718" on="1"/>
        <pt x="268" y="702" on="1"/>
        <pt x="255" y="684" on="1"/>
        <pt x="230" y="651" on="0"/>
        <pt x="210" y="577" on="0"/>
      </contour>
      <contour>
        <pt x="226" y="860" on="0"/>
        <pt x="226" y="898" on="0"/>
        <pt x="269" y="945" on="0"/>
        <pt x="306" y="945" on="0"/>
        <pt x="350" y="899" on="0"/>
        <pt x="350" y="860" on="0"/>
        <pt x="306" y="814" on="0"/>
        <pt x="270" y="814" on="0"/>
      </contour>
      <contour>
        <pt x="415" y="860" on="0"/>
        <pt x="415" y="898" on="0"/>
        <pt x="458" y="945" on="0"/>
        <pt x="495" y="945" on="0"/>
        <pt x="539" y="899" on="0"/>
        <pt x="539" y="860" on="0"/>
        <pt x="495" y="814" on="0"/>
        <pt x="459" y="814" on="0"/>
      </contour>
    </TTGlyph>
    <TTGlyph name="Ugrave" xMin="24" yMin="-14" xMax="690" yMax="981">
      <contour>
        <pt x="210" y="517" on="1"/>
        <pt x="210" y="220" on="1"/>
        <pt x="210" y="141" on="0"/>
        <pt x="310" y="49" on="0"/>
        <pt x="462" y="49" on="0"/>
        <pt x="562" y="141" on="0"/>
        <pt x="562" y="220" on="1"/>
        <pt x="562" y="585" on="1"/>
        <pt x="562" y="631" on="0"/>
        <pt x="536" y="667" on="0"/>
        <pt x="498" y="678" on="1"/>
        <pt x="475" y="684" on="1"/>
        <pt x="487" y="718" on="1"/>
        <pt x="677" y="718" on="1"/>
        <pt x="690" y="702" on="1"/>
        <pt x="677" y="684" on="1"/>
        <pt x="652" y="651" on="0"/>
        <pt x="632" y="577" on="0"/>
        <pt x="632" y="517" on="1"/>
        <pt x="632" y="220" on="1"/>
        <pt x="632" y="102" on="0"/>
        <pt x="488" y="-14" on="0"/>
        <pt x="256" y="-14" on="0"/>
        <pt x="111" y="102" on="0"/>
        <pt x="111" y="220" on="1"/>
        <pt x="111" y="585" on="1"/>
        <pt x="111" y="631" on="0"/>
        <pt x="85" y="667" on="0"/>
        <pt x="47" y="678" on="1"/>
        <pt x="24" y="684" on="1"/>
        <pt x="36" y="718" on="1"/>
        <pt x="255" y="718" on="1"/>
        <pt x="268" y="702" on="1"/>
        <pt x="255" y="684" on="1"/>
        <pt x="230" y="651" on="0"/>
        <pt x="210" y="577" on="0"/>
      </contour>
      <contour>
        <pt x="326" y="846" on="1"/>
        <pt x="270" y="873" on="0"/>
        <pt x="270" y="961" on="0"/>
        <pt x="312" y="981" on="1"/>
        <pt x="468" y="825" on="1"/>
        <pt x="439" y="790" on="1"/>
      </contour>
    </TTGlyph>
    <TTGlyph name="V" xMin="5" yMin="0" xMax="667" yMax="718">
      <contour>
        <pt x="208" y="672" on="0"/>
        <pt x="187" y="652" on="0"/>
        <pt x="187" y="618" on="0"/>
        <pt x="198" y="585" on="1"/>
        <pt x="361" y="83" on="1"/>
        <pt x="501" y="518" on="1"/>
        <pt x="520" y="578" on="0"/>
        <pt x="520" y="611" on="1"/>
        <pt x="518" y="666" on="0"/>
        <pt x="475" y="678" on="1"/>
        <pt x="452" y="684" on="1"/>
        <pt x="464" y="718" on="1"/>
        <pt x="654" y="718" on="1"/>
        <pt x="667" y="702" on="1"/>
        <pt x="652" y="684" on="1"/>
        <pt x="615" y="640" on="0"/>
        <pt x="597" y="584" on="1"/>
        <pt x="404" y="0" on="1"/>
        <pt x="290" y="0" on="1"/>
        <pt x="95" y="580" on="1"/>
        <pt x="80" y="626" on="0"/>
        <pt x="42" y="674" on="0"/>
        <pt x="5" y="702" on="1"/>
        <pt x="18" y="718" on="1"/>
        <pt x="243" y="718" on="1"/>
        <pt x="255" y="684" on="1"/>
        <pt x="232" y="678" on="1"/>
      </contour>
    </TTGlyph>
    <TTGlyph name="W" xMin="5" yMin="0" xMax="1072" yMax="718">
      <contour>
        <pt x="208" y="672" on="0"/>
        <pt x="187" y="652" on="0"/>
        <pt x="187" y="618" on="0"/>
        <pt x="198" y="585" on="1"/>
        <pt x="361" y="83" on="1"/>
        <pt x="510" y="548" on="1"/>
        <pt x="500" y="580" on="1"/>
        <pt x="485" y="626" on="0"/>
        <pt x="447" y="674" on="0"/>
        <pt x="410" y="702" on="1"/>
        <pt x="423" y="718" on="1"/>
        <pt x="648" y="718" on="1"/>
        <pt x="660" y="684" on="1"/>
        <pt x="637" y="678" on="1"/>
        <pt x="613" y="672" on="0"/>
        <pt x="592" y="652" on="0"/>
        <pt x="592" y="618" on="0"/>
        <pt x="603" y="585" on="1"/>
        <pt x="766" y="83" on="1"/>
        <pt x="906" y="518" on="1"/>
        <pt x="925" y="578" on="0"/>
        <pt x="925" y="611" on="1"/>
        <pt x="923" y="666" on="0"/>
        <pt x="880" y="678" on="1"/>
        <pt x="857" y="684" on="1"/>
        <pt x="869" y="718" on="1"/>
        <pt x="1059" y="718" on="1"/>
        <pt x="1072" y="702" on="1"/>
        <pt x="1057" y="684" on="1"/>
        <pt x="1020" y="640" on="0"/>
        <pt x="1002" y="584" on="1"/>
        <pt x="809" y="0" on="1"/>
        <pt x="695" y="0" on="1"/>
        <pt x="548" y="436" on="1"/>
        <pt x="404" y="0" on="1"/>
        <pt x="290" y="0" on="1"/>
        <pt x="95" y="580" on="1"/>
        <pt x="80" y="626" on="0"/>
        <pt x="42" y="674" on="0"/>
        <pt x="5" y="702" on="1"/>
        <pt x="18" y="718" on="1"/>
        <pt x="243" y="718" on="1"/>
        <pt x="255" y="684" on="1"/>
        <pt x="232" y="678" on="1"/>
      </contour>
    </TTGlyph>
    <TTGlyph name="X" xMin="10" yMin="0" xMax="670" yMax="718">
      <contour>
        <pt x="456" y="583" on="1"/>
        <pt x="477" y="616" on="0"/>
        <pt x="477" y="655" on="0"/>
        <pt x="464" y="684" on="1"/>
        <pt x="455" y="702" on="1"/>
        <pt x="474" y="718" on="1"/>
        <pt x="658" y="718" on="1"/>
        <pt x="670" y="684" on="1"/>
        <pt x="647" y="678" on="1"/>
        <pt x="596" y="664" on="0"/>
        <pt x="569" y="624" on="1"/>
        <pt x="394" y="371" on="1"/>
        <pt x="574" y="116" on="1"/>
        <pt x="623" y="47" on="0"/>
        <pt x="661" y="16" on="1"/>
        <pt x="648" y="0" on="1"/>
        <pt x="411" y="0" on="1"/>
        <pt x="399" y="34" on="1"/>
        <pt x="422" y="40" on="1"/>
        <pt x="461" y="51" on="0"/>
        <pt x="461" y="109" on="0"/>
        <pt x="439" y="142" on="1"/>
        <pt x="330" y="295" on="1"/>
        <pt x="224" y="135" on="1"/>
        <pt x="203" y="102" on="0"/>
        <pt x="203" y="63" on="0"/>
        <pt x="216" y="34" on="1"/>
        <pt x="225" y="16" on="1"/>
        <pt x="206" y="0" on="1"/>
        <pt x="22" y="0" on="1"/>
        <pt x="10" y="34" on="1"/>
        <pt x="33" y="40" on="1"/>
        <pt x="84" y="54" on="0"/>
        <pt x="111" y="94" on="1"/>
        <pt x="290" y="353" on="1"/>
        <pt x="119" y="596" on="1"/>
        <pt x="67" y="668" on="0"/>
        <pt x="28" y="702" on="1"/>
        <pt x="41" y="718" on="1"/>
        <pt x="278" y="718" on="1"/>
        <pt x="290" y="684" on="1"/>
        <pt x="267" y="678" on="1"/>
        <pt x="228" y="667" on="0"/>
        <pt x="228" y="609" on="0"/>
        <pt x="250" y="576" on="1"/>
        <pt x="353" y="429" on="1"/>
      </contour>
    </TTGlyph>
    <TTGlyph name="Y" xMin="5" yMin="0" xMax="601" yMax="718">
      <contour>
        <pt x="439" y="584" on="1"/>
        <pt x="451" y="606" on="0"/>
        <pt x="451" y="645" on="0"/>
        <pt x="426" y="673" on="0"/>
        <pt x="409" y="678" on="1"/>
        <pt x="386" y="684" on="1"/>
        <pt x="398" y="718" on="1"/>
        <pt x="588" y="718" on="1"/>
        <pt x="601" y="702" on="1"/>
        <pt x="586" y="684" on="1"/>
        <pt x="551" y="642" on="0"/>
        <pt x="515" y="578" on="1"/>
        <pt x="360" y="303" on="1"/>
        <pt x="360" y="133" on="1"/>
        <pt x="360" y="88" on="0"/>
        <pt x="388" y="50" on="0"/>
        <pt x="426" y="40" on="1"/>
        <pt x="449" y="34" on="1"/>
        <pt x="437" y="0" on="1"/>
        <pt x="218" y="0" on="1"/>
        <pt x="205" y="16" on="1"/>
        <pt x="218" y="34" on="1"/>
        <pt x="243" y="69" on="0"/>
        <pt x="265" y="142" on="0"/>
        <pt x="265" y="201" on="1"/>
        <pt x="265" y="295" on="1"/>
        <pt x="105" y="576" on="1"/>
        <pt x="56" y="663" on="0"/>
        <pt x="5" y="702" on="1"/>
        <pt x="18" y="718" on="1"/>
        <pt x="243" y="718" on="1"/>
        <pt x="255" y="684" on="1"/>
        <pt x="232" y="678" on="1"/>
        <pt x="208" y="672" on="0"/>
        <pt x="187" y="652" on="0"/>
        <pt x="187" y="625" on="0"/>
        <pt x="218" y="571" on="1"/>
        <pt x="326" y="382" on="1"/>
      </contour>
    </TTGlyph>
    <TTGlyph name="Yacute" xMin="5" yMin="0" xMax="601" yMax="981">
      <contour>
        <pt x="439" y="584" on="1"/>
        <pt x="451" y="606" on="0"/>
        <pt x="451" y="645" on="0"/>
        <pt x="426" y="673" on="0"/>
        <pt x="409" y="678" on="1"/>
        <pt x="386" y="684" on="1"/>
        <pt x="398" y="718" on="1"/>
        <pt x="588" y="718" on="1"/>
        <pt x="601" y="702" on="1"/>
        <pt x="586" y="684" on="1"/>
        <pt x="551" y="642" on="0"/>
        <pt x="515" y="578" on="1"/>
        <pt x="360" y="303" on="1"/>
        <pt x="360" y="133" on="1"/>
        <pt x="360" y="88" on="0"/>
        <pt x="388" y="50" on="0"/>
        <pt x="426" y="40" on="1"/>
        <pt x="449" y="34" on="1"/>
        <pt x="437" y="0" on="1"/>
        <pt x="218" y="0" on="1"/>
        <pt x="205" y="16" on="1"/>
        <pt x="218" y="34" on="1"/>
        <pt x="243" y="69" on="0"/>
        <pt x="265" y="142" on="0"/>
        <pt x="265" y="201" on="1"/>
        <pt x="265" y="295" on="1"/>
        <pt x="105" y="576" on="1"/>
        <pt x="56" y="663" on="0"/>
        <pt x="5" y="702" on="1"/>
        <pt x="18" y="718" on="1"/>
        <pt x="243" y="718" on="1"/>
        <pt x="255" y="684" on="1"/>
        <pt x="232" y="678" on="1"/>
        <pt x="208" y="672" on="0"/>
        <pt x="187" y="652" on="0"/>
        <pt x="187" y="625" on="0"/>
        <pt x="218" y="571" on="1"/>
        <pt x="326" y="382" on="1"/>
      </contour>
      <contour>
        <pt x="417" y="981" on="1"/>
        <pt x="459" y="961" on="0"/>
        <pt x="459" y="873" on="0"/>
        <pt x="403" y="846" on="1"/>
        <pt x="290" y="790" on="1"/>
        <pt x="261" y="825" on="1"/>
      </contour>
    </TTGlyph>
    <TTGlyph name="Ydieresis" xMin="5" yMin="0" xMax="601" yMax="945">
      <contour>
        <pt x="439" y="584" on="1"/>
        <pt x="451" y="606" on="0"/>
        <pt x="451" y="645" on="0"/>
        <pt x="426" y="673" on="0"/>
        <pt x="409" y="678" on="1"/>
        <pt x="386" y="684" on="1"/>
        <pt x="398" y="718" on="1"/>
        <pt x="588" y="718" on="1"/>
        <pt x="601" y="702" on="1"/>
        <pt x="586" y="684" on="1"/>
        <pt x="551" y="642" on="0"/>
        <pt x="515" y="578" on="1"/>
        <pt x="360" y="303" on="1"/>
        <pt x="360" y="133" on="1"/>
        <pt x="360" y="88" on="0"/>
        <pt x="388" y="50" on="0"/>
        <pt x="426" y="40" on="1"/>
        <pt x="449" y="34" on="1"/>
        <pt x="437" y="0" on="1"/>
        <pt x="218" y="0" on="1"/>
        <pt x="205" y="16" on="1"/>
        <pt x="218" y="34" on="1"/>
        <pt x="243" y="69" on="0"/>
        <pt x="265" y="142" on="0"/>
        <pt x="265" y="201" on="1"/>
        <pt x="265" y="295" on="1"/>
        <pt x="105" y="576" on="1"/>
        <pt x="56" y="663" on="0"/>
        <pt x="5" y="702" on="1"/>
        <pt x="18" y="718" on="1"/>
        <pt x="243" y="718" on="1"/>
        <pt x="255" y="684" on="1"/>
        <pt x="232" y="678" on="1"/>
        <pt x="208" y="672" on="0"/>
        <pt x="187" y="652" on="0"/>
        <pt x="187" y="625" on="0"/>
        <pt x="218" y="571" on="1"/>
        <pt x="326" y="382" on="1"/>
      </contour>
      <contour>
        <pt x="183" y="860" on="0"/>
        <pt x="183" y="898" on="0"/>
        <pt x="226" y="945" on="0"/>
        <pt x="263" y="945" on="0"/>
        <pt x="307" y="899" on="0"/>
        <pt x="307" y="860" on="0"/>
        <pt x="263" y="814" on="0"/>
        <pt x="227" y="814" on="0"/>
      </contour>
      <contour>
        <pt x="372" y="860" on="0"/>
        <pt x="372" y="898" on="0"/>
        <pt x="415" y="945" on="0"/>
        <pt x="452" y="945" on="0"/>
        <pt x="496" y="899" on="0"/>
        <pt x="496" y="860" on="0"/>
        <pt x="452" y="814" on="0"/>
        <pt x="416" y="814" on="0"/>
      </contour>
    </TTGlyph>
    <TTGlyph name="Z" xMin="20" yMin="-25" xMax="570" yMax="752">
      <contour>
        <pt x="205" y="718" on="1"/>
        <pt x="570" y="718" on="1"/>
        <pt x="175" y="57" on="1"/>
        <pt x="401" y="57" on="1"/>
        <pt x="454" y="57" on="0"/>
        <pt x="496" y="92" on="0"/>
        <pt x="510" y="146" on="1"/>
        <pt x="516" y="169" on="1"/>
        <pt x="550" y="157" on="1"/>
        <pt x="550" y="-14" on="1"/>
        <pt x="530" y="-25" on="1"/>
        <pt x="522" y="-14" on="1"/>
        <pt x="511" y="0" on="0"/>
        <pt x="480" y="0" on="1"/>
        <pt x="20" y="0" on="1"/>
        <pt x="417" y="661" on="1"/>
        <pt x="206" y="661" on="1"/>
        <pt x="153" y="661" on="0"/>
        <pt x="111" y="626" on="0"/>
        <pt x="97" y="572" on="1"/>
        <pt x="91" y="549" on="1"/>
        <pt x="57" y="561" on="1"/>
        <pt x="57" y="739" on="1"/>
        <pt x="73" y="752" on="1"/>
        <pt x="91" y="739" on="1"/>
        <pt x="119" y="718" on="0"/>
      </contour>
    </TTGlyph>
    <TTGlyph name="Zcaron" xMin="20" yMin="-25" xMax="570" yMax="985">
      <contour>
        <pt x="205" y="718" on="1"/>
        <pt x="570" y="718" on="1"/>
        <pt x="175" y="57" on="1"/>
        <pt x="401" y="57" on="1"/>
        <pt x="454" y="57" on="0"/>
        <pt x="496" y="92" on="0"/>
        <pt x="510" y="146" on="1"/>
        <pt x="516" y="169" on="1"/>
        <pt x="550" y="157" on="1"/>
        <pt x="550" y="-14" on="1"/>
        <pt x="530" y="-25" on="1"/>
        <pt x="522" y="-14" on="1"/>
        <pt x="511" y="0" on="0"/>
        <pt x="480" y="0" on="1"/>
        <pt x="20" y="0" on="1"/>
        <pt x="417" y="661" on="1"/>
        <pt x="206" y="661" on="1"/>
        <pt x="153" y="661" on="0"/>
        <pt x="111" y="626" on="0"/>
        <pt x="97" y="572" on="1"/>
        <pt x="91" y="549" on="1"/>
        <pt x="57" y="561" on="1"/>
        <pt x="57" y="739" on="1"/>
        <pt x="73" y="752" on="1"/>
        <pt x="91" y="739" on="1"/>
        <pt x="119" y="718" on="0"/>
      </contour>
      <contour>
        <pt x="327" y="799" on="1"/>
        <pt x="300" y="799" on="1"/>
        <pt x="280" y="811" on="0"/>
        <pt x="208" y="901" on="0"/>
        <pt x="176" y="957" on="1"/>
        <pt x="209" y="985" on="1"/>
        <pt x="313" y="901" on="1"/>
        <pt x="418" y="985" on="1"/>
        <pt x="450" y="957" on="1"/>
        <pt x="419" y="902" on="0"/>
        <pt x="345" y="810" on="0"/>
      </contour>
    </TTGlyph>
    <TTGlyph name="a" xMin="45" yMin="-14" xMax="589" yMax="510">
      <contour>
        <pt x="224" y="-14" on="1"/>
        <pt x="149" y="-14" on="0"/>
        <pt x="45" y="113" on="0"/>
        <pt x="45" y="359" on="0"/>
        <pt x="185" y="510" on="0"/>
        <pt x="304" y="510" on="1"/>
        <pt x="338" y="510" on="0"/>
        <pt x="475" y="487" on="0"/>
        <pt x="504" y="485" on="1"/>
        <pt x="515" y="472" on="1"/>
        <pt x="503" y="454" on="1"/>
        <pt x="490" y="434" on="0"/>
        <pt x="490" y="415" on="1"/>
        <pt x="490" y="88" on="1"/>
        <pt x="490" y="57" on="0"/>
        <pt x="520" y="57" on="1"/>
        <pt x="544" y="57" on="0"/>
        <pt x="570" y="75" on="1"/>
        <pt x="589" y="49" on="1"/>
        <pt x="532" y="-14" on="0"/>
        <pt x="478" y="-14" on="1"/>
        <pt x="437" y="-14" on="0"/>
        <pt x="401" y="36" on="0"/>
        <pt x="401" y="92" on="1"/>
        <pt x="325" y="-14" on="0"/>
      </contour>
      <contour>
        <pt x="230" y="455" on="0"/>
        <pt x="150" y="346" on="0"/>
        <pt x="150" y="153" on="0"/>
        <pt x="215" y="63" on="0"/>
        <pt x="264" y="63" on="1"/>
        <pt x="348" y="63" on="0"/>
        <pt x="401" y="154" on="1"/>
        <pt x="401" y="424" on="1"/>
        <pt x="355" y="455" on="0"/>
        <pt x="303" y="455" on="1"/>
      </contour>
    </TTGlyph>
    <TTGlyph name="aacute" xMin="45" yMin="-14" xMax="589" yMax="760">
      <contour>
        <pt x="224" y="-14" on="1"/>
        <pt x="149" y="-14" on="0"/>
        <pt x="45" y="113" on="0"/>
        <pt x="45" y="359" on="0"/>
        <pt x="185" y="510" on="0"/>
        <pt x="304" y="510" on="1"/>
        <pt x="338" y="510" on="0"/>
        <pt x="475" y="487" on="0"/>
        <pt x="504" y="485" on="1"/>
        <pt x="515" y="472" on="1"/>
        <pt x="503" y="454" on="1"/>
        <pt x="490" y="434" on="0"/>
        <pt x="490" y="415" on="1"/>
        <pt x="490" y="88" on="1"/>
        <pt x="490" y="57" on="0"/>
        <pt x="520" y="57" on="1"/>
        <pt x="544" y="57" on="0"/>
        <pt x="570" y="75" on="1"/>
        <pt x="589" y="49" on="1"/>
        <pt x="532" y="-14" on="0"/>
        <pt x="478" y="-14" on="1"/>
        <pt x="437" y="-14" on="0"/>
        <pt x="401" y="36" on="0"/>
        <pt x="401" y="92" on="1"/>
        <pt x="325" y="-14" on="0"/>
      </contour>
      <contour>
        <pt x="230" y="455" on="0"/>
        <pt x="150" y="346" on="0"/>
        <pt x="150" y="153" on="0"/>
        <pt x="215" y="63" on="0"/>
        <pt x="264" y="63" on="1"/>
        <pt x="348" y="63" on="0"/>
        <pt x="401" y="154" on="1"/>
        <pt x="401" y="424" on="1"/>
        <pt x="355" y="455" on="0"/>
        <pt x="303" y="455" on="1"/>
      </contour>
      <contour>
        <pt x="359" y="760" on="1"/>
        <pt x="401" y="740" on="0"/>
        <pt x="401" y="652" on="0"/>
        <pt x="345" y="625" on="1"/>
        <pt x="232" y="569" on="1"/>
        <pt x="203" y="604" on="1"/>
      </contour>
    </TTGlyph>
    <TTGlyph name="acircumflex" xMin="45" yMin="-14" xMax="589" yMax="755">
      <contour>
        <pt x="224" y="-14" on="1"/>
        <pt x="149" y="-14" on="0"/>
        <pt x="45" y="113" on="0"/>
        <pt x="45" y="359" on="0"/>
        <pt x="185" y="510" on="0"/>
        <pt x="304" y="510" on="1"/>
        <pt x="338" y="510" on="0"/>
        <pt x="475" y="487" on="0"/>
        <pt x="504" y="485" on="1"/>
        <pt x="515" y="472" on="1"/>
        <pt x="503" y="454" on="1"/>
        <pt x="490" y="434" on="0"/>
        <pt x="490" y="415" on="1"/>
        <pt x="490" y="88" on="1"/>
        <pt x="490" y="57" on="0"/>
        <pt x="520" y="57" on="1"/>
        <pt x="544" y="57" on="0"/>
        <pt x="570" y="75" on="1"/>
        <pt x="589" y="49" on="1"/>
        <pt x="532" y="-14" on="0"/>
        <pt x="478" y="-14" on="1"/>
        <pt x="437" y="-14" on="0"/>
        <pt x="401" y="36" on="0"/>
        <pt x="401" y="92" on="1"/>
        <pt x="325" y="-14" on="0"/>
      </contour>
      <contour>
        <pt x="230" y="455" on="0"/>
        <pt x="150" y="346" on="0"/>
        <pt x="150" y="153" on="0"/>
        <pt x="215" y="63" on="0"/>
        <pt x="264" y="63" on="1"/>
        <pt x="348" y="63" on="0"/>
        <pt x="401" y="154" on="1"/>
        <pt x="401" y="424" on="1"/>
        <pt x="355" y="455" on="0"/>
        <pt x="303" y="455" on="1"/>
      </contour>
      <contour>
        <pt x="289" y="755" on="1"/>
        <pt x="316" y="755" on="1"/>
        <pt x="334" y="744" on="0"/>
        <pt x="408" y="652" on="0"/>
        <pt x="439" y="597" on="1"/>
        <pt x="407" y="569" on="1"/>
        <pt x="302" y="652" on="1"/>
        <pt x="198" y="569" on="1"/>
        <pt x="165" y="597" on="1"/>
        <pt x="197" y="653" on="0"/>
        <pt x="269" y="743" on="0"/>
      </contour>
    </TTGlyph>
    <TTGlyph name="acute" xMin="63" yMin="569" xMax="261" yMax="760">
      <contour>
        <pt x="219" y="760" on="1"/>
        <pt x="261" y="740" on="0"/>
        <pt x="261" y="652" on="0"/>
        <pt x="205" y="625" on="1"/>
        <pt x="92" y="569" on="1"/>
        <pt x="63" y="604" on="1"/>
      </contour>
    </TTGlyph>
    <TTGlyph name="acute.case" xMin="39" yMin="790" xMax="237" yMax="981">
      <contour>
        <pt x="195" y="981" on="1"/>
        <pt x="237" y="961" on="0"/>
        <pt x="237" y="873" on="0"/>
        <pt x="181" y="846" on="1"/>
        <pt x="68" y="790" on="1"/>
        <pt x="39" y="825" on="1"/>
      </contour>
    </TTGlyph>
    <TTGlyph name="acutecomb" xMin="63" yMin="569" xMax="261" yMax="760">
      <contour>
        <pt x="219" y="760" on="1"/>
        <pt x="261" y="740" on="0"/>
        <pt x="261" y="652" on="0"/>
        <pt x="205" y="625" on="1"/>
        <pt x="92" y="569" on="1"/>
        <pt x="63" y="604" on="1"/>
      </contour>
    </TTGlyph>
    <TTGlyph name="adieresis" xMin="45" yMin="-14" xMax="589" yMax="724">
      <contour>
        <pt x="224" y="-14" on="1"/>
        <pt x="149" y="-14" on="0"/>
        <pt x="45" y="113" on="0"/>
        <pt x="45" y="359" on="0"/>
        <pt x="185" y="510" on="0"/>
        <pt x="304" y="510" on="1"/>
        <pt x="338" y="510" on="0"/>
        <pt x="475" y="487" on="0"/>
        <pt x="504" y="485" on="1"/>
        <pt x="515" y="472" on="1"/>
        <pt x="503" y="454" on="1"/>
        <pt x="490" y="434" on="0"/>
        <pt x="490" y="415" on="1"/>
        <pt x="490" y="88" on="1"/>
        <pt x="490" y="57" on="0"/>
        <pt x="520" y="57" on="1"/>
        <pt x="544" y="57" on="0"/>
        <pt x="570" y="75" on="1"/>
        <pt x="589" y="49" on="1"/>
        <pt x="532" y="-14" on="0"/>
        <pt x="478" y="-14" on="1"/>
        <pt x="437" y="-14" on="0"/>
        <pt x="401" y="36" on="0"/>
        <pt x="401" y="92" on="1"/>
        <pt x="325" y="-14" on="0"/>
      </contour>
      <contour>
        <pt x="230" y="455" on="0"/>
        <pt x="150" y="346" on="0"/>
        <pt x="150" y="153" on="0"/>
        <pt x="215" y="63" on="0"/>
        <pt x="264" y="63" on="1"/>
        <pt x="348" y="63" on="0"/>
        <pt x="401" y="154" on="1"/>
        <pt x="401" y="424" on="1"/>
        <pt x="355" y="455" on="0"/>
        <pt x="303" y="455" on="1"/>
      </contour>
      <contour>
        <pt x="145" y="639" on="0"/>
        <pt x="145" y="677" on="0"/>
        <pt x="188" y="724" on="0"/>
        <pt x="225" y="724" on="0"/>
        <pt x="269" y="678" on="0"/>
        <pt x="269" y="639" on="0"/>
        <pt x="225" y="593" on="0"/>
        <pt x="189" y="593" on="0"/>
      </contour>
      <contour>
        <pt x="334" y="639" on="0"/>
        <pt x="334" y="677" on="0"/>
        <pt x="377" y="724" on="0"/>
        <pt x="414" y="724" on="0"/>
        <pt x="458" y="678" on="0"/>
        <pt x="458" y="639" on="0"/>
        <pt x="414" y="593" on="0"/>
        <pt x="378" y="593" on="0"/>
      </contour>
    </TTGlyph>
    <TTGlyph name="ae" xMin="45" yMin="-14" xMax="813" yMax="510">
      <contour>
        <pt x="254" y="510" on="1"/>
        <pt x="373" y="510" on="0"/>
        <pt x="437" y="419" on="1"/>
        <pt x="509" y="510" on="0"/>
        <pt x="640" y="510" on="1"/>
        <pt x="722" y="510" on="0"/>
        <pt x="810" y="424" on="0"/>
        <pt x="810" y="296" on="0"/>
        <pt x="707" y="194" on="0"/>
        <pt x="619" y="194" on="1"/>
        <pt x="587" y="194" on="0"/>
        <pt x="509" y="218" on="0"/>
        <pt x="509" y="241" on="1"/>
        <pt x="509" y="249" on="0"/>
        <pt x="518" y="263" on="0"/>
        <pt x="525" y="263" on="0"/>
        <pt x="564" y="250" on="0"/>
        <pt x="588" y="250" on="1"/>
        <pt x="648" y="250" on="0"/>
        <pt x="715" y="318" on="0"/>
        <pt x="715" y="403" on="0"/>
        <pt x="665" y="460" on="0"/>
        <pt x="620" y="460" on="1"/>
        <pt x="556" y="460" on="0"/>
        <pt x="484" y="347" on="0"/>
        <pt x="484" y="153" on="0"/>
        <pt x="560" y="52" on="0"/>
        <pt x="720" y="52" on="0"/>
        <pt x="778" y="109" on="1"/>
        <pt x="782" y="113" on="0"/>
        <pt x="795" y="113" on="0"/>
        <pt x="813" y="94" on="0"/>
        <pt x="813" y="79" on="0"/>
        <pt x="809" y="75" on="1"/>
        <pt x="732" y="-14" on="0"/>
        <pt x="611" y="-14" on="1"/>
        <pt x="542" y="-14" on="0"/>
        <pt x="438" y="49" on="0"/>
        <pt x="410" y="106" on="1"/>
        <pt x="384" y="49" on="0"/>
        <pt x="284" y="-14" on="0"/>
        <pt x="133" y="-14" on="0"/>
        <pt x="45" y="72" on="0"/>
        <pt x="45" y="201" on="0"/>
        <pt x="148" y="306" on="0"/>
        <pt x="236" y="306" on="1"/>
        <pt x="271" y="306" on="0"/>
        <pt x="356" y="282" on="0"/>
        <pt x="356" y="259" on="1"/>
        <pt x="356" y="251" on="0"/>
        <pt x="347" y="237" on="0"/>
        <pt x="339" y="237" on="0"/>
        <pt x="295" y="250" on="0"/>
        <pt x="267" y="250" on="1"/>
        <pt x="207" y="250" on="0"/>
        <pt x="140" y="180" on="0"/>
        <pt x="140" y="94" on="0"/>
        <pt x="190" y="40" on="0"/>
        <pt x="235" y="40" on="1"/>
        <pt x="304" y="40" on="0"/>
        <pt x="381" y="151" on="0"/>
        <pt x="381" y="343" on="0"/>
        <pt x="305" y="444" on="0"/>
        <pt x="233" y="444" on="1"/>
        <pt x="185" y="444" on="0"/>
        <pt x="118" y="422" on="0"/>
        <pt x="88" y="399" on="0"/>
        <pt x="77" y="399" on="0"/>
        <pt x="59" y="418" on="0"/>
        <pt x="59" y="439" on="0"/>
        <pt x="106" y="477" on="0"/>
        <pt x="201" y="510" on="0"/>
      </contour>
    </TTGlyph>
    <TTGlyph name="agrave" xMin="45" yMin="-14" xMax="589" yMax="760">
      <contour>
        <pt x="224" y="-14" on="1"/>
        <pt x="149" y="-14" on="0"/>
        <pt x="45" y="113" on="0"/>
        <pt x="45" y="359" on="0"/>
        <pt x="185" y="510" on="0"/>
        <pt x="304" y="510" on="1"/>
        <pt x="338" y="510" on="0"/>
        <pt x="475" y="487" on="0"/>
        <pt x="504" y="485" on="1"/>
        <pt x="515" y="472" on="1"/>
        <pt x="503" y="454" on="1"/>
        <pt x="490" y="434" on="0"/>
        <pt x="490" y="415" on="1"/>
        <pt x="490" y="88" on="1"/>
        <pt x="490" y="57" on="0"/>
        <pt x="520" y="57" on="1"/>
        <pt x="544" y="57" on="0"/>
        <pt x="570" y="75" on="1"/>
        <pt x="589" y="49" on="1"/>
        <pt x="532" y="-14" on="0"/>
        <pt x="478" y="-14" on="1"/>
        <pt x="437" y="-14" on="0"/>
        <pt x="401" y="36" on="0"/>
        <pt x="401" y="92" on="1"/>
        <pt x="325" y="-14" on="0"/>
      </contour>
      <contour>
        <pt x="230" y="455" on="0"/>
        <pt x="150" y="346" on="0"/>
        <pt x="150" y="153" on="0"/>
        <pt x="215" y="63" on="0"/>
        <pt x="264" y="63" on="1"/>
        <pt x="348" y="63" on="0"/>
        <pt x="401" y="154" on="1"/>
        <pt x="401" y="424" on="1"/>
        <pt x="355" y="455" on="0"/>
        <pt x="303" y="455" on="1"/>
      </contour>
      <contour>
        <pt x="259" y="625" on="1"/>
        <pt x="203" y="652" on="0"/>
        <pt x="203" y="740" on="0"/>
        <pt x="245" y="760" on="1"/>
        <pt x="401" y="604" on="1"/>
        <pt x="372" y="569" on="1"/>
      </contour>
    </TTGlyph>
    <TTGlyph name="ampersand" xMin="30" yMin="-14" xMax="668" yMax="732">
      <contour>
        <pt x="421" y="258" on="1"/>
        <pt x="383" y="257" on="1"/>
        <pt x="341" y="253" on="0"/>
        <pt x="289" y="227" on="0"/>
        <pt x="269" y="205" on="0"/>
        <pt x="258" y="205" on="0"/>
        <pt x="244" y="226" on="0"/>
        <pt x="244" y="237" on="1"/>
        <pt x="244" y="288" on="0"/>
        <pt x="328" y="295" on="1"/>
        <pt x="450" y="305" on="0"/>
        <pt x="523" y="314" on="0"/>
        <pt x="571" y="353" on="0"/>
        <pt x="571" y="415" on="0"/>
        <pt x="544" y="456" on="0"/>
        <pt x="518" y="478" on="0"/>
        <pt x="518" y="482" on="1"/>
        <pt x="518" y="497" on="0"/>
        <pt x="606" y="497" on="0"/>
        <pt x="668" y="440" on="0"/>
        <pt x="668" y="394" on="1"/>
        <pt x="668" y="278" on="0"/>
        <pt x="470" y="262" on="1"/>
        <pt x="518" y="219" on="0"/>
        <pt x="518" y="90" on="0"/>
        <pt x="404" y="-14" on="0"/>
        <pt x="168" y="-14" on="0"/>
        <pt x="30" y="94" on="0"/>
        <pt x="30" y="192" on="1"/>
        <pt x="30" y="260" on="0"/>
        <pt x="124" y="363" on="0"/>
        <pt x="212" y="386" on="1"/>
        <pt x="70" y="421" on="0"/>
        <pt x="70" y="552" on="1"/>
        <pt x="70" y="625" on="0"/>
        <pt x="200" y="732" on="0"/>
        <pt x="317" y="732" on="1"/>
        <pt x="388" y="732" on="0"/>
        <pt x="485" y="664" on="0"/>
        <pt x="485" y="612" on="1"/>
        <pt x="485" y="573" on="0"/>
        <pt x="438" y="525" on="0"/>
        <pt x="398" y="525" on="1"/>
        <pt x="377" y="525" on="0"/>
        <pt x="377" y="535" on="1"/>
        <pt x="377" y="537" on="0"/>
        <pt x="382" y="545" on="1"/>
        <pt x="398" y="568" on="0"/>
        <pt x="398" y="640" on="0"/>
        <pt x="349" y="686" on="0"/>
        <pt x="247" y="686" on="0"/>
        <pt x="180" y="610" on="0"/>
        <pt x="180" y="491" on="0"/>
        <pt x="250" y="418" on="0"/>
        <pt x="302" y="418" on="1"/>
        <pt x="308" y="418" on="0"/>
        <pt x="316" y="404" on="0"/>
        <pt x="316" y="396" on="1"/>
        <pt x="316" y="376" on="0"/>
        <pt x="303" y="376" on="1"/>
        <pt x="224" y="356" on="0"/>
        <pt x="144" y="255" on="0"/>
        <pt x="144" y="132" on="0"/>
        <pt x="224" y="39" on="0"/>
        <pt x="359" y="39" on="0"/>
        <pt x="445" y="111" on="0"/>
        <pt x="445" y="225" on="0"/>
      </contour>
    </TTGlyph>
    <TTGlyph name="apple" xMin="90" yMin="-103" xMax="741" yMax="547">
      <contour>
        <pt x="530" y="-80" on="1"/>
        <pt x="509" y="-79" on="1"/>
        <pt x="499" y="-79" on="0"/>
        <pt x="465" y="-101" on="0"/>
        <pt x="457" y="-101" on="1"/>
        <pt x="416" y="-92" on="1"/>
        <pt x="408" y="-92" on="0"/>
        <pt x="381" y="-103" on="0"/>
        <pt x="365" y="-103" on="0"/>
        <pt x="336" y="-80" on="0"/>
        <pt x="325" y="-80" on="1"/>
        <pt x="303" y="-82" on="1"/>
        <pt x="289" y="-82" on="0"/>
        <pt x="259" y="-51" on="0"/>
        <pt x="247" y="-44" on="0"/>
        <pt x="223" y="-42" on="0"/>
        <pt x="207" y="-33" on="0"/>
        <pt x="194" y="0" on="0"/>
        <pt x="185" y="7" on="0"/>
        <pt x="159" y="17" on="0"/>
        <pt x="149" y="33" on="0"/>
        <pt x="145" y="59" on="0"/>
        <pt x="138" y="70" on="0"/>
        <pt x="130" y="77" on="1"/>
        <pt x="110" y="93" on="0"/>
        <pt x="110" y="112" on="1"/>
        <pt x="112" y="134" on="1"/>
        <pt x="112" y="142" on="0"/>
        <pt x="90" y="174" on="0"/>
        <pt x="90" y="190" on="0"/>
        <pt x="101" y="216" on="0"/>
        <pt x="101" y="231" on="0"/>
        <pt x="90" y="254" on="0"/>
        <pt x="90" y="271" on="0"/>
        <pt x="112" y="308" on="0"/>
        <pt x="112" y="316" on="1"/>
        <pt x="112" y="338" on="1"/>
        <pt x="112" y="351" on="0"/>
        <pt x="141" y="378" on="0"/>
        <pt x="146" y="387" on="0"/>
        <pt x="150" y="415" on="0"/>
        <pt x="157" y="427" on="0"/>
        <pt x="185" y="438" on="0"/>
        <pt x="194" y="446" on="0"/>
        <pt x="207" y="474" on="0"/>
        <pt x="211" y="479" on="1"/>
        <pt x="218" y="485" on="0"/>
        <pt x="251" y="491" on="0"/>
        <pt x="262" y="497" on="0"/>
        <pt x="288" y="527" on="0"/>
        <pt x="301" y="528" on="1"/>
        <pt x="325" y="526" on="1"/>
        <pt x="336" y="526" on="0"/>
        <pt x="365" y="547" on="0"/>
        <pt x="374" y="547" on="1"/>
        <pt x="414" y="536" on="1"/>
        <pt x="454" y="547" on="1"/>
        <pt x="466" y="547" on="0"/>
        <pt x="495" y="525" on="0"/>
        <pt x="506" y="525" on="1"/>
        <pt x="531" y="527" on="1"/>
        <pt x="545" y="527" on="0"/>
        <pt x="569" y="498" on="0"/>
        <pt x="580" y="492" on="0"/>
        <pt x="608" y="486" on="0"/>
        <pt x="621" y="477" on="0"/>
        <pt x="630" y="451" on="0"/>
        <pt x="639" y="443" on="0"/>
        <pt x="675" y="424" on="0"/>
        <pt x="684" y="409" on="0"/>
        <pt x="685" y="380" on="0"/>
        <pt x="690" y="372" on="0"/>
        <pt x="720" y="347" on="0"/>
        <pt x="720" y="332" on="1"/>
        <pt x="719" y="310" on="1"/>
        <pt x="719" y="298" on="0"/>
        <pt x="741" y="264" on="0"/>
        <pt x="741" y="248" on="0"/>
        <pt x="731" y="225" on="0"/>
        <pt x="731" y="220" on="1"/>
        <pt x="741" y="180" on="1"/>
        <pt x="740" y="172" on="0"/>
        <pt x="718" y="149" on="0"/>
        <pt x="718" y="137" on="1"/>
        <pt x="720" y="108" on="1"/>
        <pt x="720" y="93" on="0"/>
        <pt x="691" y="70" on="0"/>
        <pt x="686" y="62" on="0"/>
        <pt x="679" y="27" on="0"/>
        <pt x="669" y="16" on="0"/>
        <pt x="646" y="5" on="0"/>
        <pt x="637" y="-4" on="0"/>
        <pt x="621" y="-34" on="0"/>
        <pt x="609" y="-42" on="0"/>
        <pt x="577" y="-51" on="0"/>
        <pt x="568" y="-56" on="0"/>
        <pt x="544" y="-80" on="0"/>
      </contour>
      <contour>
        <pt x="416" y="-5" on="1"/>
        <pt x="445" y="-12" on="1"/>
        <pt x="451" y="-12" on="0"/>
        <pt x="462" y="-5" on="1"/>
        <pt x="475" y="4" on="0"/>
        <pt x="485" y="4" on="1"/>
        <pt x="499" y="3" on="1"/>
        <pt x="509" y="3" on="0"/>
        <pt x="525" y="21" on="0"/>
        <pt x="532" y="24" on="0"/>
        <pt x="556" y="31" on="0"/>
        <pt x="565" y="37" on="0"/>
        <pt x="576" y="58" on="0"/>
        <pt x="583" y="64" on="0"/>
        <pt x="600" y="72" on="0"/>
        <pt x="606" y="81" on="0"/>
        <pt x="612" y="105" on="0"/>
        <pt x="616" y="112" on="0"/>
        <pt x="636" y="129" on="0"/>
        <pt x="636" y="141" on="1"/>
        <pt x="635" y="159" on="1"/>
        <pt x="635" y="168" on="0"/>
        <pt x="651" y="187" on="0"/>
        <pt x="652" y="192" on="1"/>
        <pt x="644" y="220" on="1"/>
        <pt x="652" y="246" on="1"/>
        <pt x="652" y="253" on="0"/>
        <pt x="635" y="278" on="0"/>
        <pt x="635" y="286" on="1"/>
        <pt x="636" y="301" on="1"/>
        <pt x="636" y="312" on="0"/>
        <pt x="615" y="330" on="0"/>
        <pt x="611" y="338" on="0"/>
        <pt x="610" y="359" on="0"/>
        <pt x="604" y="368" on="0"/>
        <pt x="579" y="381" on="0"/>
        <pt x="571" y="388" on="0"/>
        <pt x="565" y="407" on="0"/>
        <pt x="555" y="414" on="0"/>
        <pt x="535" y="417" on="0"/>
        <pt x="527" y="422" on="0"/>
        <pt x="509" y="444" on="0"/>
        <pt x="499" y="444" on="1"/>
        <pt x="481" y="442" on="1"/>
        <pt x="472" y="442" on="0"/>
        <pt x="454" y="458" on="0"/>
        <pt x="445" y="458" on="1"/>
        <pt x="415" y="450" on="1"/>
        <pt x="386" y="458" on="1"/>
        <pt x="379" y="458" on="0"/>
        <pt x="357" y="443" on="0"/>
        <pt x="348" y="443" on="1"/>
        <pt x="333" y="444" on="1"/>
        <pt x="323" y="444" on="0"/>
        <pt x="304" y="421" on="0"/>
        <pt x="297" y="417" on="0"/>
        <pt x="272" y="413" on="0"/>
        <pt x="264" y="405" on="0"/>
        <pt x="254" y="385" on="0"/>
        <pt x="248" y="378" on="0"/>
        <pt x="228" y="370" on="0"/>
        <pt x="222" y="362" on="0"/>
        <pt x="220" y="342" on="0"/>
        <pt x="217" y="336" on="0"/>
        <pt x="194" y="316" on="0"/>
        <pt x="194" y="306" on="1"/>
        <pt x="195" y="292" on="1"/>
        <pt x="195" y="284" on="0"/>
        <pt x="180" y="258" on="0"/>
        <pt x="180" y="250" on="1"/>
        <pt x="187" y="223" on="1"/>
        <pt x="180" y="193" on="1"/>
        <pt x="180" y="186" on="0"/>
        <pt x="195" y="164" on="0"/>
        <pt x="195" y="157" on="1"/>
        <pt x="193" y="142" on="1"/>
        <pt x="193" y="132" on="0"/>
        <pt x="204" y="122" on="1"/>
        <pt x="216" y="111" on="1"/>
        <pt x="220" y="105" on="0"/>
        <pt x="223" y="85" on="0"/>
        <pt x="229" y="73" on="0"/>
        <pt x="248" y="67" on="0"/>
        <pt x="255" y="61" on="0"/>
        <pt x="265" y="37" on="0"/>
        <pt x="276" y="30" on="0"/>
        <pt x="293" y="29" on="0"/>
        <pt x="303" y="24" on="0"/>
        <pt x="324" y="2" on="0"/>
        <pt x="334" y="2" on="1"/>
        <pt x="347" y="3" on="1"/>
        <pt x="356" y="3" on="0"/>
        <pt x="378" y="-13" on="0"/>
        <pt x="383" y="-14" on="1"/>
      </contour>
      <contour>
        <pt x="263" y="286" on="0"/>
        <pt x="352" y="375" on="0"/>
        <pt x="479" y="375" on="0"/>
        <pt x="569" y="286" on="0"/>
        <pt x="569" y="159" on="0"/>
        <pt x="479" y="69" on="0"/>
        <pt x="352" y="69" on="0"/>
        <pt x="263" y="159" on="0"/>
      </contour>
      <contour>
        <pt x="454" y="263" on="1"/>
        <pt x="501" y="263" on="1"/>
        <pt x="501" y="324" on="1"/>
        <pt x="329" y="324" on="1"/>
        <pt x="329" y="263" on="1"/>
        <pt x="378" y="263" on="1"/>
        <pt x="378" y="105" on="1"/>
        <pt x="454" y="105" on="1"/>
      </contour>
    </TTGlyph>
    <TTGlyph name="approxequal" xMin="99" yMin="179" xMax="522" yMax="535">
      <contour>
        <pt x="522" y="427" on="1"/>
        <pt x="475" y="460" on="0"/>
        <pt x="380" y="460" on="0"/>
        <pt x="239" y="395" on="0"/>
        <pt x="138" y="395" on="0"/>
        <pt x="99" y="427" on="1"/>
        <pt x="99" y="503" on="1"/>
        <pt x="145" y="471" on="0"/>
        <pt x="241" y="471" on="0"/>
        <pt x="382" y="535" on="0"/>
        <pt x="484" y="535" on="0"/>
        <pt x="522" y="503" on="1"/>
      </contour>
      <contour>
        <pt x="522" y="211" on="1"/>
        <pt x="475" y="244" on="0"/>
        <pt x="380" y="244" on="0"/>
        <pt x="239" y="179" on="0"/>
        <pt x="138" y="179" on="0"/>
        <pt x="99" y="211" on="1"/>
        <pt x="99" y="287" on="1"/>
        <pt x="145" y="255" on="0"/>
        <pt x="241" y="255" on="0"/>
        <pt x="382" y="319" on="0"/>
        <pt x="484" y="319" on="0"/>
        <pt x="522" y="287" on="1"/>
      </contour>
    </TTGlyph>
    <TTGlyph name="aring" xMin="45" yMin="-14" xMax="589" yMax="765">
      <contour>
        <pt x="224" y="-14" on="1"/>
        <pt x="149" y="-14" on="0"/>
        <pt x="45" y="113" on="0"/>
        <pt x="45" y="359" on="0"/>
        <pt x="185" y="510" on="0"/>
        <pt x="304" y="510" on="1"/>
        <pt x="338" y="510" on="0"/>
        <pt x="475" y="487" on="0"/>
        <pt x="504" y="485" on="1"/>
        <pt x="515" y="472" on="1"/>
        <pt x="503" y="454" on="1"/>
        <pt x="490" y="434" on="0"/>
        <pt x="490" y="415" on="1"/>
        <pt x="490" y="88" on="1"/>
        <pt x="490" y="57" on="0"/>
        <pt x="520" y="57" on="1"/>
        <pt x="544" y="57" on="0"/>
        <pt x="570" y="75" on="1"/>
        <pt x="589" y="49" on="1"/>
        <pt x="532" y="-14" on="0"/>
        <pt x="478" y="-14" on="1"/>
        <pt x="437" y="-14" on="0"/>
        <pt x="401" y="36" on="0"/>
        <pt x="401" y="92" on="1"/>
        <pt x="325" y="-14" on="0"/>
      </contour>
      <contour>
        <pt x="230" y="455" on="0"/>
        <pt x="150" y="346" on="0"/>
        <pt x="150" y="153" on="0"/>
        <pt x="215" y="63" on="0"/>
        <pt x="264" y="63" on="1"/>
        <pt x="348" y="63" on="0"/>
        <pt x="401" y="154" on="1"/>
        <pt x="401" y="424" on="1"/>
        <pt x="355" y="455" on="0"/>
        <pt x="303" y="455" on="1"/>
      </contour>
      <contour>
        <pt x="258" y="683" on="0"/>
        <pt x="258" y="633" on="0"/>
        <pt x="280" y="600" on="0"/>
        <pt x="321" y="600" on="0"/>
        <pt x="344" y="633" on="0"/>
        <pt x="344" y="683" on="0"/>
        <pt x="321" y="716" on="0"/>
        <pt x="280" y="716" on="0"/>
      </contour>
      <contour>
        <pt x="188" y="611" on="0"/>
        <pt x="188" y="705" on="0"/>
        <pt x="246" y="765" on="0"/>
        <pt x="356" y="765" on="0"/>
        <pt x="415" y="705" on="0"/>
        <pt x="415" y="611" on="0"/>
        <pt x="356" y="552" on="0"/>
        <pt x="246" y="552" on="0"/>
      </contour>
    </TTGlyph>
    <TTGlyph name="asciicircum" xMin="96" yMin="398" xMax="524" yMax="718">
      <contour>
        <pt x="267" y="718" on="1"/>
        <pt x="353" y="718" on="1"/>
        <pt x="524" y="398" on="1"/>
        <pt x="443" y="398" on="1"/>
        <pt x="309" y="653" on="1"/>
        <pt x="177" y="398" on="1"/>
        <pt x="96" y="398" on="1"/>
      </contour>
    </TTGlyph>
    <TTGlyph name="asciitilde" xMin="99" yMin="290" xMax="522" yMax="430">
      <contour>
        <pt x="522" y="322" on="1"/>
        <pt x="475" y="355" on="0"/>
        <pt x="380" y="355" on="0"/>
        <pt x="239" y="290" on="0"/>
        <pt x="138" y="290" on="0"/>
        <pt x="99" y="322" on="1"/>
        <pt x="99" y="398" on="1"/>
        <pt x="145" y="366" on="0"/>
        <pt x="241" y="366" on="0"/>
        <pt x="382" y="430" on="0"/>
        <pt x="484" y="430" on="0"/>
        <pt x="522" y="398" on="1"/>
      </contour>
    </TTGlyph>
    <TTGlyph name="asterisk" xMin="70" yMin="411" xMax="504" yMax="830">
      <contour>
        <pt x="267" y="633" on="1"/>
        <pt x="242" y="772" on="0"/>
        <pt x="236" y="800" on="1"/>
        <pt x="254" y="830" on="0"/>
        <pt x="320" y="830" on="0"/>
        <pt x="338" y="800" on="1"/>
        <pt x="329" y="756" on="0"/>
        <pt x="309" y="644" on="0"/>
        <pt x="307" y="633" on="1"/>
        <pt x="433" y="700" on="0"/>
        <pt x="457" y="713" on="1"/>
        <pt x="504" y="702" on="0"/>
        <pt x="504" y="657" on="1"/>
        <pt x="504" y="635" on="0"/>
        <pt x="489" y="617" on="1"/>
        <pt x="433" y="611" on="0"/>
        <pt x="329" y="595" on="0"/>
        <pt x="319" y="594" on="1"/>
        <pt x="346" y="567" on="0"/>
        <pt x="442" y="477" on="1"/>
        <pt x="442" y="448" on="0"/>
        <pt x="410" y="411" on="0"/>
        <pt x="373" y="411" on="0"/>
        <pt x="361" y="417" on="1"/>
        <pt x="344" y="454" on="0"/>
        <pt x="294" y="555" on="0"/>
        <pt x="287" y="571" on="1"/>
        <pt x="245" y="486" on="0"/>
        <pt x="213" y="418" on="1"/>
        <pt x="199" y="412" on="0"/>
        <pt x="187" y="412" on="1"/>
        <pt x="160" y="412" on="0"/>
        <pt x="131" y="451" on="0"/>
        <pt x="131" y="477" on="1"/>
        <pt x="164" y="507" on="0"/>
        <pt x="246" y="587" on="0"/>
        <pt x="254" y="594" on="1"/>
        <pt x="243" y="596" on="0"/>
        <pt x="185" y="604" on="0"/>
        <pt x="120" y="613" on="0"/>
        <pt x="86" y="617" on="1"/>
        <pt x="70" y="634" on="0"/>
        <pt x="70" y="677" on="0"/>
        <pt x="96" y="709" on="0"/>
        <pt x="117" y="714" on="1"/>
        <pt x="157" y="691" on="0"/>
        <pt x="212" y="662" on="1"/>
      </contour>
    </TTGlyph>
    <TTGlyph name="at" xMin="55" yMin="-110" xMax="837" yMax="675">
      <contour>
        <pt x="452" y="452" on="1"/>
        <pt x="395" y="452" on="0"/>
        <pt x="331" y="348" on="0"/>
        <pt x="331" y="230" on="0"/>
        <pt x="375" y="167" on="0"/>
        <pt x="408" y="167" on="1"/>
        <pt x="456" y="167" on="0"/>
        <pt x="499" y="229" on="1"/>
        <pt x="516" y="429" on="1"/>
        <pt x="486" y="452" on="0"/>
      </contour>
      <contour>
        <pt x="837" y="315" on="1"/>
        <pt x="837" y="250" on="0"/>
        <pt x="791" y="126" on="0"/>
        <pt x="689" y="36" on="0"/>
        <pt x="567" y="36" on="0"/>
        <pt x="500" y="105" on="0"/>
        <pt x="500" y="168" on="1"/>
        <pt x="435" y="91" on="0"/>
        <pt x="357" y="91" on="1"/>
        <pt x="303" y="91" on="0"/>
        <pt x="233" y="177" on="0"/>
        <pt x="233" y="256" on="1"/>
        <pt x="233" y="372" on="0"/>
        <pt x="355" y="510" on="0"/>
        <pt x="453" y="510" on="1"/>
        <pt x="482" y="510" on="0"/>
        <pt x="606" y="491" on="0"/>
        <pt x="619" y="490" on="1"/>
        <pt x="627" y="478" on="1"/>
        <pt x="618" y="462" on="1"/>
        <pt x="607" y="447" on="0"/>
        <pt x="606" y="433" on="1"/>
        <pt x="584" y="182" on="0"/>
        <pt x="584" y="131" on="0"/>
        <pt x="614" y="88" on="0"/>
        <pt x="636" y="88" on="1"/>
        <pt x="672" y="88" on="0"/>
        <pt x="740" y="210" on="0"/>
        <pt x="740" y="318" on="1"/>
        <pt x="740" y="450" on="0"/>
        <pt x="598" y="618" on="0"/>
        <pt x="474" y="618" on="1"/>
        <pt x="333" y="618" on="0"/>
        <pt x="151" y="404" on="0"/>
        <pt x="151" y="248" on="1"/>
        <pt x="151" y="115" on="0"/>
        <pt x="294" y="-53" on="0"/>
        <pt x="419" y="-53" on="1"/>
        <pt x="525" y="-53" on="0"/>
        <pt x="599" y="-8" on="1"/>
        <pt x="623" y="-50" on="1"/>
        <pt x="523" y="-110" on="0"/>
        <pt x="414" y="-110" on="1"/>
        <pt x="253" y="-110" on="0"/>
        <pt x="55" y="96" on="0"/>
        <pt x="55" y="250" on="1"/>
        <pt x="55" y="424" on="0"/>
        <pt x="302" y="675" on="0"/>
        <pt x="479" y="675" on="1"/>
        <pt x="639" y="675" on="0"/>
        <pt x="837" y="469" on="0"/>
      </contour>
    </TTGlyph>
    <TTGlyph name="atilde" xMin="45" yMin="-14" xMax="589" yMax="723">
      <contour>
        <pt x="224" y="-14" on="1"/>
        <pt x="149" y="-14" on="0"/>
        <pt x="45" y="113" on="0"/>
        <pt x="45" y="359" on="0"/>
        <pt x="185" y="510" on="0"/>
        <pt x="304" y="510" on="1"/>
        <pt x="338" y="510" on="0"/>
        <pt x="475" y="487" on="0"/>
        <pt x="504" y="485" on="1"/>
        <pt x="515" y="472" on="1"/>
        <pt x="503" y="454" on="1"/>
        <pt x="490" y="434" on="0"/>
        <pt x="490" y="415" on="1"/>
        <pt x="490" y="88" on="1"/>
        <pt x="490" y="57" on="0"/>
        <pt x="520" y="57" on="1"/>
        <pt x="544" y="57" on="0"/>
        <pt x="570" y="75" on="1"/>
        <pt x="589" y="49" on="1"/>
        <pt x="532" y="-14" on="0"/>
        <pt x="478" y="-14" on="1"/>
        <pt x="437" y="-14" on="0"/>
        <pt x="401" y="36" on="0"/>
        <pt x="401" y="92" on="1"/>
        <pt x="325" y="-14" on="0"/>
      </contour>
      <contour>
        <pt x="230" y="455" on="0"/>
        <pt x="150" y="346" on="0"/>
        <pt x="150" y="153" on="0"/>
        <pt x="215" y="63" on="0"/>
        <pt x="264" y="63" on="1"/>
        <pt x="348" y="63" on="0"/>
        <pt x="401" y="154" on="1"/>
        <pt x="401" y="424" on="1"/>
        <pt x="355" y="455" on="0"/>
        <pt x="303" y="455" on="1"/>
      </contour>
      <contour>
        <pt x="336" y="595" on="1"/>
        <pt x="312" y="595" on="0"/>
        <pt x="255" y="630" on="0"/>
        <pt x="241" y="630" on="1"/>
        <pt x="213" y="630" on="0"/>
        <pt x="174" y="591" on="1"/>
        <pt x="139" y="622" on="1"/>
        <pt x="210" y="719" on="0"/>
        <pt x="268" y="719" on="1"/>
        <pt x="291" y="719" on="0"/>
        <pt x="347" y="684" on="0"/>
        <pt x="362" y="684" on="1"/>
        <pt x="390" y="684" on="0"/>
        <pt x="430" y="723" on="1"/>
        <pt x="464" y="692" on="1"/>
        <pt x="395" y="595" on="0"/>
      </contour>
    </TTGlyph>
    <TTGlyph name="b" xMin="25" yMin="-14" xMax="545" yMax="782">
      <contour>
        <pt x="301" y="454" on="1"/>
        <pt x="277" y="454" on="0"/>
        <pt x="238" y="441" on="0"/>
        <pt x="231" y="441" on="0"/>
        <pt x="222" y="455" on="0"/>
        <pt x="222" y="475" on="0"/>
        <pt x="231" y="481" on="1"/>
        <pt x="277" y="510" on="0"/>
        <pt x="332" y="510" on="1"/>
        <pt x="426" y="510" on="0"/>
        <pt x="545" y="375" on="0"/>
        <pt x="545" y="147" on="0"/>
        <pt x="397" y="-14" on="0"/>
        <pt x="161" y="-14" on="0"/>
        <pt x="98" y="49" on="1"/>
        <pt x="98" y="674" on="1"/>
        <pt x="98" y="696" on="0"/>
        <pt x="78" y="696" on="1"/>
        <pt x="34" y="696" on="1"/>
        <pt x="25" y="722" on="1"/>
        <pt x="54" y="748" on="0"/>
        <pt x="128" y="782" on="0"/>
        <pt x="150" y="782" on="1"/>
        <pt x="189" y="782" on="0"/>
        <pt x="189" y="750" on="1"/>
        <pt x="189" y="74" on="1"/>
        <pt x="234" y="42" on="0"/>
        <pt x="361" y="42" on="0"/>
        <pt x="439" y="153" on="0"/>
        <pt x="439" y="340" on="0"/>
        <pt x="362" y="454" on="0"/>
      </contour>
    </TTGlyph>
    <TTGlyph name="backslash" xMin="0" yMin="-63" xMax="371" yMax="781">
      <contour>
        <pt x="371" y="-63" on="1"/>
        <pt x="300" y="-63" on="1"/>
        <pt x="0" y="781" on="1"/>
        <pt x="72" y="781" on="1"/>
      </contour>
    </TTGlyph>
    <TTGlyph name="bar" xMin="126" yMin="-82" xMax="225" yMax="744">
      <contour>
        <pt x="225" y="-82" on="1"/>
        <pt x="126" y="-82" on="1"/>
        <pt x="126" y="744" on="1"/>
        <pt x="225" y="744" on="1"/>
      </contour>
    </TTGlyph>
    <TTGlyph name="braceleft" xMin="0" yMin="-112" xMax="289" yMax="774">
      <contour>
        <pt x="187" y="160" on="1"/>
        <pt x="187" y="69" on="0"/>
        <pt x="238" y="-55" on="0"/>
        <pt x="289" y="-67" on="1"/>
        <pt x="282" y="-112" on="1"/>
        <pt x="176" y="-99" on="0"/>
        <pt x="76" y="48" on="0"/>
        <pt x="76" y="160" on="1"/>
        <pt x="76" y="238" on="0"/>
        <pt x="43" y="304" on="0"/>
        <pt x="0" y="312" on="1"/>
        <pt x="0" y="350" on="1"/>
        <pt x="43" y="358" on="0"/>
        <pt x="76" y="424" on="0"/>
        <pt x="76" y="502" on="1"/>
        <pt x="76" y="614" on="0"/>
        <pt x="176" y="761" on="0"/>
        <pt x="282" y="774" on="1"/>
        <pt x="289" y="729" on="1"/>
        <pt x="238" y="717" on="0"/>
        <pt x="187" y="593" on="0"/>
        <pt x="187" y="502" on="1"/>
        <pt x="187" y="355" on="0"/>
        <pt x="77" y="331" on="1"/>
        <pt x="187" y="309" on="0"/>
      </contour>
    </TTGlyph>
    <TTGlyph name="braceright" xMin="27" yMin="-112" xMax="316" yMax="774">
      <contour>
        <pt x="129" y="160" on="1"/>
        <pt x="129" y="309" on="0"/>
        <pt x="239" y="331" on="1"/>
        <pt x="129" y="355" on="0"/>
        <pt x="129" y="502" on="1"/>
        <pt x="129" y="593" on="0"/>
        <pt x="78" y="717" on="0"/>
        <pt x="27" y="729" on="1"/>
        <pt x="34" y="774" on="1"/>
        <pt x="140" y="761" on="0"/>
        <pt x="240" y="614" on="0"/>
        <pt x="240" y="502" on="1"/>
        <pt x="240" y="424" on="0"/>
        <pt x="273" y="358" on="0"/>
        <pt x="316" y="350" on="1"/>
        <pt x="316" y="312" on="1"/>
        <pt x="273" y="304" on="0"/>
        <pt x="240" y="238" on="0"/>
        <pt x="240" y="160" on="1"/>
        <pt x="240" y="48" on="0"/>
        <pt x="140" y="-99" on="0"/>
        <pt x="34" y="-112" on="1"/>
        <pt x="27" y="-67" on="1"/>
        <pt x="78" y="-55" on="0"/>
        <pt x="129" y="69" on="0"/>
      </contour>
    </TTGlyph>
    <TTGlyph name="bracketleft" xMin="126" yMin="-112" xMax="360" yMax="774">
      <contour>
        <pt x="126" y="-112" on="1"/>
        <pt x="126" y="774" on="1"/>
        <pt x="360" y="774" on="1"/>
        <pt x="360" y="726" on="1"/>
        <pt x="280" y="714" on="1"/>
        <pt x="250" y="709" on="0"/>
        <pt x="225" y="687" on="0"/>
        <pt x="225" y="661" on="1"/>
        <pt x="225" y="1" on="1"/>
        <pt x="225" y="-25" on="0"/>
        <pt x="250" y="-47" on="0"/>
        <pt x="280" y="-52" on="1"/>
        <pt x="360" y="-64" on="1"/>
        <pt x="360" y="-112" on="1"/>
      </contour>
    </TTGlyph>
    <TTGlyph name="bracketright" xMin="27" yMin="-112" xMax="261" yMax="774">
      <contour>
        <pt x="261" y="774" on="1"/>
        <pt x="261" y="-112" on="1"/>
        <pt x="27" y="-112" on="1"/>
        <pt x="27" y="-64" on="1"/>
        <pt x="107" y="-52" on="1"/>
        <pt x="137" y="-47" on="0"/>
        <pt x="162" y="-25" on="0"/>
        <pt x="162" y="1" on="1"/>
        <pt x="162" y="661" on="1"/>
        <pt x="162" y="687" on="0"/>
        <pt x="137" y="709" on="0"/>
        <pt x="107" y="714" on="1"/>
        <pt x="27" y="726" on="1"/>
        <pt x="27" y="774" on="1"/>
      </contour>
    </TTGlyph>
    <TTGlyph name="breve" xMin="47" yMin="580" xMax="296" yMax="720">
      <contour>
        <pt x="296" y="652" on="0"/>
        <pt x="227" y="580" on="0"/>
        <pt x="116" y="580" on="0"/>
        <pt x="47" y="652" on="0"/>
        <pt x="47" y="720" on="1"/>
        <pt x="102" y="720" on="1"/>
        <pt x="102" y="691" on="0"/>
        <pt x="142" y="656" on="0"/>
        <pt x="201" y="656" on="0"/>
        <pt x="241" y="691" on="0"/>
        <pt x="241" y="720" on="1"/>
        <pt x="296" y="720" on="1"/>
      </contour>
    </TTGlyph>
    <TTGlyph name="breve.case" xMin="13" yMin="801" xMax="262" yMax="941">
      <contour>
        <pt x="262" y="873" on="0"/>
        <pt x="193" y="801" on="0"/>
        <pt x="82" y="801" on="0"/>
        <pt x="13" y="873" on="0"/>
        <pt x="13" y="941" on="1"/>
        <pt x="68" y="941" on="1"/>
        <pt x="68" y="912" on="0"/>
        <pt x="108" y="877" on="0"/>
        <pt x="167" y="877" on="0"/>
        <pt x="207" y="912" on="0"/>
        <pt x="207" y="941" on="1"/>
        <pt x="262" y="941" on="1"/>
      </contour>
    </TTGlyph>
    <TTGlyph name="brokenbar" xMin="126" yMin="-82" xMax="225" yMax="744">
      <contour>
        <pt x="225" y="453" on="1"/>
        <pt x="126" y="453" on="1"/>
        <pt x="126" y="744" on="1"/>
        <pt x="225" y="744" on="1"/>
      </contour>
      <contour>
        <pt x="225" y="-82" on="1"/>
        <pt x="126" y="-82" on="1"/>
        <pt x="126" y="210" on="1"/>
        <pt x="225" y="210" on="1"/>
      </contour>
    </TTGlyph>
    <TTGlyph name="bullet" xMin="49" yMin="215" xMax="216" yMax="392">
      <contour>
        <pt x="49" y="277" on="0"/>
        <pt x="49" y="329" on="0"/>
        <pt x="106" y="392" on="0"/>
        <pt x="156" y="392" on="0"/>
        <pt x="216" y="329" on="0"/>
        <pt x="216" y="277" on="0"/>
        <pt x="156" y="215" on="0"/>
        <pt x="107" y="215" on="0"/>
      </contour>
    </TTGlyph>
    <TTGlyph name="c" xMin="45" yMin="-14" xMax="469" yMax="510">
      <contour>
        <pt x="435" y="103" on="1"/>
        <pt x="438" y="106" on="0"/>
        <pt x="452" y="106" on="0"/>
        <pt x="469" y="88" on="0"/>
        <pt x="469" y="72" on="0"/>
        <pt x="466" y="69" on="1"/>
        <pt x="394" y="-14" on="0"/>
        <pt x="181" y="-14" on="0"/>
        <pt x="45" y="134" on="0"/>
        <pt x="45" y="367" on="0"/>
        <pt x="177" y="510" on="0"/>
        <pt x="287" y="510" on="1"/>
        <pt x="364" y="510" on="0"/>
        <pt x="463" y="435" on="0"/>
        <pt x="463" y="376" on="1"/>
        <pt x="463" y="333" on="0"/>
        <pt x="408" y="278" on="0"/>
        <pt x="365" y="278" on="1"/>
        <pt x="346" y="278" on="0"/>
        <pt x="346" y="289" on="1"/>
        <pt x="346" y="291" on="0"/>
        <pt x="352" y="300" on="1"/>
        <pt x="370" y="329" on="0"/>
        <pt x="370" y="411" on="0"/>
        <pt x="319" y="458" on="0"/>
        <pt x="276" y="458" on="1"/>
        <pt x="219" y="458" on="0"/>
        <pt x="149" y="346" on="0"/>
        <pt x="149" y="162" on="0"/>
        <pt x="232" y="53" on="0"/>
        <pt x="375" y="53" on="0"/>
      </contour>
    </TTGlyph>
    <TTGlyph name="caron" xMin="50" yMin="578" xMax="324" yMax="764">
      <contour>
        <pt x="201" y="578" on="1"/>
        <pt x="174" y="578" on="1"/>
        <pt x="154" y="590" on="0"/>
        <pt x="82" y="680" on="0"/>
        <pt x="50" y="736" on="1"/>
        <pt x="83" y="764" on="1"/>
        <pt x="187" y="680" on="1"/>
        <pt x="292" y="764" on="1"/>
        <pt x="324" y="736" on="1"/>
        <pt x="293" y="681" on="0"/>
        <pt x="219" y="589" on="0"/>
      </contour>
    </TTGlyph>
    <TTGlyph name="caron.case" xMin="1" yMin="799" xMax="275" yMax="985">
      <contour>
        <pt x="152" y="799" on="1"/>
        <pt x="125" y="799" on="1"/>
        <pt x="105" y="811" on="0"/>
        <pt x="33" y="901" on="0"/>
        <pt x="1" y="957" on="1"/>
        <pt x="34" y="985" on="1"/>
        <pt x="138" y="901" on="1"/>
        <pt x="243" y="985" on="1"/>
        <pt x="275" y="957" on="1"/>
        <pt x="244" y="902" on="0"/>
        <pt x="170" y="810" on="0"/>
      </contour>
    </TTGlyph>
    <TTGlyph name="caron.salt" xMin="50" yMin="578" xMax="324" yMax="764">
      <contour>
        <pt x="201" y="578" on="1"/>
        <pt x="174" y="578" on="1"/>
        <pt x="154" y="590" on="0"/>
        <pt x="82" y="680" on="0"/>
        <pt x="50" y="736" on="1"/>
        <pt x="83" y="764" on="1"/>
        <pt x="187" y="680" on="1"/>
        <pt x="292" y="764" on="1"/>
        <pt x="324" y="736" on="1"/>
        <pt x="293" y="681" on="0"/>
        <pt x="219" y="589" on="0"/>
      </contour>
    </TTGlyph>
    <TTGlyph name="ccedilla" xMin="45" yMin="-295" xMax="469" yMax="510">
      <contour>
        <pt x="190" y="-231" on="0"/>
        <pt x="214" y="-253" on="0"/>
        <pt x="260" y="-253" on="0"/>
        <pt x="294" y="-208" on="0"/>
        <pt x="294" y="-147" on="0"/>
        <pt x="259" y="-103" on="0"/>
        <pt x="200" y="-103" on="0"/>
        <pt x="172" y="-120" on="1"/>
        <pt x="152" y="-102" on="1"/>
        <pt x="225" y="-7" on="1"/>
        <pt x="144" y="13" on="0"/>
        <pt x="45" y="152" on="0"/>
        <pt x="45" y="247" on="1"/>
        <pt x="45" y="367" on="0"/>
        <pt x="177" y="510" on="0"/>
        <pt x="287" y="510" on="1"/>
        <pt x="364" y="510" on="0"/>
        <pt x="463" y="435" on="0"/>
        <pt x="463" y="376" on="1"/>
        <pt x="463" y="333" on="0"/>
        <pt x="408" y="278" on="0"/>
        <pt x="365" y="278" on="1"/>
        <pt x="346" y="278" on="0"/>
        <pt x="346" y="289" on="1"/>
        <pt x="346" y="291" on="0"/>
        <pt x="352" y="300" on="1"/>
        <pt x="370" y="329" on="0"/>
        <pt x="370" y="411" on="0"/>
        <pt x="319" y="458" on="0"/>
        <pt x="276" y="458" on="1"/>
        <pt x="219" y="458" on="0"/>
        <pt x="149" y="346" on="0"/>
        <pt x="149" y="162" on="0"/>
        <pt x="232" y="53" on="0"/>
        <pt x="375" y="53" on="0"/>
        <pt x="435" y="103" on="1"/>
        <pt x="438" y="106" on="0"/>
        <pt x="452" y="106" on="0"/>
        <pt x="469" y="88" on="0"/>
        <pt x="469" y="72" on="0"/>
        <pt x="466" y="69" on="1"/>
        <pt x="394" y="-14" on="0"/>
        <pt x="286" y="-14" on="1"/>
        <pt x="277" y="-14" on="0"/>
        <pt x="261" y="-12" on="1"/>
        <pt x="217" y="-70" on="1"/>
        <pt x="234" y="-66" on="0"/>
        <pt x="255" y="-66" on="1"/>
        <pt x="303" y="-66" on="0"/>
        <pt x="368" y="-124" on="0"/>
        <pt x="368" y="-227" on="0"/>
        <pt x="290" y="-295" on="0"/>
        <pt x="188" y="-295" on="0"/>
        <pt x="123" y="-254" on="0"/>
        <pt x="123" y="-192" on="0"/>
        <pt x="160" y="-160" on="0"/>
        <pt x="204" y="-160" on="0"/>
        <pt x="204" y="-170" on="1"/>
        <pt x="204" y="-172" on="0"/>
        <pt x="190" y="-196" on="0"/>
      </contour>
    </TTGlyph>
    <TTGlyph name="cedilla" xMin="55" yMin="-295" xMax="300" yMax="51">
      <contour>
        <pt x="122" y="-231" on="0"/>
        <pt x="146" y="-253" on="0"/>
        <pt x="192" y="-253" on="0"/>
        <pt x="226" y="-208" on="0"/>
        <pt x="226" y="-147" on="0"/>
        <pt x="191" y="-103" on="0"/>
        <pt x="132" y="-103" on="0"/>
        <pt x="104" y="-120" on="1"/>
        <pt x="84" y="-102" on="1"/>
        <pt x="202" y="51" on="1"/>
        <pt x="226" y="29" on="1"/>
        <pt x="149" y="-70" on="1"/>
        <pt x="166" y="-66" on="0"/>
        <pt x="187" y="-66" on="1"/>
        <pt x="235" y="-66" on="0"/>
        <pt x="300" y="-124" on="0"/>
        <pt x="300" y="-227" on="0"/>
        <pt x="222" y="-295" on="0"/>
        <pt x="120" y="-295" on="0"/>
        <pt x="55" y="-254" on="0"/>
        <pt x="55" y="-192" on="0"/>
        <pt x="92" y="-160" on="0"/>
        <pt x="136" y="-160" on="0"/>
        <pt x="136" y="-170" on="1"/>
        <pt x="136" y="-172" on="0"/>
        <pt x="122" y="-196" on="0"/>
      </contour>
    </TTGlyph>
    <TTGlyph name="cent" xMin="43" yMin="-83" xMax="461" yMax="802">
      <contour>
        <pt x="147" y="271" on="0"/>
        <pt x="225" y="165" on="0"/>
        <pt x="361" y="165" on="0"/>
        <pt x="421" y="215" on="1"/>
        <pt x="424" y="218" on="0"/>
        <pt x="438" y="218" on="0"/>
        <pt x="455" y="200" on="0"/>
        <pt x="455" y="184" on="0"/>
        <pt x="452" y="181" on="1"/>
        <pt x="391" y="111" on="0"/>
        <pt x="301" y="100" on="1"/>
        <pt x="301" y="-59" on="1"/>
        <pt x="284" y="-83" on="0"/>
        <pt x="238" y="-83" on="1"/>
        <pt x="238" y="100" on="1"/>
        <pt x="150" y="113" on="0"/>
        <pt x="43" y="254" on="0"/>
        <pt x="43" y="463" on="0"/>
        <pt x="148" y="602" on="0"/>
        <pt x="238" y="618" on="1"/>
        <pt x="238" y="778" on="1"/>
        <pt x="257" y="802" on="0"/>
        <pt x="301" y="802" on="1"/>
        <pt x="301" y="621" on="1"/>
        <pt x="372" y="617" on="0"/>
        <pt x="461" y="544" on="0"/>
        <pt x="461" y="445" on="0"/>
        <pt x="406" y="390" on="0"/>
        <pt x="363" y="390" on="1"/>
        <pt x="344" y="390" on="0"/>
        <pt x="344" y="401" on="1"/>
        <pt x="344" y="403" on="0"/>
        <pt x="350" y="412" on="1"/>
        <pt x="368" y="441" on="0"/>
        <pt x="368" y="523" on="0"/>
        <pt x="317" y="570" on="0"/>
        <pt x="274" y="570" on="1"/>
        <pt x="217" y="570" on="0"/>
        <pt x="147" y="454" on="0"/>
      </contour>
    </TTGlyph>
    <TTGlyph name="circumflex" xMin="50" yMin="569" xMax="324" yMax="755">
      <contour>
        <pt x="174" y="755" on="1"/>
        <pt x="201" y="755" on="1"/>
        <pt x="219" y="744" on="0"/>
        <pt x="293" y="652" on="0"/>
        <pt x="324" y="597" on="1"/>
        <pt x="292" y="569" on="1"/>
        <pt x="187" y="652" on="1"/>
        <pt x="83" y="569" on="1"/>
        <pt x="50" y="597" on="1"/>
        <pt x="82" y="653" on="0"/>
        <pt x="154" y="743" on="0"/>
      </contour>
    </TTGlyph>
    <TTGlyph name="circumflex.case" xMin="1" yMin="790" xMax="275" yMax="976">
      <contour>
        <pt x="125" y="976" on="1"/>
        <pt x="152" y="976" on="1"/>
        <pt x="170" y="965" on="0"/>
        <pt x="244" y="873" on="0"/>
        <pt x="275" y="818" on="1"/>
        <pt x="243" y="790" on="1"/>
        <pt x="138" y="873" on="1"/>
        <pt x="34" y="790" on="1"/>
        <pt x="1" y="818" on="1"/>
        <pt x="33" y="874" on="0"/>
        <pt x="105" y="964" on="0"/>
      </contour>
    </TTGlyph>
    <TTGlyph name="colon" xMin="33" yMin="-14" xMax="157" yMax="477">
      <contour>
        <pt x="33" y="32" on="0"/>
        <pt x="33" y="70" on="0"/>
        <pt x="76" y="117" on="0"/>
        <pt x="113" y="117" on="0"/>
        <pt x="157" y="71" on="0"/>
        <pt x="157" y="32" on="0"/>
        <pt x="113" y="-14" on="0"/>
        <pt x="77" y="-14" on="0"/>
      </contour>
      <contour>
        <pt x="33" y="392" on="0"/>
        <pt x="33" y="430" on="0"/>
        <pt x="76" y="477" on="0"/>
        <pt x="113" y="477" on="0"/>
        <pt x="157" y="431" on="0"/>
        <pt x="157" y="392" on="0"/>
        <pt x="113" y="346" on="0"/>
        <pt x="77" y="346" on="0"/>
      </contour>
    </TTGlyph>
    <TTGlyph name="comma" xMin="7" yMin="-123" xMax="157" yMax="119">
      <contour>
        <pt x="92" y="119" on="1"/>
        <pt x="157" y="119" on="0"/>
        <pt x="157" y="52" on="1"/>
        <pt x="157" y="24" on="0"/>
        <pt x="116" y="-37" on="0"/>
        <pt x="75" y="-81" on="1"/>
        <pt x="36" y="-123" on="1"/>
        <pt x="7" y="-104" on="1"/>
        <pt x="53" y="-14" on="1"/>
        <pt x="65" y="10" on="0"/>
        <pt x="65" y="47" on="0"/>
        <pt x="42" y="64" on="1"/>
        <pt x="24" y="76" on="1"/>
        <pt x="19" y="100" on="1"/>
        <pt x="36" y="107" on="1"/>
        <pt x="67" y="119" on="0"/>
      </contour>
    </TTGlyph>
    <TTGlyph name="copyright" xMin="100" yMin="209" xMax="678" yMax="787">
      <contour>
        <pt x="469" y="626" on="1"/>
        <pt x="440" y="666" on="0"/>
        <pt x="355" y="666" on="0"/>
        <pt x="330" y="640" on="1"/>
        <pt x="285" y="595" on="0"/>
        <pt x="285" y="501" on="1"/>
        <pt x="285" y="433" on="0"/>
        <pt x="346" y="342" on="0"/>
        <pt x="397" y="342" on="1"/>
        <pt x="463" y="342" on="0"/>
        <pt x="499" y="396" on="1"/>
        <pt x="525" y="373" on="1"/>
        <pt x="476" y="298" on="0"/>
        <pt x="307" y="298" on="0"/>
        <pt x="216" y="412" on="0"/>
        <pt x="216" y="589" on="0"/>
        <pt x="307" y="703" on="0"/>
        <pt x="394" y="703" on="1"/>
        <pt x="443" y="703" on="0"/>
        <pt x="482" y="679" on="1"/>
        <pt x="491" y="697" on="1"/>
        <pt x="516" y="697" on="1"/>
        <pt x="516" y="588" on="1"/>
        <pt x="508" y="574" on="0"/>
        <pt x="482" y="574" on="1"/>
      </contour>
      <contour>
        <pt x="126" y="607" on="0"/>
        <pt x="126" y="389" on="0"/>
        <pt x="280" y="235" on="0"/>
        <pt x="498" y="235" on="0"/>
        <pt x="652" y="389" on="0"/>
        <pt x="652" y="607" on="0"/>
        <pt x="498" y="761" on="0"/>
        <pt x="280" y="761" on="0"/>
      </contour>
      <contour>
        <pt x="100" y="379" on="0"/>
        <pt x="100" y="617" on="0"/>
        <pt x="270" y="787" on="0"/>
        <pt x="508" y="787" on="0"/>
        <pt x="678" y="617" on="0"/>
        <pt x="678" y="379" on="0"/>
        <pt x="508" y="209" on="0"/>
        <pt x="270" y="209" on="0"/>
      </contour>
    </TTGlyph>
    <TTGlyph name="d" xMin="45" yMin="-14" xMax="589" yMax="782">
      <contour>
        <pt x="230" y="455" on="0"/>
        <pt x="150" y="346" on="0"/>
        <pt x="150" y="153" on="0"/>
        <pt x="215" y="63" on="0"/>
        <pt x="264" y="63" on="1"/>
        <pt x="348" y="63" on="0"/>
        <pt x="401" y="154" on="1"/>
        <pt x="401" y="424" on="1"/>
        <pt x="355" y="455" on="0"/>
        <pt x="303" y="455" on="1"/>
      </contour>
      <contour>
        <pt x="490" y="750" on="1"/>
        <pt x="490" y="88" on="1"/>
        <pt x="490" y="57" on="0"/>
        <pt x="520" y="57" on="1"/>
        <pt x="544" y="57" on="0"/>
        <pt x="570" y="75" on="1"/>
        <pt x="589" y="49" on="1"/>
        <pt x="532" y="-14" on="0"/>
        <pt x="478" y="-14" on="1"/>
        <pt x="437" y="-14" on="0"/>
        <pt x="401" y="36" on="0"/>
        <pt x="401" y="92" on="1"/>
        <pt x="325" y="-14" on="0"/>
        <pt x="224" y="-14" on="1"/>
        <pt x="149" y="-14" on="0"/>
        <pt x="45" y="113" on="0"/>
        <pt x="45" y="359" on="0"/>
        <pt x="185" y="510" on="0"/>
        <pt x="304" y="510" on="1"/>
        <pt x="356" y="510" on="0"/>
        <pt x="399" y="497" on="1"/>
        <pt x="399" y="674" on="1"/>
        <pt x="399" y="696" on="0"/>
        <pt x="379" y="696" on="1"/>
        <pt x="335" y="696" on="1"/>
        <pt x="326" y="722" on="1"/>
        <pt x="355" y="748" on="0"/>
        <pt x="430" y="782" on="0"/>
        <pt x="451" y="782" on="1"/>
        <pt x="490" y="782" on="0"/>
      </contour>
    </TTGlyph>
    <TTGlyph name="dagger" xMin="45" yMin="-119" xMax="545" yMax="828">
      <contour>
        <pt x="45" y="568" on="0"/>
        <pt x="45" y="638" on="0"/>
        <pt x="66" y="653" on="1"/>
        <pt x="97" y="648" on="0"/>
        <pt x="139" y="642" on="1"/>
        <pt x="209" y="632" on="1"/>
        <pt x="237" y="628" on="0"/>
        <pt x="254" y="624" on="1"/>
        <pt x="248" y="727" on="0"/>
        <pt x="239" y="795" on="1"/>
        <pt x="258" y="828" on="0"/>
        <pt x="332" y="828" on="0"/>
        <pt x="351" y="795" on="1"/>
        <pt x="343" y="744" on="0"/>
        <pt x="336" y="624" on="1"/>
        <pt x="353" y="628" on="0"/>
        <pt x="381" y="632" on="1"/>
        <pt x="451" y="642" on="1"/>
        <pt x="493" y="648" on="0"/>
        <pt x="524" y="653" on="1"/>
        <pt x="545" y="638" on="0"/>
        <pt x="545" y="568" on="0"/>
        <pt x="524" y="553" on="1"/>
        <pt x="363" y="576" on="0"/>
        <pt x="333" y="583" on="1"/>
        <pt x="328" y="481" on="0"/>
        <pt x="317" y="84" on="0"/>
        <pt x="306" y="-119" on="0"/>
        <pt x="284" y="-119" on="0"/>
        <pt x="273" y="86" on="0"/>
        <pt x="263" y="477" on="0"/>
        <pt x="257" y="583" on="1"/>
        <pt x="233" y="577" on="0"/>
        <pt x="66" y="553" on="1"/>
      </contour>
    </TTGlyph>
    <TTGlyph name="daggerdbl" xMin="45" yMin="-128" xMax="545" yMax="828">
      <contour>
        <pt x="326" y="114" on="1"/>
        <pt x="357" y="123" on="0"/>
        <pt x="524" y="147" on="1"/>
        <pt x="545" y="132" on="0"/>
        <pt x="545" y="62" on="0"/>
        <pt x="524" y="47" on="1"/>
        <pt x="343" y="74" on="0"/>
        <pt x="329" y="78" on="1"/>
        <pt x="338" y="-41" on="0"/>
        <pt x="351" y="-95" on="1"/>
        <pt x="332" y="-128" on="0"/>
        <pt x="258" y="-128" on="0"/>
        <pt x="239" y="-95" on="1"/>
        <pt x="252" y="-33" on="0"/>
        <pt x="261" y="78" on="1"/>
        <pt x="250" y="75" on="0"/>
        <pt x="66" y="47" on="1"/>
        <pt x="45" y="62" on="0"/>
        <pt x="45" y="132" on="0"/>
        <pt x="66" y="147" on="1"/>
        <pt x="94" y="142" on="0"/>
        <pt x="143" y="135" on="1"/>
        <pt x="238" y="122" on="0"/>
        <pt x="263" y="114" on="1"/>
        <pt x="278" y="348" on="1"/>
        <pt x="263" y="585" on="1"/>
        <pt x="242" y="579" on="0"/>
        <pt x="66" y="553" on="1"/>
        <pt x="45" y="568" on="0"/>
        <pt x="45" y="638" on="0"/>
        <pt x="66" y="653" on="1"/>
        <pt x="247" y="626" on="0"/>
        <pt x="261" y="622" on="1"/>
        <pt x="252" y="733" on="0"/>
        <pt x="239" y="795" on="1"/>
        <pt x="258" y="828" on="0"/>
        <pt x="332" y="828" on="0"/>
        <pt x="351" y="795" on="1"/>
        <pt x="336" y="731" on="0"/>
        <pt x="329" y="622" on="1"/>
        <pt x="343" y="626" on="0"/>
        <pt x="524" y="653" on="1"/>
        <pt x="545" y="638" on="0"/>
        <pt x="545" y="568" on="0"/>
        <pt x="524" y="553" on="1"/>
        <pt x="350" y="579" on="0"/>
        <pt x="326" y="585" on="1"/>
        <pt x="311" y="348" on="1"/>
      </contour>
    </TTGlyph>
    <TTGlyph name="degree" xMin="40" yMin="361" xMax="395" yMax="731">
      <contour>
        <pt x="255" y="408" on="0"/>
        <pt x="309" y="484" on="0"/>
        <pt x="309" y="613" on="0"/>
        <pt x="262" y="684" on="0"/>
        <pt x="179" y="684" on="0"/>
        <pt x="125" y="608" on="0"/>
        <pt x="125" y="479" on="0"/>
        <pt x="172" y="408" on="0"/>
      </contour>
      <contour>
        <pt x="136" y="361" on="0"/>
        <pt x="40" y="462" on="0"/>
        <pt x="40" y="631" on="0"/>
        <pt x="135" y="731" on="0"/>
        <pt x="299" y="731" on="0"/>
        <pt x="395" y="631" on="0"/>
        <pt x="395" y="462" on="0"/>
        <pt x="299" y="361" on="0"/>
      </contour>
    </TTGlyph>
    <TTGlyph name="dieresis" xMin="54" yMin="593" xMax="367" yMax="724">
      <contour>
        <pt x="54" y="639" on="0"/>
        <pt x="54" y="677" on="0"/>
        <pt x="97" y="724" on="0"/>
        <pt x="134" y="724" on="0"/>
        <pt x="178" y="678" on="0"/>
        <pt x="178" y="639" on="0"/>
        <pt x="134" y="593" on="0"/>
        <pt x="98" y="593" on="0"/>
      </contour>
      <contour>
        <pt x="243" y="639" on="0"/>
        <pt x="243" y="677" on="0"/>
        <pt x="286" y="724" on="0"/>
        <pt x="323" y="724" on="0"/>
        <pt x="367" y="678" on="0"/>
        <pt x="367" y="639" on="0"/>
        <pt x="323" y="593" on="0"/>
        <pt x="287" y="593" on="0"/>
      </contour>
    </TTGlyph>
    <TTGlyph name="dieresis.case" xMin="-19" yMin="814" xMax="294" yMax="945">
      <contour>
        <pt x="-19" y="860" on="0"/>
        <pt x="-19" y="898" on="0"/>
        <pt x="24" y="945" on="0"/>
        <pt x="61" y="945" on="0"/>
        <pt x="105" y="899" on="0"/>
        <pt x="105" y="860" on="0"/>
        <pt x="61" y="814" on="0"/>
        <pt x="25" y="814" on="0"/>
      </contour>
      <contour>
        <pt x="170" y="860" on="0"/>
        <pt x="170" y="898" on="0"/>
        <pt x="213" y="945" on="0"/>
        <pt x="250" y="945" on="0"/>
        <pt x="294" y="899" on="0"/>
        <pt x="294" y="860" on="0"/>
        <pt x="250" y="814" on="0"/>
        <pt x="214" y="814" on="0"/>
      </contour>
    </TTGlyph>
    <TTGlyph name="divide" xMin="99" yMin="125" xMax="522" yMax="589">
      <contour>
        <pt x="99" y="319" on="1"/>
        <pt x="99" y="395" on="1"/>
        <pt x="522" y="395" on="1"/>
        <pt x="522" y="319" on="1"/>
      </contour>
      <contour>
        <pt x="248" y="504" on="0"/>
        <pt x="248" y="542" on="0"/>
        <pt x="291" y="589" on="0"/>
        <pt x="328" y="589" on="0"/>
        <pt x="372" y="543" on="0"/>
        <pt x="372" y="504" on="0"/>
        <pt x="328" y="458" on="0"/>
        <pt x="292" y="458" on="0"/>
      </contour>
      <contour>
        <pt x="248" y="171" on="0"/>
        <pt x="248" y="209" on="0"/>
        <pt x="291" y="256" on="0"/>
        <pt x="328" y="256" on="0"/>
        <pt x="372" y="210" on="0"/>
        <pt x="372" y="171" on="0"/>
        <pt x="328" y="125" on="0"/>
        <pt x="292" y="125" on="0"/>
      </contour>
    </TTGlyph>
    <TTGlyph name="dollar" xMin="54" yMin="-153" xMax="509" yMax="872">
      <contour>
        <pt x="152" y="117" on="0"/>
        <pt x="231" y="56" on="0"/>
        <pt x="336" y="56" on="0"/>
        <pt x="408" y="117" on="0"/>
        <pt x="408" y="169" on="1"/>
        <pt x="408" y="231" on="0"/>
        <pt x="340" y="270" on="1"/>
        <pt x="310" y="287" on="0"/>
        <pt x="237" y="318" on="0"/>
        <pt x="164" y="356" on="0"/>
        <pt x="104" y="403" on="0"/>
        <pt x="66" y="479" on="0"/>
        <pt x="66" y="529" on="1"/>
        <pt x="66" y="600" on="0"/>
        <pt x="163" y="711" on="0"/>
        <pt x="253" y="717" on="1"/>
        <pt x="253" y="848" on="1"/>
        <pt x="272" y="872" on="0"/>
        <pt x="316" y="872" on="1"/>
        <pt x="316" y="715" on="1"/>
        <pt x="386" y="707" on="0"/>
        <pt x="478" y="637" on="0"/>
        <pt x="478" y="535" on="0"/>
        <pt x="416" y="475" on="0"/>
        <pt x="371" y="475" on="1"/>
        <pt x="371" y="475" on="0"/>
        <pt x="362" y="475" on="1"/>
        <pt x="350" y="475" on="0"/>
        <pt x="350" y="487" on="1"/>
        <pt x="350" y="490" on="0"/>
        <pt x="358" y="500" on="1"/>
        <pt x="380" y="532" on="0"/>
        <pt x="380" y="615" on="0"/>
        <pt x="318" y="662" on="0"/>
        <pt x="221" y="662" on="0"/>
        <pt x="161" y="598" on="0"/>
        <pt x="161" y="499" on="0"/>
        <pt x="233" y="425" on="0"/>
        <pt x="335" y="382" on="0"/>
        <pt x="437" y="337" on="0"/>
        <pt x="509" y="251" on="0"/>
        <pt x="509" y="111" on="0"/>
        <pt x="403" y="9" on="0"/>
        <pt x="316" y="1" on="1"/>
        <pt x="316" y="-129" on="1"/>
        <pt x="299" y="-153" on="0"/>
        <pt x="253" y="-153" on="1"/>
        <pt x="253" y="1" on="1"/>
        <pt x="168" y="8" on="0"/>
        <pt x="54" y="92" on="0"/>
        <pt x="54" y="162" on="1"/>
        <pt x="54" y="209" on="0"/>
        <pt x="115" y="268" on="0"/>
        <pt x="161" y="268" on="1"/>
        <pt x="176" y="268" on="0"/>
        <pt x="182" y="262" on="0"/>
        <pt x="182" y="253" on="0"/>
        <pt x="174" y="242" on="1"/>
        <pt x="152" y="211" on="0"/>
      </contour>
    </TTGlyph>
    <TTGlyph name="dotaccent" xMin="100" yMin="593" xMax="224" yMax="724">
      <contour>
        <pt x="100" y="639" on="0"/>
        <pt x="100" y="677" on="0"/>
        <pt x="143" y="724" on="0"/>
        <pt x="180" y="724" on="0"/>
        <pt x="224" y="678" on="0"/>
        <pt x="224" y="639" on="0"/>
        <pt x="180" y="593" on="0"/>
        <pt x="144" y="593" on="0"/>
      </contour>
    </TTGlyph>
    <TTGlyph name="dotaccent.case" xMin="76" yMin="814" xMax="200" yMax="945">
      <contour>
        <pt x="76" y="860" on="0"/>
        <pt x="76" y="898" on="0"/>
        <pt x="119" y="945" on="0"/>
        <pt x="156" y="945" on="0"/>
        <pt x="200" y="899" on="0"/>
        <pt x="200" y="860" on="0"/>
        <pt x="156" y="814" on="0"/>
        <pt x="120" y="814" on="0"/>
      </contour>
    </TTGlyph>
    <TTGlyph name="dotlessi" xMin="35" yMin="-14" xMax="297" yMax="510">
      <contour>
        <pt x="228" y="54" on="1"/>
        <pt x="252" y="54" on="0"/>
        <pt x="278" y="75" on="1"/>
        <pt x="297" y="49" on="1"/>
        <pt x="240" y="-14" on="0"/>
        <pt x="185" y="-14" on="1"/>
        <pt x="144" y="-14" on="0"/>
        <pt x="108" y="36" on="0"/>
        <pt x="108" y="92" on="1"/>
        <pt x="108" y="402" on="1"/>
        <pt x="108" y="424" on="0"/>
        <pt x="88" y="424" on="1"/>
        <pt x="44" y="424" on="1"/>
        <pt x="35" y="450" on="1"/>
        <pt x="64" y="476" on="0"/>
        <pt x="138" y="510" on="0"/>
        <pt x="160" y="510" on="1"/>
        <pt x="199" y="510" on="0"/>
        <pt x="199" y="478" on="1"/>
        <pt x="198" y="88" on="1"/>
        <pt x="198" y="54" on="0"/>
      </contour>
    </TTGlyph>
    <TTGlyph name="e" xMin="45" yMin="-14" xMax="477" yMax="510">
      <contour>
        <pt x="275" y="-14" on="1"/>
        <pt x="170" y="-14" on="0"/>
        <pt x="45" y="126" on="0"/>
        <pt x="45" y="363" on="0"/>
        <pt x="187" y="510" on="0"/>
        <pt x="304" y="510" on="1"/>
        <pt x="386" y="510" on="0"/>
        <pt x="474" y="424" on="0"/>
        <pt x="474" y="296" on="0"/>
        <pt x="371" y="194" on="0"/>
        <pt x="283" y="194" on="1"/>
        <pt x="251" y="194" on="0"/>
        <pt x="173" y="218" on="0"/>
        <pt x="173" y="241" on="1"/>
        <pt x="173" y="249" on="0"/>
        <pt x="182" y="263" on="0"/>
        <pt x="189" y="263" on="0"/>
        <pt x="228" y="250" on="0"/>
        <pt x="252" y="250" on="1"/>
        <pt x="312" y="250" on="0"/>
        <pt x="379" y="318" on="0"/>
        <pt x="379" y="403" on="0"/>
        <pt x="329" y="460" on="0"/>
        <pt x="284" y="460" on="1"/>
        <pt x="220" y="460" on="0"/>
        <pt x="148" y="347" on="0"/>
        <pt x="148" y="153" on="0"/>
        <pt x="224" y="52" on="0"/>
        <pt x="384" y="52" on="0"/>
        <pt x="442" y="109" on="1"/>
        <pt x="446" y="113" on="0"/>
        <pt x="459" y="113" on="0"/>
        <pt x="477" y="94" on="0"/>
        <pt x="477" y="79" on="0"/>
        <pt x="473" y="75" on="1"/>
        <pt x="396" y="-14" on="0"/>
      </contour>
    </TTGlyph>
    <TTGlyph name="eacute" xMin="45" yMin="-14" xMax="477" yMax="760">
      <contour>
        <pt x="275" y="-14" on="1"/>
        <pt x="170" y="-14" on="0"/>
        <pt x="45" y="126" on="0"/>
        <pt x="45" y="363" on="0"/>
        <pt x="187" y="510" on="0"/>
        <pt x="304" y="510" on="1"/>
        <pt x="386" y="510" on="0"/>
        <pt x="474" y="424" on="0"/>
        <pt x="474" y="296" on="0"/>
        <pt x="371" y="194" on="0"/>
        <pt x="283" y="194" on="1"/>
        <pt x="251" y="194" on="0"/>
        <pt x="173" y="218" on="0"/>
        <pt x="173" y="241" on="1"/>
        <pt x="173" y="249" on="0"/>
        <pt x="182" y="263" on="0"/>
        <pt x="189" y="263" on="0"/>
        <pt x="228" y="250" on="0"/>
        <pt x="252" y="250" on="1"/>
        <pt x="312" y="250" on="0"/>
        <pt x="379" y="318" on="0"/>
        <pt x="379" y="403" on="0"/>
        <pt x="329" y="460" on="0"/>
        <pt x="284" y="460" on="1"/>
        <pt x="220" y="460" on="0"/>
        <pt x="148" y="347" on="0"/>
        <pt x="148" y="153" on="0"/>
        <pt x="224" y="52" on="0"/>
        <pt x="384" y="52" on="0"/>
        <pt x="442" y="109" on="1"/>
        <pt x="446" y="113" on="0"/>
        <pt x="459" y="113" on="0"/>
        <pt x="477" y="94" on="0"/>
        <pt x="477" y="79" on="0"/>
        <pt x="473" y="75" on="1"/>
        <pt x="396" y="-14" on="0"/>
      </contour>
      <contour>
        <pt x="321" y="760" on="1"/>
        <pt x="363" y="740" on="0"/>
        <pt x="363" y="652" on="0"/>
        <pt x="307" y="625" on="1"/>
        <pt x="194" y="569" on="1"/>
        <pt x="165" y="604" on="1"/>
      </contour>
    </TTGlyph>
    <TTGlyph name="ecircumflex" xMin="45" yMin="-14" xMax="477" yMax="755">
      <contour>
        <pt x="275" y="-14" on="1"/>
        <pt x="170" y="-14" on="0"/>
        <pt x="45" y="126" on="0"/>
        <pt x="45" y="363" on="0"/>
        <pt x="187" y="510" on="0"/>
        <pt x="304" y="510" on="1"/>
        <pt x="386" y="510" on="0"/>
        <pt x="474" y="424" on="0"/>
        <pt x="474" y="296" on="0"/>
        <pt x="371" y="194" on="0"/>
        <pt x="283" y="194" on="1"/>
        <pt x="251" y="194" on="0"/>
        <pt x="173" y="218" on="0"/>
        <pt x="173" y="241" on="1"/>
        <pt x="173" y="249" on="0"/>
        <pt x="182" y="263" on="0"/>
        <pt x="189" y="263" on="0"/>
        <pt x="228" y="250" on="0"/>
        <pt x="252" y="250" on="1"/>
        <pt x="312" y="250" on="0"/>
        <pt x="379" y="318" on="0"/>
        <pt x="379" y="403" on="0"/>
        <pt x="329" y="460" on="0"/>
        <pt x="284" y="460" on="1"/>
        <pt x="220" y="460" on="0"/>
        <pt x="148" y="347" on="0"/>
        <pt x="148" y="153" on="0"/>
        <pt x="224" y="52" on="0"/>
        <pt x="384" y="52" on="0"/>
        <pt x="442" y="109" on="1"/>
        <pt x="446" y="113" on="0"/>
        <pt x="459" y="113" on="0"/>
        <pt x="477" y="94" on="0"/>
        <pt x="477" y="79" on="0"/>
        <pt x="473" y="75" on="1"/>
        <pt x="396" y="-14" on="0"/>
      </contour>
      <contour>
        <pt x="251" y="755" on="1"/>
        <pt x="278" y="755" on="1"/>
        <pt x="296" y="744" on="0"/>
        <pt x="370" y="652" on="0"/>
        <pt x="401" y="597" on="1"/>
        <pt x="369" y="569" on="1"/>
        <pt x="264" y="652" on="1"/>
        <pt x="160" y="569" on="1"/>
        <pt x="127" y="597" on="1"/>
        <pt x="159" y="653" on="0"/>
        <pt x="231" y="743" on="0"/>
      </contour>
    </TTGlyph>
    <TTGlyph name="edieresis" xMin="45" yMin="-14" xMax="477" yMax="724">
      <contour>
        <pt x="275" y="-14" on="1"/>
        <pt x="170" y="-14" on="0"/>
        <pt x="45" y="126" on="0"/>
        <pt x="45" y="363" on="0"/>
        <pt x="187" y="510" on="0"/>
        <pt x="304" y="510" on="1"/>
        <pt x="386" y="510" on="0"/>
        <pt x="474" y="424" on="0"/>
        <pt x="474" y="296" on="0"/>
        <pt x="371" y="194" on="0"/>
        <pt x="283" y="194" on="1"/>
        <pt x="251" y="194" on="0"/>
        <pt x="173" y="218" on="0"/>
        <pt x="173" y="241" on="1"/>
        <pt x="173" y="249" on="0"/>
        <pt x="182" y="263" on="0"/>
        <pt x="189" y="263" on="0"/>
        <pt x="228" y="250" on="0"/>
        <pt x="252" y="250" on="1"/>
        <pt x="312" y="250" on="0"/>
        <pt x="379" y="318" on="0"/>
        <pt x="379" y="403" on="0"/>
        <pt x="329" y="460" on="0"/>
        <pt x="284" y="460" on="1"/>
        <pt x="220" y="460" on="0"/>
        <pt x="148" y="347" on="0"/>
        <pt x="148" y="153" on="0"/>
        <pt x="224" y="52" on="0"/>
        <pt x="384" y="52" on="0"/>
        <pt x="442" y="109" on="1"/>
        <pt x="446" y="113" on="0"/>
        <pt x="459" y="113" on="0"/>
        <pt x="477" y="94" on="0"/>
        <pt x="477" y="79" on="0"/>
        <pt x="473" y="75" on="1"/>
        <pt x="396" y="-14" on="0"/>
      </contour>
      <contour>
        <pt x="108" y="639" on="0"/>
        <pt x="108" y="677" on="0"/>
        <pt x="151" y="724" on="0"/>
        <pt x="188" y="724" on="0"/>
        <pt x="232" y="678" on="0"/>
        <pt x="232" y="639" on="0"/>
        <pt x="188" y="593" on="0"/>
        <pt x="152" y="593" on="0"/>
      </contour>
      <contour>
        <pt x="297" y="639" on="0"/>
        <pt x="297" y="677" on="0"/>
        <pt x="340" y="724" on="0"/>
        <pt x="377" y="724" on="0"/>
        <pt x="421" y="678" on="0"/>
        <pt x="421" y="639" on="0"/>
        <pt x="377" y="593" on="0"/>
        <pt x="341" y="593" on="0"/>
      </contour>
    </TTGlyph>
    <TTGlyph name="egrave" xMin="45" yMin="-14" xMax="477" yMax="760">
      <contour>
        <pt x="275" y="-14" on="1"/>
        <pt x="170" y="-14" on="0"/>
        <pt x="45" y="126" on="0"/>
        <pt x="45" y="363" on="0"/>
        <pt x="187" y="510" on="0"/>
        <pt x="304" y="510" on="1"/>
        <pt x="386" y="510" on="0"/>
        <pt x="474" y="424" on="0"/>
        <pt x="474" y="296" on="0"/>
        <pt x="371" y="194" on="0"/>
        <pt x="283" y="194" on="1"/>
        <pt x="251" y="194" on="0"/>
        <pt x="173" y="218" on="0"/>
        <pt x="173" y="241" on="1"/>
        <pt x="173" y="249" on="0"/>
        <pt x="182" y="263" on="0"/>
        <pt x="189" y="263" on="0"/>
        <pt x="228" y="250" on="0"/>
        <pt x="252" y="250" on="1"/>
        <pt x="312" y="250" on="0"/>
        <pt x="379" y="318" on="0"/>
        <pt x="379" y="403" on="0"/>
        <pt x="329" y="460" on="0"/>
        <pt x="284" y="460" on="1"/>
        <pt x="220" y="460" on="0"/>
        <pt x="148" y="347" on="0"/>
        <pt x="148" y="153" on="0"/>
        <pt x="224" y="52" on="0"/>
        <pt x="384" y="52" on="0"/>
        <pt x="442" y="109" on="1"/>
        <pt x="446" y="113" on="0"/>
        <pt x="459" y="113" on="0"/>
        <pt x="477" y="94" on="0"/>
        <pt x="477" y="79" on="0"/>
        <pt x="473" y="75" on="1"/>
        <pt x="396" y="-14" on="0"/>
      </contour>
      <contour>
        <pt x="221" y="625" on="1"/>
        <pt x="165" y="652" on="0"/>
        <pt x="165" y="740" on="0"/>
        <pt x="207" y="760" on="1"/>
        <pt x="363" y="604" on="1"/>
        <pt x="334" y="569" on="1"/>
      </contour>
    </TTGlyph>
    <TTGlyph name="eight" xMin="54" yMin="-17" xMax="562" yMax="735">
      <contour>
        <pt x="409" y="735" on="0"/>
        <pt x="544" y="645" on="0"/>
        <pt x="544" y="448" on="0"/>
        <pt x="421" y="373" on="1"/>
        <pt x="562" y="301" on="0"/>
        <pt x="562" y="179" on="1"/>
        <pt x="562" y="90" on="0"/>
        <pt x="422" y="-17" on="0"/>
        <pt x="190" y="-17" on="0"/>
        <pt x="54" y="72" on="0"/>
        <pt x="54" y="166" on="1"/>
        <pt x="54" y="274" on="0"/>
        <pt x="187" y="354" on="1"/>
        <pt x="129" y="386" on="0"/>
        <pt x="72" y="470" on="0"/>
        <pt x="72" y="532" on="1"/>
        <pt x="72" y="616" on="0"/>
        <pt x="190" y="735" on="0"/>
      </contour>
      <contour>
        <pt x="160" y="169" on="1"/>
        <pt x="160" y="111" on="0"/>
        <pt x="235" y="39" on="0"/>
        <pt x="368" y="39" on="0"/>
        <pt x="452" y="100" on="0"/>
        <pt x="452" y="202" on="0"/>
        <pt x="402" y="258" on="0"/>
        <pt x="342" y="284" on="1"/>
        <pt x="235" y="331" on="1"/>
        <pt x="160" y="252" on="0"/>
      </contour>
      <contour>
        <pt x="436" y="608" on="0"/>
        <pt x="364" y="679" on="0"/>
        <pt x="246" y="679" on="0"/>
        <pt x="175" y="609" on="0"/>
        <pt x="175" y="521" on="0"/>
        <pt x="234" y="458" on="0"/>
        <pt x="307" y="426" on="1"/>
        <pt x="369" y="398" on="1"/>
        <pt x="436" y="475" on="0"/>
        <pt x="436" y="552" on="1"/>
      </contour>
    </TTGlyph>
    <TTGlyph name="eightinferior" xMin="37" yMin="-14" xMax="358" yMax="442">
      <contour>
        <pt x="263" y="442" on="0"/>
        <pt x="347" y="386" on="0"/>
        <pt x="347" y="268" on="0"/>
        <pt x="280" y="222" on="1"/>
        <pt x="358" y="178" on="0"/>
        <pt x="358" y="108" on="1"/>
        <pt x="358" y="53" on="0"/>
        <pt x="269" y="-14" on="0"/>
        <pt x="124" y="-14" on="0"/>
        <pt x="37" y="42" on="0"/>
        <pt x="37" y="162" on="0"/>
        <pt x="111" y="212" on="1"/>
        <pt x="48" y="249" on="0"/>
        <pt x="48" y="316" on="1"/>
        <pt x="48" y="368" on="0"/>
        <pt x="123" y="442" on="0"/>
      </contour>
      <contour>
        <pt x="160" y="187" on="1"/>
        <pt x="122" y="143" on="0"/>
        <pt x="122" y="71" on="0"/>
        <pt x="160" y="32" on="0"/>
        <pt x="229" y="32" on="0"/>
        <pt x="272" y="64" on="0"/>
        <pt x="272" y="120" on="0"/>
        <pt x="245" y="150" on="0"/>
        <pt x="214" y="164" on="1"/>
      </contour>
      <contour>
        <pt x="263" y="358" on="0"/>
        <pt x="226" y="395" on="0"/>
        <pt x="166" y="395" on="0"/>
        <pt x="131" y="358" on="0"/>
        <pt x="131" y="311" on="0"/>
        <pt x="162" y="280" on="0"/>
        <pt x="201" y="260" on="1"/>
        <pt x="229" y="246" on="1"/>
        <pt x="263" y="291" on="0"/>
      </contour>
    </TTGlyph>
    <TTGlyph name="ellipsis" xMin="33" yMin="-14" xMax="539" yMax="117">
      <contour>
        <pt x="33" y="32" on="0"/>
        <pt x="33" y="70" on="0"/>
        <pt x="76" y="117" on="0"/>
        <pt x="113" y="117" on="0"/>
        <pt x="157" y="71" on="0"/>
        <pt x="157" y="32" on="0"/>
        <pt x="113" y="-14" on="0"/>
        <pt x="77" y="-14" on="0"/>
      </contour>
      <contour>
        <pt x="224" y="32" on="0"/>
        <pt x="224" y="70" on="0"/>
        <pt x="267" y="117" on="0"/>
        <pt x="304" y="117" on="0"/>
        <pt x="348" y="71" on="0"/>
        <pt x="348" y="32" on="0"/>
        <pt x="304" y="-14" on="0"/>
        <pt x="268" y="-14" on="0"/>
      </contour>
      <contour>
        <pt x="415" y="32" on="0"/>
        <pt x="415" y="70" on="0"/>
        <pt x="458" y="117" on="0"/>
        <pt x="495" y="117" on="0"/>
        <pt x="539" y="71" on="0"/>
        <pt x="539" y="32" on="0"/>
        <pt x="495" y="-14" on="0"/>
        <pt x="459" y="-14" on="0"/>
      </contour>
    </TTGlyph>
    <TTGlyph name="emdash" xMin="50" yMin="252" xMax="859" yMax="332">
      <contour>
        <pt x="833" y="262" on="1"/>
        <pt x="50" y="252" on="1"/>
        <pt x="50" y="301" on="0"/>
        <pt x="76" y="322" on="1"/>
        <pt x="859" y="332" on="1"/>
        <pt x="859" y="282" on="0"/>
      </contour>
    </TTGlyph>
    <TTGlyph name="endash" xMin="50" yMin="252" xMax="730" yMax="332">
      <contour>
        <pt x="704" y="262" on="1"/>
        <pt x="50" y="252" on="1"/>
        <pt x="50" y="301" on="0"/>
        <pt x="76" y="322" on="1"/>
        <pt x="730" y="332" on="1"/>
        <pt x="730" y="282" on="0"/>
      </contour>
    </TTGlyph>
    <TTGlyph name="equal" xMin="99" yMin="211" xMax="522" yMax="503">
      <contour>
        <pt x="99" y="211" on="1"/>
        <pt x="99" y="287" on="1"/>
        <pt x="522" y="287" on="1"/>
        <pt x="522" y="211" on="1"/>
      </contour>
      <contour>
        <pt x="99" y="427" on="1"/>
        <pt x="99" y="503" on="1"/>
        <pt x="522" y="503" on="1"/>
        <pt x="522" y="427" on="1"/>
      </contour>
    </TTGlyph>
    <TTGlyph name="eslash" xMin="22" yMin="244" xMax="326" yMax="474">
      <contour>
        <pt x="302" y="384" on="1"/>
        <pt x="22" y="244" on="1"/>
        <pt x="22" y="288" on="0"/>
        <pt x="31" y="327" on="0"/>
        <pt x="46" y="334" on="1"/>
        <pt x="326" y="474" on="1"/>
        <pt x="326" y="430" on="0"/>
        <pt x="317" y="391" on="0"/>
      </contour>
    </TTGlyph>
    <TTGlyph name="eth" xMin="43" yMin="-14" xMax="559" yMax="790">
      <contour>
        <pt x="541" y="238" on="1"/>
        <pt x="541" y="123" on="0"/>
        <pt x="406" y="-14" on="0"/>
        <pt x="177" y="-14" on="0"/>
        <pt x="43" y="122" on="0"/>
        <pt x="43" y="354" on="0"/>
        <pt x="177" y="490" on="0"/>
        <pt x="292" y="490" on="1"/>
        <pt x="377" y="490" on="0"/>
        <pt x="431" y="430" on="1"/>
        <pt x="414" y="520" on="0"/>
        <pt x="385" y="593" on="1"/>
        <pt x="286" y="544" on="1"/>
        <pt x="286" y="584" on="0"/>
        <pt x="294" y="619" on="0"/>
        <pt x="307" y="625" on="1"/>
        <pt x="357" y="650" on="1"/>
        <pt x="304" y="745" on="0"/>
        <pt x="236" y="745" on="1"/>
        <pt x="200" y="745" on="0"/>
        <pt x="159" y="698" on="0"/>
        <pt x="159" y="642" on="0"/>
        <pt x="172" y="605" on="0"/>
        <pt x="180" y="596" on="1"/>
        <pt x="202" y="573" on="0"/>
        <pt x="202" y="569" on="1"/>
        <pt x="202" y="559" on="0"/>
        <pt x="186" y="559" on="1"/>
        <pt x="134" y="559" on="0"/>
        <pt x="74" y="622" on="0"/>
        <pt x="74" y="716" on="0"/>
        <pt x="159" y="790" on="0"/>
        <pt x="237" y="790" on="1"/>
        <pt x="347" y="790" on="0"/>
        <pt x="422" y="683" on="1"/>
        <pt x="559" y="751" on="1"/>
        <pt x="559" y="710" on="0"/>
        <pt x="551" y="677" on="0"/>
        <pt x="538" y="670" on="1"/>
        <pt x="455" y="628" on="1"/>
        <pt x="498" y="543" on="0"/>
        <pt x="541" y="325" on="0"/>
      </contour>
      <contour>
        <pt x="224" y="438" on="0"/>
        <pt x="147" y="330" on="0"/>
        <pt x="147" y="149" on="0"/>
        <pt x="235" y="40" on="0"/>
        <pt x="370" y="40" on="0"/>
        <pt x="448" y="142" on="0"/>
        <pt x="448" y="321" on="0"/>
        <pt x="359" y="438" on="0"/>
      </contour>
    </TTGlyph>
    <TTGlyph name="exclam" xMin="60" yMin="-14" xMax="186" yMax="767">
      <contour>
        <pt x="62" y="32" on="0"/>
        <pt x="62" y="70" on="0"/>
        <pt x="105" y="117" on="0"/>
        <pt x="142" y="117" on="0"/>
        <pt x="186" y="71" on="0"/>
        <pt x="186" y="32" on="0"/>
        <pt x="142" y="-14" on="0"/>
        <pt x="106" y="-14" on="0"/>
      </contour>
      <contour>
        <pt x="60" y="742" on="1"/>
        <pt x="82" y="767" on="0"/>
        <pt x="162" y="767" on="0"/>
        <pt x="186" y="742" on="1"/>
        <pt x="186" y="623" on="0"/>
        <pt x="148" y="243" on="1"/>
        <pt x="143" y="198" on="0"/>
        <pt x="103" y="198" on="0"/>
        <pt x="98" y="243" on="1"/>
        <pt x="60" y="623" on="0"/>
      </contour>
    </TTGlyph>
    <TTGlyph name="exclamdown" xMin="60" yMin="-270" xMax="186" yMax="511">
      <contour>
        <pt x="184" y="465" on="0"/>
        <pt x="184" y="427" on="0"/>
        <pt x="141" y="380" on="0"/>
        <pt x="104" y="380" on="0"/>
        <pt x="60" y="426" on="0"/>
        <pt x="60" y="465" on="0"/>
        <pt x="104" y="511" on="0"/>
        <pt x="140" y="511" on="0"/>
      </contour>
      <contour>
        <pt x="186" y="-245" on="1"/>
        <pt x="164" y="-270" on="0"/>
        <pt x="84" y="-270" on="0"/>
        <pt x="60" y="-245" on="1"/>
        <pt x="60" y="-126" on="0"/>
        <pt x="98" y="254" on="1"/>
        <pt x="103" y="299" on="0"/>
        <pt x="143" y="299" on="0"/>
        <pt x="148" y="254" on="1"/>
        <pt x="186" y="-126" on="0"/>
      </contour>
    </TTGlyph>
    <TTGlyph name="f" xMin="-105" yMin="-238" xMax="444" yMax="782">
      <contour>
        <pt x="295" y="782" on="1"/>
        <pt x="360" y="782" on="0"/>
        <pt x="444" y="720" on="0"/>
        <pt x="444" y="628" on="0"/>
        <pt x="389" y="573" on="0"/>
        <pt x="346" y="573" on="1"/>
        <pt x="327" y="573" on="0"/>
        <pt x="327" y="584" on="1"/>
        <pt x="327" y="586" on="0"/>
        <pt x="333" y="596" on="1"/>
        <pt x="351" y="624" on="0"/>
        <pt x="351" y="698" on="0"/>
        <pt x="315" y="737" on="0"/>
        <pt x="284" y="737" on="1"/>
        <pt x="199" y="737" on="0"/>
        <pt x="199" y="573" on="1"/>
        <pt x="199" y="497" on="1"/>
        <pt x="339" y="497" on="1"/>
        <pt x="339" y="452" on="0"/>
        <pt x="316" y="434" on="1"/>
        <pt x="199" y="434" on="1"/>
        <pt x="199" y="-13" on="1"/>
        <pt x="199" y="-117" on="0"/>
        <pt x="108" y="-238" on="0"/>
        <pt x="19" y="-238" on="1"/>
        <pt x="-35" y="-238" on="0"/>
        <pt x="-105" y="-183" on="0"/>
        <pt x="-105" y="-98" on="0"/>
        <pt x="-49" y="-46" on="0"/>
        <pt x="-7" y="-46" on="1"/>
        <pt x="12" y="-46" on="0"/>
        <pt x="12" y="-57" on="1"/>
        <pt x="12" y="-60" on="0"/>
        <pt x="5" y="-68" on="1"/>
        <pt x="-16" y="-94" on="0"/>
        <pt x="-16" y="-160" on="0"/>
        <pt x="15" y="-195" on="0"/>
        <pt x="69" y="-195" on="0"/>
        <pt x="109" y="-142" on="0"/>
        <pt x="109" y="-90" on="1"/>
        <pt x="109" y="434" on="1"/>
        <pt x="21" y="434" on="1"/>
        <pt x="21" y="461" on="0"/>
        <pt x="29" y="477" on="0"/>
        <pt x="45" y="481" on="1"/>
        <pt x="109" y="497" on="1"/>
        <pt x="109" y="630" on="0"/>
        <pt x="203" y="782" on="0"/>
      </contour>
    </TTGlyph>
    <TTGlyph name="f.alt" xMin="-105" yMin="-238" xMax="500" yMax="782">
      <contour>
        <pt x="351" y="782" on="1"/>
        <pt x="416" y="782" on="0"/>
        <pt x="500" y="720" on="0"/>
        <pt x="500" y="628" on="0"/>
        <pt x="444" y="573" on="0"/>
        <pt x="402" y="573" on="1"/>
        <pt x="383" y="573" on="0"/>
        <pt x="383" y="584" on="1"/>
        <pt x="383" y="586" on="0"/>
        <pt x="389" y="596" on="1"/>
        <pt x="407" y="624" on="0"/>
        <pt x="407" y="699" on="0"/>
        <pt x="372" y="737" on="0"/>
        <pt x="340" y="737" on="1"/>
        <pt x="199" y="737" on="0"/>
        <pt x="199" y="497" on="1"/>
        <pt x="339" y="497" on="1"/>
        <pt x="339" y="452" on="0"/>
        <pt x="316" y="434" on="1"/>
        <pt x="199" y="434" on="1"/>
        <pt x="199" y="-13" on="1"/>
        <pt x="199" y="-117" on="0"/>
        <pt x="108" y="-238" on="0"/>
        <pt x="19" y="-238" on="1"/>
        <pt x="-35" y="-238" on="0"/>
        <pt x="-105" y="-183" on="0"/>
        <pt x="-105" y="-98" on="0"/>
        <pt x="-49" y="-46" on="0"/>
        <pt x="-7" y="-46" on="1"/>
        <pt x="12" y="-46" on="0"/>
        <pt x="12" y="-57" on="1"/>
        <pt x="12" y="-60" on="0"/>
        <pt x="5" y="-68" on="1"/>
        <pt x="-16" y="-94" on="0"/>
        <pt x="-16" y="-160" on="0"/>
        <pt x="15" y="-195" on="0"/>
        <pt x="69" y="-195" on="0"/>
        <pt x="109" y="-142" on="0"/>
        <pt x="109" y="-90" on="1"/>
        <pt x="109" y="434" on="1"/>
        <pt x="21" y="434" on="1"/>
        <pt x="21" y="461" on="0"/>
        <pt x="29" y="477" on="0"/>
        <pt x="45" y="481" on="1"/>
        <pt x="112" y="497" on="1"/>
        <pt x="124" y="630" on="0"/>
        <pt x="245" y="782" on="0"/>
      </contour>
    </TTGlyph>
</ttFont>
